<svg width="720" viewBox="0 0 640 427" xmlns="http://www.w3.org/2000/svg"><defs><radialGradient id="b" cx="783" cy="-12.9" r="360" gradientTransform="matrix(.292 -2.02 2.56 .355 588 1454)" gradientUnits="userSpaceOnUse"><stop stop-color="#e6e6e6" offset="0"/><stop stop-color="#b3b3b3" offset="1"/></radialGradient><clipPath id="a"><path transform="skewY(2.2) scale(.999 1)" opacity=".4" d="M48.4-564h604v403h-604z" paint-order="stroke fill markers"/></clipPath><filter id="c" x="-.2" y="-.2" width="1.5" height="1.5" color-interpolation-filters="sRGB"><feGaussianBlur stdDeviation="12.3"/></filter></defs><g transform="matrix(1.06 -.0412 0 1.06 -52 597)" clip-path="url(#a)" stroke-width=".9"><path d="m0-613 719 82.8 72 429L64-.2z" fill="url(#b)" paint-order="stroke fill markers"/><g stroke-width=".4" color="#000"><path d="M29.9 17.1c-.3.2-.4.5-.4 1l.2 1h-1c-.8 0-1.7.3-2.1 1.4l-.5 1.2-.8-1.2a3.3 3.3 0 0 0-2.5-1.7h-2l.3 2.1 2 .1c.2 0 .4 0 .7.5l1.4 2.3-.8 2.3c-.2.4-.4.4-.6.4h-2l.3 2.1 2 .1c.7 0 1.7-.4 2.1-1.4l.5-1.2.7 1.2A3.3 3.3 0 0 0 30 29h1v1c.2.9 1.1 1.4 1.7 1l2.7-2.1c.5-.4.4-1.4-.3-1.8L32 24.8c-.3-.2-.7-.3-1 0-.3.1-.4.5-.4.9l.1 1h-1c-.2 0-.3 0-.6-.4l-1.5-2.4.9-2.2c.1-.4.3-.4.6-.4h1v1.1c.2.9 1.1 1.4 1.7 1l2.7-2c.5-.5.4-1.4-.3-1.9L31 17.2c-.3-.2-.7-.3-1 0z" fill-rule="evenodd" style="-inkscape-stroke:none" transform="matrix(2.5 0 0 2.5 294 -476)"/><path d="M23 27.6h1c.5 0 1-.2 1.3-.9l2.2-5.6c.3-.8.9-1 1.4-1l1 .1" style="-inkscape-stroke:none" fill="none" transform="matrix(2.5 0 0 2.5 294 -476)"/><path d="M22 19.9h1c.5 0 1.1.3 1.6 1l3.6 6c.5.7 1.1 1 1.6 1h1" style="-inkscape-stroke:none" fill="none" transform="matrix(2.5 0 0 2.5 294 -476)"/></g><path d="M31.2 21.9a2 2 0 0 0-.6.2c-.6.3-1 .8-1 1.3l-1 5.3c-.1 1 1.1 1.6 2.2.9l4.4-3c.8-.7 1-1.7.3-2.2l-3.4-2.3c-.3-.2-.6-.2-.9-.2zm7.3-.7a1 1 0 0 0-1 1l-1.1 6.3c-.1.5.3.8.8.8s1-.5 1.1-1l1-6.3c.2-.5-.2-.8-.7-.8z" color="#000" fill-rule="evenodd" style="-inkscape-stroke:none" transform="matrix(-2.5 0 0 2.5 811 -551)"/><path d="M-10.2 30.7c-3.8-.2-6.2 1.7-7 3.8-.2.4 0 1 .6 1.2.5.2 1 0 1.2-.4.6-1.4 2.5-3 5.5-2.8 3 .1 5.4 1.8 6.5 3.3.3.4 1 .6 1.4.4.4-.2.5-.7.2-1.1a11.2 11.2 0 0 0-8.4-4.4zm.7 4c-2.3 0-4 1-4.4 2.7 0 .5.3 1 .8 1.2.6.1 1-.1 1.2-.6.1-1 1-1.6 2.7-1.5 1.6 0 2.7.8 3.2 1.7.3.5.9.8 1.4.6.4-.1.6-.6.4-1a6 6 0 0 0-5.3-3zm.7 4c-1.1 0-1.9.8-1.7 1.8.2 1 1.2 1.8 2.3 1.8 1 0 1.8-.7 1.6-1.7-.2-1-1.2-1.8-2.2-1.9z" color="#000" fill-rule="evenodd" style="-inkscape-stroke:none" transform="matrix(2.5 0 0 2.5 763 -493)" paint-order="markers fill stroke"/><path d="M161-557a8 8 0 0 0-6.2 2 8.8 8.8 0 0 0-2.4 7.5l.8 6.3c-1 .3-1.7.6-2.3 1-2.3 1.3-2.1 2.8-2 4.3l1.4 12c.3 3 1.7 4.6 4.2 4.8l22 1.7c2.4.2 3.4-1.2 3.1-4.1l-1.4-11.8c-.1-1.5-.3-3-3-4.7-.6-.5-1.5-1-2.5-1.4l-.7-6.2c-.4-3.2-2-6.1-4.1-8-2-2-4.5-3.1-6.9-3.4zm.7 6a6 6 0 0 1 5.4 4.9l.5 4.9a30.7 30.7 0 0 0-9.7-1l-.6-4.8c-.1-1.3.2-2.2 1-3 .8-.7 2.1-1.2 3.4-1z" paint-order="markers stroke fill"/><g fill-rule="evenodd" stroke-linecap="round" stroke-linejoin="round" stroke-miterlimit="128" stroke-width=".4" color="#000"><path d="M-3.3 25c-.3.4-.2 1 .2 1.5 2 1.9 2.2 3.4 2.3 4.5a5 5 0 0 1-1 4.4c-.4.4-.3 1 .2 1.4.4.5 1 .5 1.4 0a7.2 7.2 0 0 0 1.4-5.7c-.2-1-.6-3.6-3-6-.5-.5-1.1-.5-1.5-.1z" fill-opacity=".4" style="-inkscape-stroke:none" transform="matrix(2.5 0 0 2.5 475 -488)"/><path d="M-9.1 23.4c-.5 0-.7.2-1 .5l-2 2.5h-1.5c-.8-.1-1.4.6-1.2 1.4l.5 4.3c.2.8 1 1.6 1.7 1.6h1.5l2.8 2.7c.3.3.6.6 1 .6h.5l-1.8-13.6zm3 3.8c-.1.5.2 1.2.7 1.4.5.3 1 1.4 1.2 2.3.1.8-.2 1.9-.6 2.1-.5.3-.6.9-.3 1.4.3.5 1 .7 1.4.5 1.4-.7 1.7-2.5 1.5-4-.2-1.4-1-3.2-2.6-4-.5-.4-1-.2-1.3.3z" style="-inkscape-stroke:none" transform="matrix(2.5 0 0 2.5 475 -488)"/></g><path d="M549-425c-.9.3-1.3 1.2-1.2 2.2l1 6.7-3.6-3.4-3 3.4 7.6 7-5.6 6.5 4 3.6 2.7-3 1 6.6c.3 2.2 3 3.4 4.4 1.9l6.2-7.2c.8-1 .6-2.5-.5-3.5l-5-4.6 3.7-4.3c.8-1 .6-2.5-.5-3.5l-8.4-7.7c-.9-.8-2-1-2.8-.7zm4.5 7.4 2.8 2.6-2.1 2.4zm1.8 12.4 2.8 2.6-2.1 2.4z" color="#000" style="-inkscape-stroke:none" paint-order="markers stroke fill"/><g color="#000" stroke-width=".4" paint-order="markers fill stroke"><path d="m-3 27.2 1.7 4.7.2 1-.4 4.7L.3 33l-.1-1z" style="-inkscape-stroke:none" fill="none" transform="matrix(2.5 0 0 2.5 475 -393)"/><path d="M-3 26.2h-.4c-.4.3-.6.8-.4 1.3l1.5 4h-3l-2.3-2c-.4-.4-1 0-.8.5l1.3 2.5-.6 2.6c0 .5.7.8 1 .4l1.7-2h3l-.5 4c0 1.2 1.5 1.7 2 .7l1.4-4.7 4.4-.1c.4 0 .6-.6.2-.9l-1.1-1a.5.5 0 0 0-.4-.2H.6L-2 26.8c-.2-.3-.6-.5-1-.5z" fill-rule="evenodd" style="-inkscape-stroke:none" transform="matrix(2.5 0 0 2.5 475 -393)"/></g><path d="M165-443c-4-.2-6.9 3.7-6.3 8.7l2.4 21c.5 5 4.3 9 8.3 9.2l19.6.6c4.1 0 7-3.8 6.4-8.7L193-433c-.6-5-4.3-9-8.4-9.2zm-1 11.9 2.4.1.7 6 4.9.3-.7-6.1h2.4l1.7 15H173l-.7-6-4.9-.2.7 6-2.5-.1zm17 .7 5 .2c1.2 0 2.5 1.4 2.7 3l1 9c.2 1.6-.9 2.9-2 2.8l.3 3h-2.5l-.3-3-2.5-.1c-1.3 0-2.6-1.5-2.8-3.1l-1-9c-.2-1.5.8-2.9 2.1-2.8zm.4 3 1 8.9 4.9.2-1-9zM91.7-327.3c-.5 0-1 .8-1 1.6v2a8.7 8.7 0 0 0-3.5 2.2l-1.8-2c-.5-.5-1.3-.5-1.8 0l-2.2 3.5c-.5.5-.3 1.5 0 2.3l2 1.7c-.8 1.5-1 3.3-1.3 5h-1.4c-.8 0-1.3 1-1 1.8l.5 4.7c0 .8.5 1.5 1.2 1.5h1.8l2 5-1.3 2c-.3.8 0 1.8.3 2.5l3 3c.5.5 1.2.5 1.7 0l1.3-2a11 11 0 0 0 4.2 2l.3 2c0 1 .7 1.8 1.5 1.8h3.5c.7 0 1.2-1 1.2-1.8l-.3-2 3.8-2.3 1.8 2c.5.6 1.2.6 1.7 0l2.3-3.4c.2-.6.2-1.6-.3-2.3l-1.8-1.8 1.3-5h1.5c.8 0 1-.7 1-1.7l-.5-4.5c0-1-.8-1.5-1.5-1.5h-1.5c-.5-2-1.3-3.8-2.3-5l1.3-2c.5-.8.5-1.8 0-2.3l-3-3.2c-.8-.5-1.5-.5-1.8 0l-1.2 2-4.5-2.3v-2c0-.7-.8-1.4-1.5-1.4zm3 9.3c4.7 0 9 5 9.7 10.8.5 6-2.8 11-7.5 11s-9-4.8-9.8-10.8c-.7-6 2.6-11 7.6-11z" paint-order="markers fill stroke"/><path d="m189-297-16.8-17.8c-2.6-2.8.4-7 3-4.3l14.8 15.7 11.2-15.9c2-2.7 5.9 1.4 4 4.2l-12.8 18c-.6 1-2.1 1.4-3.4 0zm163-240-10.4 12.5c-1.2 1.5-.9 4 .7 5.8l14 14.7c4 4 8.4-1.3 4.5-5.3l-11-11.6 8.2-9.9c2.9-3.5-3-9.7-6-6.3z" color="#000" style="-inkscape-stroke:none" paint-order="stroke fill markers"/><path d="M-13.8 6.9c-.8-.1-1.4.7-1.3 1.7l1.4 12.5c0 1 .8 2 1.6 2l2 .1c.8.1 1.4-.7 1.3-1.7L-10.2 9c0-1-.8-2-1.7-2zm6.8.6c-.8 0-1.3.7-1.2 1.8L-7 21.7c.1 1 .9 1.9 1.7 2h2c.7.2 1.3-.6 1.2-1.6L-3.4 9.7c0-1-.8-2-1.6-2z" color="#000" fill-rule="evenodd" style="-inkscape-stroke:none" transform="matrix(2.5 0 0 2.5 91.3 -584)"/><path d="M90.9-169c-.5.3-.7.9-.6 1.5l1.4 11.5c.2 1.4 1.6 2.3 2.5 1.5l6.2-5.5c.7-.7.5-2-.4-2.8l-7.6-6c-.5-.4-1-.5-1.5-.2z" color="#000" fill-rule="evenodd" style="-inkscape-stroke:none" transform="matrix(2.49 0 0 2.5 31.4 -15.4)"/><path d="M144 81.1c-.4 0-.7.1-.8.4l-1.2 3.1-3.3-.3c-.8 0-1.1 1-.4 1.6l3 2.7-.4 3.2c0 .8.8 1.5 1.5 1.2l3.2-1.4 3.8 2c.8.4 1.5-.2 1.2-1l-1.4-3.3 2.2-2.2c.5-.6 0-1.6-1-1.7l-3.2-.3-2.2-3.4c-.3-.3-.6-.6-1-.6z" color="#000" fill-rule="evenodd" style="-inkscape-stroke:none" transform="matrix(2.5 0 0 2.5 270 -714)"/><path d="M243-546c-2.8-.3-4.7 2.2-4.3 5.4l2.3 19.2c.5 4.1 3.7 7.7 7.2 8l22.6 1.8c3.5.3 5.9-2.8 5.4-6.8l-1.7-13.1c-.3-3.2-3-6-5.7-6.3l-9-.8-4.9-5.5a3 3 0 0 0-1.9-1zm192 16 1.8 13.1 14.6 1.3-1.8-13zm3.2 5.5 2.4.2.4 2.6-2.5-.2zm7.3.7 2.4.2.4 2.6-2.5-.2zm-7.1 9.6c-2-.2-3.4 1.4-3.1 3.6l1.2 9.2c.4 2.9 2.9 5.4 5.6 5.6l9.8.8c2.7.2 4.5-2 4.1-4.8l-1.2-9.1a5 5 0 0 0-4.2-4.2z" paint-order="stroke fill markers"/><path d="M526-521.3c-4-.3-6.8 2.7-6.2 6.8l2.5 17.6a9.8 9.8 0 0 0 8.4 8l19.6 1.6c4 .4 6.8-2.7 6.2-6.8l-2.6-17.2a10 10 0 0 0-8.4-8zm15.7 8.9c1.4.1 2.6 1.3 2.8 2.7.2 1.4-.7 2.4-2 2.3a3.3 3.3 0 0 1-2.9-2.7c-.2-1.4.8-2.4 2.1-2.3zm-8.3 9a3 3 0 0 1 1.9 1l4.8 4.5h.4l3.5-3.8a2 2 0 0 1 2-.5 3 3 0 0 1 2 1.5l3.2 5.1c1 1.7.1 3.6-1.7 3.4l-19.5-1.6c-2.2-.2-3.6-3-2.3-4.4l4.1-4.6a2 2 0 0 1 1.6-.5z" fill-rule="evenodd"/><path d="M81.2-446c-7.6 1.2-12.3 9.5-11.3 19.4 1.2 11.2 9.3 20.5 18.1 20.8 3 .2 5.4-1 7.7-2.5 1.2-.9 1.2-1.1 1.4-1.7v-1.2c-.4-2-1.3-2.3-2.6-3.1-6.1-2.7-11-10-11.8-18-.5-4.8.6-8.2 1.3-10l.3-.6a3 3 0 0 0-.3-1.9c-.4-.7-.9-1-1.2-1.2a4 4 0 0 0-1.6 0z" paint-order="stroke fill markers"/><path d="M376-329c-8.8 0-14.9 8-13.6 18 1.3 9.9 9.4 17.7 18.2 17.5 8.8-.2 14.9-8.2 13.6-18s-9.4-17.6-18.2-17.5zm1.4 10.9c3.4 0 6.5 3 7 6.8.5 3.7-1.8 6.8-5.2 6.9-3.4 0-6.6-3-7-6.8-.5-3.8 1.8-6.9 5.2-6.9zm.5 3.4c-1.7 0-3 1.6-2.7 3.5.3 1.9 1.8 3.4 3.5 3.3 1.7 0 3-1.5 2.7-3.4-.3-1.9-1.8-3.4-3.5-3.4z" paint-order="markers fill stroke"/><path d="M66.3-148c-.8 0-1.4.6-1.3 1.4l1.4 8.5c.1.8.9 1.5 1.7 1.5l8.8.2c.8 0 1.3-.5 1.2-1.3l-1.3-8.4c-.1-.8-.9-1.5-1.7-1.5z" color="#000" fill-rule="evenodd" style="-inkscape-stroke:none" transform="matrix(2.5 0 0 2.5 467 -49.1)"/><path d="M568-230a5.6 5.6 0 0 0-5.2 6.6l1.8 12.5a7 7 0 0 0 7 5.9l22.1-1.6a5.6 5.6 0 0 0 5.3-6.6l-1.9-12.3c-.5-3.4-3.6-6-7-5.8zm4.8 7.3a5.4 5.4 0 0 1 5.6 4.6c.2 1 0 1.8-.3 2.6l6.3-.4c-.6-.8-1-1.6-1-2.5-.5-2.7 1.4-5 4.1-5.2a5.5 5.5 0 0 1 5.7 4.6c.4 2.7-1.4 5-4.2 5.2l-14.7 1a5.5 5.5 0 0 1-5.7-4.6 4.5 4.5 0 0 1 4.2-5.3zm.3 2.4a2.2 2.2 0 0 0-2 2.7 2.7 2.7 0 0 0 2.8 2.3 2 2 0 0 0 2-2.6 2.7 2.7 0 0 0-2.8-2.3zm14.7-.9a2.2 2.2 0 0 0-2 2.7 2.7 2.7 0 0 0 2.8 2.3 2.2 2.2 0 0 0 2-2.7 2.7 2.7 0 0 0-2.8-2.3zm-292.3 2.7c-4 0-7 4.3-6.3 9l.6 5.8c.7 4.7 4.4 8.2 8.4 8 4 0 7-4.3 6.3-9l-.5-5.8c-.8-4.8-4.5-8.3-8.5-8zm-9.3 19.5c-1 0-1.7 1.3-1.4 2.5 0 1.3 4.4 8.5 12 9.3l.7 6 5-.3-.8-6c2-.5 7.6-2.5 9.6-10v-1c0-1-1-2-2-2-.8 0-1.3 1-1.6 1.5-2.4 9-14.2 10.8-19.7 1.3a2 2 0 0 0-1.8-1.3z" paint-order="markers fill stroke"/><g fill-rule="evenodd" stroke-width=".4" color="#000" paint-order="markers fill stroke"><path d="M0 32.7c-2.3 0-4 1.5-4.4 3.7-.1.6.2 1.3.8 1.5.5.1 1-.2 1.1-.8.2-1.2 1.1-2.1 2.8-2.1 1.6 0 2.7.8 3.2 2 .3.6.9 1 1.3.7.5-.2.7-.8.5-1.4-1-2.2-3-3.6-5.3-3.6zm.6 5.1c-1 0-1.8 1.1-1.7 2.4.2 1.2 1.2 2.2 2.3 2.2 1 0 1.8-1 1.7-2.3-.2-1.3-1.2-2.3-2.3-2.3z" style="-inkscape-stroke:none" transform="matrix(2.5 0 0 2.5 283 -397)"/><path d="M-.6 27.5a7.3 7.3 0 0 0-7.2 5.3c-.1.6.2 1.3.7 1.5.5.3 1 0 1.2-.5.6-1.9 2.5-4 5.5-4s5.5 2 6.5 3.9c.3.5 1 .7 1.4.4.4-.2.5-1 .2-1.5a9.8 9.8 0 0 0-8.3-5z" fill-opacity=".4" style="-inkscape-stroke:none" transform="matrix(2.5 0 0 2.5 283 -397)"/></g><path d="m99.1-208 1.7 15.6 14.7-1-1.7-15.4zm3.1 6h2.5l.3 3-2.4.2zm7.4-.3 2.5-.2.3 3.1-2.5.2zm-7.3 13c-2 0-3.4 2.3-3.1 4.9l1.1 10.9c.4 3.4 3 6 5.6 5.9l9.9-.8c2.7-.2 4.6-3 4.2-6.5l-1.2-10.8c-.3-2.6-2.1-4.5-4.2-4.4zM682-147.5c-1.3 0-2.5 1.3-2 2.5s1.3 2.5 2.5 2.3l1.3 6a9 9 0 0 0-3.8 8.7l7.5-.8 1.5 9.3 2.5 2.3 2.5-2.8-1.8-9.5 7.5-.8a10 10 0 0 0-6.2-7.4l-1-6c1.5 0 2.5-1.6 2.3-2.6a2.5 2.5 0 0 0-3-2.4z" paint-order="stroke fill markers"/><path d="M564-329c-2 0-3.7 1-4.8 2.3a6.5 6.5 0 0 0-1.5 5.2l1.6 10.4c-.9-.3-1.7-.4-2.6-.4-4 0-6.8 3.5-6.2 7.6s4.4 7.5 8.4 7.4c4-.1 6.9-3.6 6.3-7.6l-2.6-17.4c0-.5.2-1.1.6-1.7a2 2 0 0 1 1.5-.8l9.8-.1c.4 0 1.2.3 1.8.8.6.5 1 1.2 1 1.6l1.6 10.3c-.8-.2-1.7-.4-2.5-.4-4 0-6.9 3.5-6.3 7.6.6 4 4.4 7.3 8.5 7.2 4 0 6.8-3.5 6.2-7.5l-2.5-17.2c-.4-2-1.6-3.8-3-5.1a8.4 8.4 0 0 0-5.5-2.3z" color="#000" fill-rule="evenodd" style="-inkscape-stroke:none"/><path d="m744-50.9.1 1.2-1 .1c-1.5.2-2.7 2.2-2.5 4.1l.3 2.5c.1 1.6 2.1 1.4 2-.2l-.3-2.5c0-.6.4-1.3.8-1.4h1l.1 1.2c.1 1 1 1.4 1.7.8l2.7-2.8c.5-.6.4-1.6-.3-2l-3.2-2.2c-.7-.5-1.5.2-1.4 1.2zm3.8 7.1.2 2.5-6.9.8c-1.3.2-1 2.7.3 2.5l7.9-1c.4 0 1-.5.8-1.3l-.4-3.7c-.2-1.6-2.1-1.4-2 .2z" color="#000" fill-rule="evenodd" style="-inkscape-stroke:none" transform="matrix(2.5 0 0 2.5 -1741 44.6)"/><path d="M610-125a15.7 15.7 0 0 1-13.6 18c-8.8 1-17.1-5.3-18.4-14.3-1.3-9 4.8-17 13.6-18A17 17 0 0 1 610-125z" paint-order="stroke fill markers"/><path d="m5.2 22.7-.6.2c-.5.4-.7 1-.7 1.7l.9 7.2c.1 1.5 1.6 2.2 2.5 1.2l3.5-3.8c.7-.8.5-2.2-.3-2.8L6 23c-.3-.2-.6-.3-1-.3zm7.4-.4c-.6 0-1 .6-.9 1.2l1 8.3c0 .7.6 1.2 1.1 1.2.5 0 1-.6.8-1.3l-1-8.3c0-.6-.5-1.2-1-1.1z" color="#000" fill-rule="evenodd" style="-inkscape-stroke:none" transform="matrix(2.5 0 0 2.5 180 -263)"/><path d="M486 45c-3.5.2-6 3-5.4 6.2.5 3.2 3.8 5.7 7.3 5.4 3.6-.2 6-3 5.5-6.2-.6-3.2-3.9-5.6-7.4-5.4zm.3 1.8a4.8 4.8 0 0 1 5.1 3.7c.4 2.3-1.3 4.2-3.7 4.3s-4.8-1.5-5.1-3.7c-.4-2.3 1.2-4.2 3.7-4.3zm.4 2.2c-1.1 0-1.9 1-1.7 2 .2 1 1.2 1.7 2.3 1.6 1 0 1.8-1 1.6-2-.1-.9-1.1-1.7-2.2-1.6zm.1 1c.6-.1 1 .2 1.2.7 0 .5-.3 1-.9 1-.5 0-1-.3-1.1-.8 0-.5.3-1 .8-1z" color="#000" style="-inkscape-stroke:none" transform="matrix(2.5 0 0 2.5 -449 -357)" paint-order="fill markers stroke"/><path d="m664-328 .4 2.4H652a6.4 6.4 0 0 0-6.3 7.2l.4 2.4h4.9l-.4-2.4c-.1-1 1-2.4 2.1-2.4l12.3-.1.4 2.3c.3 1.9 2.6 3 4 2l6.7-4.9c1.3-.9 1-3-.6-3.8l-8.1-4.7c-.8-.5-1.8-.5-2.5 0a2 2 0 0 0-1 2zm-11.3 14.7-6.6 4.9c-1.3 1-1 3 .6 4l8 4.5c1.9 1 3.9-.1 3.6-2l-.4-2.4 12.3-.2c3.9-.1 6.9-3.5 6.3-7.2l-.4-2.3h-4.9l.4 2.4c.1 1-1 2.4-2.1 2.4l-12.3.2-.4-2.4c-.1-.9-.7-1.6-1.6-2-.9-.4-1.8-.4-2.5.1z" color="#000" fill-rule="evenodd" style="-inkscape-stroke:none"/><path d="M781-159c-2.4.3-4.6 1.2-6.3 2.7a7 7 0 0 0-2.2 6.2l.1 1.1 5-.5-.2-1.1c-.2-1 .2-1.7 1-2.5.8-.7 2-1.3 3.4-1.4 1.3-.2 2.7.1 3.7.6 1 .6 1.6 1.2 1.7 2.2l.7 3.6c-1.6 0-3.3 0-5 .3a30 30 0 0 0-12 3.6c-2.2 1.4-2 2.5-1.8 3.7l1.5 9c.4 2.2 1.8 3.2 4.2 2.9l22.2-2.7c2.5-.3 3.5-1.6 3.2-3.8l-1.5-8.9c-.2-1-.4-2.2-3-3-.8-.3-1.7-.5-2.7-.6l-.8-4.7a7.8 7.8 0 0 0-4.2-5.4c-2-1.1-4.5-1.6-7-1.3z" paint-order="markers stroke fill"/><g stroke-width=".4" fill-rule="evenodd" color="#000"><path d="m13.1 45.7 4.5 4.3M9 40.1c-.5 0-.7.4-1 .7L6 44l-1.5.2c-.8 0-1.4 1-1.3 2l.6 4.8c0 1 .8 1.7 1.6 1.6l1.5-.2 2.8 2.7c.3.2.6.5 1 .4h.6L9.5 40zm3.3 4.8c-.3.5-.2 1.3.2 1.7L14 48l-1.1 1.6c-.3.6-.3 1.3.2 1.7.4.4 1 .4 1.4-.1l1-1.7 1.5 1.4c.5.4 1 .3 1.4-.2.3-.5.3-1.3-.2-1.7l-1.4-1.3 1-1.7c.4-.5.3-1.3-.1-1.7a.9.9 0 0 0-1.4.2L15.2 46l-1.5-1.4c-.4-.4-1-.3-1.3.2z" style="-inkscape-stroke:none" transform="matrix(2.5 0 0 2.5 197 -201)"/><path d="m4.8 47.2 2-.2 2.4-5.1 1.5 13-3.5-4.3-2 .2z" style="-inkscape-stroke:none" transform="matrix(2.5 0 0 2.5 197 -201)"/></g><path d="m8.2 40.3 3.5 3.9c.5.5.3 1.4-.2 1.8L7 49c-.7.5-1.6-.2-1.5-1.1l.9-6.9c0-.4.3-.8.6-1 .4 0 .8 0 1 .3zm-7-.8 3.6 3.9c.5.5.4 1.4-.2 1.8l-4.4 3c-.7.5-1.6-.2-1.5-1.1l.9-6.8c0-.4.3-.8.7-1 .3-.1.7 0 1 .2z" color="#000" fill-rule="evenodd" style="-inkscape-stroke:none" transform="matrix(-2.5 0 0 2.5 325 -201)" paint-order="stroke fill markers"/><path d="M648-238a8.8 8.8 0 0 0-8.4 10.2l1.9 12c.8 5.3 5.9 9.3 11.3 8.9l44.3-3.2c5.4-.4 9.1-5 8.3-10l2.5-.2a2 2 0 0 0 2-2.5l-1-6.9a2.7 2.7 0 0 0-2.9-2.2l-2.4.2c-.8-5.1-6-9-11.3-8.7zm.7 4.8 44.2-2.6a5.4 5.4 0 0 1 5.7 4.4l1.8 11.6c.5 2.6-1.4 4.8-4.1 5l-44.2 3a5.3 5.3 0 0 1-5.7-4.4l-1.8-12a4.2 4.2 0 0 1 4.2-5zm.4 2.4a2.2 2.2 0 0 0-2 2.5l1.8 12a2.7 2.7 0 0 0 2.8 2.2l34.4-2.3-2.6-16.4z" color="#000" fill-rule="evenodd" style="-inkscape-stroke:none" paint-order="markers fill stroke"/><path d="M402.8-119c-2 .2-3.5 2.2-3.2 4.5.3 2.3 2.2 4 4.2 3.7 2-.2 3.4-2.2 3.2-4.5-.3-2.3-2.2-4-4.2-3.7zm1.7 13.7c-2 .2-3.4 2.2-3.2 4.5.3 2.2 2.2 3.9 4.3 3.7 2-.3 3.4-2.3 3.1-4.6-.3-2.2-2.1-3.9-4.2-3.6zm1.8 13.6c-2 .2-3.5 2.3-3.2 4.6.3 2.2 2.2 3.9 4.2 3.6 2-.2 3.5-2.3 3.2-4.5-.3-2.3-2.2-4-4.2-3.7z" fill-rule="evenodd"/><g stroke-dashoffset="3" stroke-linecap="round" stroke-linejoin="round" stroke-miterlimit="128" stroke-width=".4" color="#000"><path d="m131 77.5 2.6 3.6h3.9l-2.5 2.6 1.6 3.6-4.3-1.8-3.6 2 .4-3.7-3.4-2.7h4z" style="-inkscape-stroke:none" fill="none" transform="matrix(2.5 0 0 2.5 426 -522)"/><path d="M131 76.6c-.4 0-.7.2-.8.5l-1.2 3.1h-3.3c-.9 0-1.1 1-.4 1.6l3 2.3-.4 3.1c0 .8.9 1.4 1.5 1l3.3-1.7 3.7 1.6c.8.3 1.6-.4 1.2-1l-1.3-3.1 2.1-2.4c.6-.5 0-1.5-1-1.5h-3.2l-2.3-3c-.2-.3-.5-.5-1-.5zm.5 2.9 1.4 2c.2.3.6.5 1 .5h1.5l-1 1.1a1 1 0 0 0-.2.9l.8 1.6-2.2-.8a1 1 0 0 0-.9 0l-1.8 1 .2-1.8a1 1 0 0 0-.4-.8l-1.5-1.2h1.6c.3 0 .6-.2.8-.5z" fill-rule="evenodd" style="-inkscape-stroke:none" transform="matrix(2.5 0 0 2.5 426 -522)"/></g><path d="M495-129c-.3 0-.5.1-.8.3-.8.5-1.3 1.5-1.2 2.6l.9 6-8.2-6.9-2.5 3.5 11.6 9.7 12.3 10 7.1 5.9 2.6-3.5-14.2-11.6 3.4-4.7c.9-1.2.6-2.8-.5-3.7l-8.4-7c-.5-.4-1.1-.6-1.7-.6h-.3zm3.7 7.5 2.8 2.4-2.1 2.8zm-5.4 12-4 5.6 4 3.3 2.7-3.8 1 7c.3 2.3 3.1 3.2 4.4 1.3l3-4.2z" color="#000" style="-inkscape-stroke:none" paint-order="markers stroke fill"/><path d="M384.3-222c-1.3 0-2.3 1.3-2 2.8l.7 5.4-3.8.3c-.7 0-1 .8-1 1.5l.3 2.8c0 .7.8 1.2 1.5 1.2h1.3l.4 4c.6 4 3.6 6.8 7 6.5h1.3l.8 5.5c0 1.5 1.4 2.5 2.7 2.5 1.3 0 2.5-1.5 2-3l-.5-5.3h1c3.5-.4 5.8-3.7 5.3-7.4l-.6-4h1.3c.8 0 1.3-.8 1-1.6v-2.4c-.3-1-1-1.6-1.8-1.6h-3.4l-.8-5c0-1.7-1.5-3-2.8-2.7-1.4 0-2.4 1.3-2.2 2.8l.8 5.4-5 .3-.6-5.5a3 3 0 0 0-3-2.5z" paint-order="stroke fill markers"/><path d="m479-228 15.5 13.5c1.1 1 1.3 2.6.5 3.7l-11.5 15.3c-2 2.5-6-.9-4-3.5l10.1-13.3-13.5-11.8c-2.6-2.3.4-6.2 3-3.9z" color="#000" style="-inkscape-stroke:none" paint-order="stroke fill markers"/></g><path d="M1667-771a10 10 0 0 0-10 10v40a10 10 0 0 0 10 10h40a10 10 0 0 0 10-10v-40a10 10 0 0 0-10-10zm70 0a10 10 0 0 0-10 10v50c0 .5-.1 9.4-10 10h-50a10 10 0 0 0-10 10v30a10 10 0 0 0 10 10h100a10 10 0 0 0 10-10v-100a10 10 0 0 0-10-10zm-65 10h30a5 5 0 0 1 5 5v30a5 5 0 0 1-5 5h-30a5 5 0 0 1-5-5v-30a5 5 0 0 1 5-5z" filter="url(#c)" opacity=".5" transform="translate(-1397 924)" paint-order="stroke fill markers"/><path d="M270 153a10 10 0 0 0-10 10v40a10 10 0 0 0 10 10h40a10 10 0 0 0 10-10v-40a10 10 0 0 0-10-10zm70 0a10 10 0 0 0-10 10v50c0 .5-.1 9.4-10 10h-50a10 10 0 0 0-10 10v30a10 10 0 0 0 10 10h100a10 10 0 0 0 10-10V163a10 10 0 0 0-10-10zm-65 10h30a5 5 0 0 1 5 5v30a5 5 0 0 1-5 5h-30a5 5 0 0 1-5-5v-30a5 5 0 0 1 5-5z" fill="#f9f9f9" paint-order="stroke fill markers"/></svg>
