<svg viewBox="0 0 120 80" xmlns="http://www.w3.org/2000/svg"><path fill="#ccccc2" d="M0 0h120v80H0z"/><ellipse transform="rotate(13.3)" cx="96" cy="2" rx="17" ry="11" fill="#f0f0e7"/><path d="M42.29 47.91a5.38 5.38 0 0 1-3.8 3.46c-1.5.37-3-.06-3.7-1.37-.19-.35-.66-.38-1.1-.07-.4.3-.57.82-.38 1.2.97 1.84 3 2.47 5.1 1.88 2.1-.53 4.3-2.2 5.3-4.88.18-.45.04-.93-.39-1-.11-.01-.67-.02-1.1.7zm6.7-4c-1.2.34-2.1 1.54-2.1 2.69s.95 1.83 2.1 1.51 2.1-1.54 2.1-2.69-.95-1.83-2.1-1.51zm-21 5.9c-1.2.34-2.1 1.54-2.1 2.69s.95 1.83 2.1 1.51c1.2-.34 2.1-1.54 2.1-2.69s-.95-1.83-2.1-1.51z" fill="#292929"/><circle cx="33.2" cy="47.1" fill="none" stroke="#292929" stroke-linecap="round" stroke-linejoin="round" stroke-width="5" r="22.3"/><path d="m15.5 35 11-27 17.9 23c-8.24 7.75-20.1 8.34-28.9 4.01z" fill="#f0f0e7" stroke="#292929" stroke-linecap="round" stroke-linejoin="round" stroke-width="5"/><path d="m82.3 27.2 17.7 5.23-.34 16.7-17.7-5.27z" fill="#f0f0e7"/><g fill="#292929" stroke="#292929" stroke-linecap="round" stroke-linejoin="round"><path d="m35.32 31.78-1.12-1.3-1.7.2.9-1.46-.7-1.56 1.65.4 1.27-1.15.14 1.7 1.48.84-1.58.66z"/><path transform="matrix(1.24 0 0 1.23 34.2 1.64)" d="m57.4 21.4-2.36-2.74-3.6.39 1.88-3.09-1.48-3.3 3.52.83 2.68-2.43.3 3.6 3.14 1.8-3.34 1.4z" stroke-width=".81"/><path transform="matrix(1.07 .619 -.616 1.07 30.5 -37.2)" d="m57.4 21.4-2.36-2.74-3.6.39 1.88-3.09-1.48-3.3 3.52.83 2.68-2.43.3 3.6 3.14 1.8-3.34 1.4z" stroke-width=".81"/><path transform="matrix(.513 -.296 .295 .511 57.6 31.4)" d="m57.4 21.4-2.36-2.74-3.6.39 1.88-3.09-1.48-3.3 3.52.83 2.68-2.43.3 3.6 3.14 1.8-3.34 1.4z" stroke-width="1.69"/><path transform="matrix(.447 .12 -.119 .444 84.7 19.5)" d="m57.4 21.4-2.36-2.74-3.6.39 1.88-3.09-1.48-3.3 3.52.83 2.68-2.43.3 3.6 3.14 1.8-3.34 1.4z" stroke-width="2.17"/><path transform="matrix(.226 -.177 .176 .225 8.85 37.9)" d="m57.4 21.4-2.36-2.74-3.6.39 1.88-3.09-1.48-3.3 3.52.83 2.68-2.43.3 3.6 3.14 1.8-3.34 1.4z" stroke-width="2.12"/><path transform="matrix(.226 -.177 .176 .225 11.7 24.6)" d="m57.4 21.4-2.36-2.74-3.6.39 1.88-3.09-1.48-3.3 3.52.83 2.68-2.43.3 3.6 3.14 1.8-3.34 1.4z" stroke-width="2.12"/><path d="m27.57 27.06-.98-.34-.84.62.02-1.04-.84-.61 1-.3.31-1 .6.86h1.04l-.63.83z" stroke-width="2.55"/><path transform="matrix(.185 -.0497 .0496 .185 19.8 21.7)" d="m57.4 21.4-2.36-2.74-3.6.39 1.88-3.09-1.48-3.3 3.52.83 2.68-2.43.3 3.6 3.14 1.8-3.34 1.4z" stroke-width="8.87"/></g><g fill="#292929"><path d="M87.86 32.67c-.86-.23-1.56.29-1.56 1.15s.7 1.74 1.56 1.97 1.56-.29 1.56-1.15-.7-1.74-1.56-1.97zm5.46 6.12-3.12 2.3-2.34-2.18-3.12 2.3v.78c0 .78.78.98.78.98l10.92 2.89s.74.14.78-.58v-1.56z"/><path d="M84.74 25.6c-2.56-.67-4.68.9-4.68 3.45v12.48c0 2.56 2.12 5.24 4.68 5.92l12.48 3.3c2.56.67 4.68-.9 4.68-3.45V34.82c0-2.56-2.12-5.24-4.68-5.92zm0 3.13 12.48 3.3A2.12 2.12 0 0 1 98.78 34v12.48c0 .89-.67 1.38-1.56 1.14l-12.48-3.3a2.12 2.12 0 0 1-1.56-1.96V29.88c0-.9.67-1.39 1.56-1.15z"/></g><g fill="none" stroke-linecap="square" stroke-width="4"><path d="m53.16 71.83 14.4-14.4" stroke="#292929"/><path d="m68.56 56.43 1.96-1.96" stroke="#f0f0e7"/></g><path d="m77.5 29.9-5.64-9.76M75.9 34.8l-6.5-1.35m7 7.95-6.09 2.66M105 39.8l11-2.66m-4 9.76-6.5-1.35m-.5 5.95 5.28 4.03" fill="none" stroke="#292929" stroke-linecap="round" stroke-linejoin="round" stroke-width="2"/></svg>
