<svg viewBox="0 0 120 80" xmlns="http://www.w3.org/2000/svg"><path fill="#ccccc2" d="M0 0h120v80H0z"/><g transform="translate(.7 1.4)"><rect transform="skewY(-14.9) scale(.966 1)" x="35.3" y="33.2" width="53.9" height="42.8" rx="10" ry="10" fill="#f0f0e7" stroke="#292929" stroke-linecap="round" stroke-linejoin="round" stroke-width="9"/><path d="M65.1 36.3c-.8 2-2.3 3.1-3.8 3.5-1.5.3-3-.1-3.7-1.4-.2-.4-.7-.4-1.1 0-.4.2-.6.7-.4 1.1 1 1.9 3 2.5 5.1 1.9a7.8 7.8 0 0 0 5.3-4.9c.2-.4 0-1-.4-1 0 0-.6 0-1 .7zm6.7-3.9c-1.2.3-2.1 1.5-2.1 2.7s1 1.8 2.1 1.5c1.1-.3 2.1-1.5 2.1-2.7s-1-1.8-2.1-1.5zm-21 5.8c-1.2.3-2.1 1.5-2.1 2.7s1 1.8 2.1 1.5c1.2-.3 2.1-1.5 2.1-2.7s-1-1.8-2.1-1.5z" fill="#303030"/><path d="m35.1 65.2-10.5-6.3a8.8 8.8 0 0 1-4-8V32.4c0-8.5 4.9-19 15.5-21.8l21.3-5.7c7-2 13-1.3 16.6.7l10.6 6.2" fill="none" stroke="#292929" stroke-linecap="round" stroke-linejoin="round" stroke-width="5"/></g><path d="m50.3 74.9 31.9-8.6L68 58.1l-31.9 8.6 14.2 8.2" fill="none" stroke="#292929" stroke-linecap="round" stroke-linejoin="round" stroke-width="5"/></svg>
