<svg version="1.1" viewBox="0 0 120 80" xmlns="http://www.w3.org/2000/svg">
 <rect x=".334" y="-.166" width="120" height="80" fill="#c8ccc2" fill-rule="evenodd" stroke-linecap="round" stroke-linejoin="round"/>
 <g transform="matrix(-1 0 0 1 126 5.1)">
  <g>
   <path d="m28.4 58.4-10.6-6.15c-3.55-2.05-3.55-2.05-3.55-5.05v-18c0.0141-1.63 1.56-3.46 3.55-4l35.5-9.51c3.55-0.951 3.55-0.951 7.1 1.1l10.6 6.15z" fill="#303030" stroke="#303030" stroke-linejoin="bevel" stroke-width="6"/>
   <rect transform="matrix(.966 -.259 0 1 0 0)" x="25.6" y="39" width="51.8" height="30" rx="5" ry="5" fill="#303030" fill-rule="evenodd" style="paint-order:markers fill stroke"/>
   <g stroke-width=".868">
    <path d="m35.5 37.1c-2.88 0.8-5.05 3.68-5.05 6.45 0 2.76 2.28 4.41 5.05 3.65 2.88-0.8 5.05-3.68 5.05-6.45 0-2.76-2.28-4.41-5.05-3.65z" fill="#c8ccc2"/>
    <path d="m63.9 29.4c-2.88 0.8-5.05 3.68-5.05 6.45 0 2.76 2.28 4.41 5.05 3.65 2.88-0.8 5.05-3.68 5.05-6.45 0-2.76-2.28-4.41-5.05-3.65z" fill="#c8ccc2"/>
    <path d="m35.5 38.6c-2.03 0.562-3.55 2.59-3.55 4.53 0 1.94 1.61 3.1 3.55 2.56 2.03-0.562 3.55-2.59 3.55-4.53 0-1.94-1.61-3.1-3.55-2.56z" fill="#ebf0e4"/>
    <path d="m63.9 30.9c-2.03 0.562-3.55 2.59-3.55 4.53 0 1.94 1.61 3.1 3.55 2.56 2.03-0.562 3.55-2.59 3.55-4.53 0-1.94-1.61-3.1-3.55-2.56z" fill="#ebf0e4"/>
   </g>
  </g>
  <g fill="none" stroke-linecap="round" stroke-linejoin="round">
   <path d="m42.6 48.6 7.86 0.903 7.86-5.1" stroke="#c8ccc2" stroke-width="3"/>
   <path d="m41.5 21.4-2.5-1.83 2.5-3.17-5-3.66" stroke="#c8ccc2" stroke-width="2.5"/>
   <path d="m41.5 21.4-2.5-1.83 2.5-3.17-5-3.66" stroke="#ebf0e4" stroke-width="2"/>
  </g>
  <circle cx="36.5" cy="12" r="2.5" fill="#ebf0e4" fill-rule="evenodd" stroke="#303030" stroke-linejoin="bevel" stroke-width="2" style="paint-order:markers fill stroke"/>
 </g>
 <g transform="rotate(-6.15 57.6 1688)">
  <path d="m186 70.7v-47h24l8 8v39z" fill="#303030" stroke="#303030" stroke-linecap="round" stroke-linejoin="round" stroke-width="3"/>
  <path d="m210 23.7v8h8l-8-8z" fill="#ebf0e4" stroke="#ebf0e4" stroke-linecap="square" stroke-linejoin="round" stroke-width="3"/>
  <g fill="#ebf0e4" aria-label="PDF">
   <path d="m194 42.6h-3.87c-0.0933 0-0.16 0.0667-0.16 0.16v9.01c0 0.0933 0.0667 0.16 0.16 0.16h1.89c0.0933 0 0.16-0.0667 0.16-0.16v-3.21c0-0.04 0.0267-0.0667 0.0667-0.0667h1.64c1.89 0 3.17-1.16 3.17-2.92 0-1.79-1.23-2.97-3.07-2.97zm-0.36 4.13h-1.39c-0.04 0-0.0667-0.0267-0.0667-0.0667v-2.11c0-0.04 0.0267-0.0667 0.0667-0.0667h1.39c0.733 0 1.23 0.453 1.23 1.13 0 0.667-0.493 1.11-1.23 1.11z"/>
   <path d="m199 51.9h3.4c2.11 0 3.52-1.16 3.52-2.92v-3.49c0-1.76-1.41-2.92-3.52-2.92h-3.4c-0.0933 0-0.16 0.0667-0.16 0.16v9.01c0 0.0933 0.0667 0.16 0.16 0.16zm2.05-1.96v-5.41c0-0.04 0.0267-0.0667 0.0667-0.0667h1.36c0.733 0 1.23 0.547 1.23 1.4v2.75c-0.0267 0.853-0.507 1.4-1.21 1.4h-1.37c-0.04 0-0.0667-0.0267-0.0667-0.0667z"/>
   <path d="m214 44.3v-1.57c0-0.0933-0.0667-0.16-0.16-0.16h-6.29c-0.0933 0-0.16 0.0667-0.16 0.16v9.01c0 0.0933 0.0667 0.16 0.16 0.16h1.89c0.0933 0 0.16-0.0667 0.16-0.16v-3.56c0-0.04 0.0267-0.0667 0.0667-0.0667h2.68c0.0933 0 0.16-0.0667 0.16-0.16v-1.56c0-0.0933-0.0667-0.16-0.16-0.16h-2.68c-0.04 0-0.0667-0.0267-0.0667-0.0667v-1.64c0-0.04 0.0267-0.0667 0.0667-0.0667h4.17c0.0933 0 0.16-0.0667 0.16-0.16z"/>
  </g>
 </g>
</svg>
