<svg viewBox="0 0 120 80" xmlns="http://www.w3.org/2000/svg"><path fill="#ccccc2" fill-rule="evenodd" d="M.3-.2h120v80H.3z"/><g transform="matrix(-1 0 0 1 126 5.1)"><path d="m28.4 58.4-10.6-6.2c-3.6-2-3.6-2-3.6-5v-18c0-1.6 1.6-3.5 3.6-4l35.5-9.5c3.5-1 3.5-1 7.1 1L71 23z" fill="#292929" stroke="#292929" stroke-linejoin="bevel" stroke-width="6"/><rect transform="skewY(-15) scale(.966 1)" x="25.6" y="39" width="51.8" height="30" rx="5" ry="5" fill="#292929" fill-rule="evenodd" style="paint-order:markers fill stroke"/><g stroke-width=".9"><path d="M35.5 37.1a7 7 0 0 0-5 6.5c0 2.7 2.2 4.4 5 3.6a7 7 0 0 0 5-6.5c0-2.7-2.2-4.4-5-3.6zm28.4-7.7a7 7 0 0 0-5 6.5c0 2.7 2.2 4.4 5 3.6a7 7 0 0 0 5-6.5c0-2.7-2.2-4.4-5-3.6z" fill="#ccccc2"/><path d="M35.5 38.6a5 5 0 0 0-3.5 4.5c0 2 1.6 3.1 3.5 2.6a5 5 0 0 0 3.5-4.5c0-2-1.6-3.1-3.5-2.6zm28.4-7.7a5 5 0 0 0-3.5 4.5c0 2 1.6 3.1 3.5 2.6a5 5 0 0 0 3.5-4.5c0-2-1.6-3.1-3.5-2.6z" fill="#f0f0e7"/></g><g fill="none" stroke-linecap="round" stroke-linejoin="round"><path d="m42.6 48.6 7.9.9 7.8-5.1" stroke="#ccccc2" stroke-width="3"/><path d="M41.5 21.4 39 19.6l2.5-3.2-5-3.7" stroke="#ccccc2" stroke-width="2.5"/><path d="M41.5 21.4 39 19.6l2.5-3.2-5-3.7" stroke="#f0f0e7" stroke-width="2"/></g><circle cx="36.5" cy="12" r="2.5" fill="#f0f0e7" fill-rule="evenodd" stroke="#292929" stroke-linejoin="bevel" stroke-width="2" style="paint-order:markers fill stroke"/></g><path d="M12 66.3 7 19.5 30.8 17l8.8 7 4.2 38.8z" fill="#292929" stroke="#292929" stroke-linecap="round" stroke-linejoin="round" stroke-width="3"/><path d="m30.8 17 .9 8 8-1-8.9-7z" fill="#f0f0e7" stroke="#f0f0e7" stroke-linecap="square" stroke-linejoin="round" stroke-width="3"/><path d="m17 37.5-4 .4v.1l1 9v.1l2-.2.1-.1-.3-3.2v-.1l1.7-.2c1.8-.2 3-1.5 2.8-3.2-.2-1.8-1.5-2.8-3.4-2.6zm0 4.1-1.4.2v-.1l-.3-2.1h.1l1.4-.2c.7-.1 1.3.3 1.3 1 .1.6-.3 1.1-1 1.2zm6 4.6 3.3-.4c2-.2 3.4-1.5 3.2-3.3l-.4-3.4c-.2-1.8-1.7-2.8-3.8-2.6l-3.4.4-.1.2 1 9h.1zm1.7-2.2-.5-5.4 1.4-.2c.7 0 1.2.4 1.3 1.3l.3 2.7c.1.8-.3 1.4-1 1.5l-1.4.2V44zM37 37l-.2-1.6-.1-.1-6.3.7-.1.2 1 9h.1l1.9-.2.1-.1-.4-3.6h.1l2.7-.3.1-.2-.2-1.6-.1-.1-2.7.3-.2-1.7 4.2-.5.1-.2z" fill="#f0f0e7" aria-label="PDF"/></svg>
