<svg version="1.1" viewBox="0 0 120 80" xmlns="http://www.w3.org/2000/svg">
 <rect width="120" height="80" fill="#ccccc2" fill-rule="evenodd" stroke-linecap="round" stroke-linejoin="round" stroke-width="1.07"/>
 <g transform="matrix(.682 0 0 .682 -19.8 14.5)">
  <rect transform="matrix(.966 -.257 0 1 0 0)" x="37" y="33.9" width="53.9" height="42.8" rx="10" ry="10" fill="#f0f0e4" fill-rule="evenodd" stroke="#303030" stroke-linecap="round" stroke-linejoin="round" stroke-width="9.16" style="paint-order:normal"/>
  <g fill="#303030">
   <path d="m62.9 40-3.7-1.37c-0.363-0.169-0.66-0.385-1.1-0.0724-0.4 0.302-0.57 0.819-0.38 1.21l5.1 1.87 5.3-4.88c0.18-0.45 0.039-0.931-0.39-0.991-0.11-0.0212-0.67-0.0227-0.885 0.337z"/>
   <path d="m73.4 32.6c-1.2 0.336-2.1 1.54-2.1 2.69s0.95 1.83 2.1 1.51c1.15-0.322 2.1-1.54 2.1-2.69s-0.95-1.83-2.1-1.51z"/>
   <path d="m52.4 38.5c-1.2 0.336-2.1 1.54-2.1 2.69s0.95 1.83 2.1 1.51c1.2-0.336 2.1-1.54 2.1-2.69s-0.95-1.83-2.1-1.51z"/>
  </g>
  <path d="m36.8 65.4-10.5-6.29c-3.24-2.28-4.04-5.2-3.95-8.04v-18.5c0-8.49 4.8-18.9 15.4-21.8l21.3-5.71c7.1-1.9 13.1-1.3 16.6 0.746l10.6 6.15" fill="none" stroke="#303030" stroke-linecap="round" stroke-linejoin="round" stroke-width="5"/>
  <path d="m51.3 73.7 31.9-8.56-14.2-8.2-31.9 8.56 14.2 8.2" fill="none" stroke="#303030" stroke-linecap="round" stroke-linejoin="round" stroke-width="5"/>
 </g>
 <g transform="matrix(-.682 0 0 .682 140 14.5)">
  <rect transform="matrix(.966 -.257 0 1 0 0)" x="37" y="33.9" width="53.9" height="42.8" rx="10" ry="10" fill="#f0f0e4" fill-rule="evenodd" stroke="#303030" stroke-linecap="round" stroke-linejoin="round" stroke-width="9.16" style="paint-order:normal"/>
  <g fill="#303030">
   <path d="m66.7 36.6c-0.81 2.03-2.3 3.14-3.8 3.46-1.5 0.372-3-0.0612-3.7-1.37-0.19-0.347-0.66-0.385-1.1-0.0724-0.4 0.302-0.57 0.819-0.38 1.21 0.97 1.83 3 2.46 5.1 1.87 2.1-0.523 4.3-2.2 5.3-4.88 0.18-0.45 0.039-0.931-0.39-0.991-0.11-0.0212-0.67-0.0227-1.1 0.698z"/>
   <path d="m73.4 32.6c-1.2 0.336-2.1 1.54-2.1 2.69s0.95 1.83 2.1 1.51c1.15-0.322 2.1-1.54 2.1-2.69s-0.95-1.83-2.1-1.51z"/>
   <path d="m52.4 38.5c-1.2 0.336-2.1 1.54-2.1 2.69s0.95 1.83 2.1 1.51c1.2-0.336 2.1-1.54 2.1-2.69s-0.95-1.83-2.1-1.51z"/>
  </g>
  <path d="m36.8 65.4-10.5-6.29c-3.24-2.28-4.04-5.2-3.95-8.04v-18.5c0-8.49 4.8-18.9 15.4-21.8l21.3-5.71c7.1-1.9 13.1-1.3 16.6 0.746l10.6 6.15" fill="none" stroke="#303030" stroke-linecap="round" stroke-linejoin="round" stroke-width="5"/>
  <path d="m51.3 73.7 31.9-8.56-14.2-8.2-31.9 8.56 14.2 8.2" fill="none" stroke="#303030" stroke-linecap="round" stroke-linejoin="round" stroke-width="5"/>
 </g>
 <g fill="none" stroke="#303030" stroke-linecap="round">
  <path d="m47.1 32 7-7" stroke-width="2"/>
  <path d="m47.1 40 7 7" stroke-width="2"/>
  <path d="m49 36h7.92" stroke-width="2"/>
  <path d="m73.2 32-7-7" stroke-width="2"/>
  <path d="m73.2 40-7 7" stroke-width="2"/>
  <path d="m71.3 36h-7.92" stroke-width="2"/>
 </g>
</svg>
