<svg viewBox="0 0 120 80" xmlns="http://www.w3.org/2000/svg"><path fill="#ccccc2" fill-rule="evenodd" d="M0 0h120v80H0z"/><g transform="matrix(.682 0 0 .682 -19.8 14.5)"><rect transform="skewY(-14.9) scale(.966 1)" x="37" y="33.9" width="53.9" height="42.8" rx="10" ry="10" fill="#f0f0e7" fill-rule="evenodd" stroke="#292929" stroke-linecap="round" stroke-linejoin="round" stroke-width="9.2" style="paint-order:normal"/><path d="m62.9 40-3.7-1.4c-.4-.1-.7-.4-1.1 0-.4.3-.6.8-.4 1.2l5.1 1.8 5.3-4.8c.2-.5 0-1-.4-1 0 0-.6 0-.9.3zm10.5-7.4c-1.2.3-2.1 1.5-2.1 2.7s1 1.8 2.1 1.5c1.1-.3 2.1-1.5 2.1-2.7s-1-1.8-2.1-1.5zm-21 5.9c-1.2.3-2.1 1.5-2.1 2.7s1 1.8 2.1 1.5c1.2-.3 2.1-1.5 2.1-2.7s-1-1.8-2.1-1.5z" fill="#292929"/><path d="m36.8 65.4-10.5-6.3a8.8 8.8 0 0 1-4-8V32.6c0-8.5 4.8-19 15.4-21.8L59 5c7.1-2 13.1-1.3 16.6.7L86.4 12M51.3 73.7l31.9-8.6L69 57l-31.9 8.6 14.2 8.2" fill="none" stroke="#292929" stroke-linecap="round" stroke-linejoin="round" stroke-width="5"/></g><g transform="matrix(-.682 0 0 .682 140 14.5)"><rect transform="skewY(-14.9) scale(.966 1)" x="37" y="33.9" width="53.9" height="42.8" rx="10" ry="10" fill="#f0f0e7" fill-rule="evenodd" stroke="#292929" stroke-linecap="round" stroke-linejoin="round" stroke-width="9.2" style="paint-order:normal"/><path d="M66.7 36.6c-.8 2-2.3 3.1-3.8 3.5-1.5.3-3-.1-3.7-1.4-.2-.4-.7-.4-1.1 0-.4.2-.6.7-.4 1.1 1 1.9 3 2.5 5.1 1.9a7.8 7.8 0 0 0 5.3-4.9c.2-.4 0-1-.4-1 0 0-.6 0-1 .7zm6.7-4c-1.2.3-2.1 1.5-2.1 2.7s1 1.8 2.1 1.5c1.1-.3 2.1-1.5 2.1-2.7s-1-1.8-2.1-1.5zm-21 5.9c-1.2.3-2.1 1.5-2.1 2.7s1 1.8 2.1 1.5c1.2-.3 2.1-1.5 2.1-2.7s-1-1.8-2.1-1.5z" fill="#292929"/><path d="m36.8 65.4-10.5-6.3a8.8 8.8 0 0 1-4-8V32.6c0-8.5 4.8-19 15.4-21.8L59 5c7.1-2 13.1-1.3 16.6.7L86.4 12M51.3 73.7l31.9-8.6L69 57l-31.9 8.6 14.2 8.2" fill="none" stroke="#292929" stroke-linecap="round" stroke-linejoin="round" stroke-width="5"/></g><path d="m47.1 32 7-7m-7 15 7 7M49 36h8m16.2-4-7-7m7 15-7 7m5.1-11h-8" fill="none" stroke="#292929" stroke-linecap="round" stroke-width="2"/></svg>
