<?xml version="1.0" encoding="UTF-8" standalone="no"?>
<svg
   xmlns:dc="http://purl.org/dc/elements/1.1/"
   xmlns:cc="http://creativecommons.org/ns#"
   xmlns:rdf="http://www.w3.org/1999/02/22-rdf-syntax-ns#"
   xmlns:svg="http://www.w3.org/2000/svg"
   xmlns="http://www.w3.org/2000/svg"
   id="svg8"
   version="1.1"
   viewBox="0 0 132.29 167.91"
   height="634.61"
   width="500">
  <defs
     id="defs2" />
  <metadata
     id="metadata5">
    <rdf:RDF>
      <cc:Work
         rdf:about="">
        <dc:format>image/svg+xml</dc:format>
        <dc:type
           rdf:resource="http://purl.org/dc/dcmitype/StillImage" />
        <dc:title></dc:title>
      </cc:Work>
    </rdf:RDF>
  </metadata>
  <g
     transform="translate(0,-129.09)"
     id="layer1">
    <g
       transform="translate(-0.00193,-0.04)"
       id="g826">
      <path
         id="path860"
         d="M 0,213.05 V 129.09 H 66.145 132.29 V 213.05 297 H 66.145 0 Z"
         style="fill:#fefefe;stroke-width:0.08018;fill-opacity:0"/>
      <path
         id="path828"
         d="m 0,213.05 v -83.96 h 66.145 c 60.005,0 66.145,0 66.145,0.13 0,0.1 0,0.11 -0.16,0.1 -0.14,0 -1.89,1.68 -10.23,10.02 l -10.07,10.07 H 66.078 20.325 l -0.02,63.56 -0.02,63.56 -10.067,10.07 C 1.8825,294.95 0.15771,296.7 0.20011,296.84 0.23657,296.95 0.21512,297 0.12567,297 0.01164,297 0,289.22 0,213.05 Z m 30.226,9.98 v -63.71 h 45.901 45.903 v 45.19 45.18 h -9.13 -9.11 v 9.24 9.24 h -9.367 -9.357 l -0.02,9.24 -0.02,9.25 h -27.38 -27.38 z"
         style="fill:#0B3954;stroke-width:0.08018" />
    </g>
  </g>
</svg>
