<?xml version="1.0" encoding="UTF-8" standalone="no"?>
<svg
   xmlns:dc="http://purl.org/dc/elements/1.1/"
   xmlns:cc="http://creativecommons.org/ns#"
   xmlns:rdf="http://www.w3.org/1999/02/22-rdf-syntax-ns#"
   xmlns:svg="http://www.w3.org/2000/svg"
   xmlns="http://www.w3.org/2000/svg"
   id="svg8"
   version="1.1"
   viewBox="0 0 132.29 167.91"
   height="634.61"
   width="500">
  <defs
     id="defs2" />
  <metadata
     id="metadata5">
    <rdf:RDF>
      <cc:Work
         rdf:about="">
        <dc:format>image/svg+xml</dc:format>
        <dc:type
           rdf:resource="http://purl.org/dc/dcmitype/StillImage" />
        <dc:title></dc:title>
      </cc:Work>
    </rdf:RDF>
  </metadata>
  <g
     transform="translate(0,-129.09)"
     id="layer1">
    <g
       transform="translate(-0.00193,-0.04)"
       id="g826">
      <path
         id="path860"
         d="M 0,213.05 V 129.09 H 66.145 132.29 V 213.05 297 H 66.145 0 Z"
         style="fill:#fefefe;stroke-width:0.08018" />
      <path
         id="path858"
         d="m 0,213.05 v -83.96 h 66.145 c 58.745,0 66.145,0 66.145,0.12 0,0.1 0,0.12 -0.1,0.12 0,0 -0.1,0.1 -0.1,0.17 0,0.11 -3.13,3.29 -10.01,10.18 L 112.1,149.7 H 66.353 20.605 v 63.55 63.56 L 10.59,286.82 c -6.8861,6.89 -10.0678,10.02 -10.18255,10.02 -0.0918,0 -0.16692,0 -0.16692,0.1 0,0.1 -0.0541,0.1 -0.12027,0.1 C 0.01344,297 0,287.62 0,213.05 Z m 29.942,73.91 c -0.02,-0.1 -0.03,-28.86 -0.02,-64.01 l 0.02,-63.91 h 46.181 46.187 v 45.47 45.46 h -9.12 -9.12 v 9.25 9.23 h -9.362 -9.365 l -0.02,9.25 -0.02,9.24 H 57.66 c -22.072,0 -27.651,0 -27.682,-0.1 z"
         style="fill:#eef1f3;stroke-width:0.08018" />
      <path
         id="path856"
         d="m 0,213.05 v -83.96 h 66.145 c 58.745,0 66.145,0 66.145,0.12 0,0.1 0,0.12 -0.1,0.12 0,0 -0.1,0 -0.1,0.11 0,0.1 -4.53,4.65 -10.07,10.19 L 111.99,149.7 H 66.299 20.605 v 63.5 63.5 l -10.068,10.07 c -5.538,5.54 -10.12007,10.07 -10.18266,10.07 -0.0626,0 -0.11381,0 -0.11381,0.1 0,0.1 -0.0541,0.1 -0.12027,0.1 C 0.01344,297 0,287.62 0,213.05 Z m 30.031,73.88 c -0.113,-0.11 -0.125,-6.03 -0.125,-63.9 0,-57.87 0.01,-63.79 0.125,-63.9 0.115,-0.12 4.413,-0.13 46.096,-0.13 41.683,0 45.983,0 46.093,0.13 0.12,0.11 0.13,4.34 0.13,45.38 0,41.03 0,45.26 -0.13,45.37 -0.11,0.11 -1.05,0.13 -9.14,0.13 h -9.01 v 9.13 c 0,8.21 0,9.15 -0.13,9.27 -0.11,0.11 -1.07,0.12 -9.381,0.12 h -9.252 v 9.14 c 0,8.2 -0.02,9.15 -0.128,9.26 -0.113,0.12 -2.726,0.13 -27.573,0.13 -24.846,0 -27.461,0 -27.575,-0.13 z"
         style="fill:#e3e8eb;stroke-width:0.08018" />
      <path
         id="path854"
         d="m 0,213.05 v -83.96 h 66.145 c 58.745,0 66.145,0 66.145,0.12 0,0.1 0,0.12 -0.1,0.12 0,0 -0.1,0 -0.1,0.1 0,0.1 -4.52,4.62 -10.05,10.14 l -10.03,10.05 H 66.265 20.525 l -0.02,63.55 -0.02,63.54 -10.042,10.04 C 4.9201,292.28 0.35605,296.8 0.30087,296.8 c -0.0552,0 -0.10034,0 -0.10034,0.1 0,0.1 -0.0541,0.1 -0.12027,0.1 C 0.01344,297 0,287.62 0,213.05 Z m 30.023,73.83 c -0.02,-0.1 -0.03,-28.83 -0.02,-63.93 l 0.02,-63.83 h 46.101 46.106 v 45.39 45.38 h -9.1 -9.1 v 9.22 9.22 h -9.346 -9.34 l -0.04,9.23 -0.04,9.22 H 57.701 c -22.008,0 -27.571,0 -27.601,-0.1 z"
         style="fill:#d3dbe0;stroke-width:0.08018" />
      <path
         id="path852"
         d="m 0,213.05 v -83.96 h 66.145 c 58.745,0 66.145,0 66.145,0.12 0,0.1 0,0.12 -0.1,0.12 0,0 -0.1,0 -0.1,0.1 0,0.1 -4.52,4.61 -10.05,10.14 l -10.06,10.06 H 66.253 20.525 l -0.02,63.53 -0.02,63.54 -10.056,10.05 c -5.5297,5.54 -10.0937,10.06 -10.14152,10.06 -0.0478,0 -0.0869,0 -0.0869,0.1 0,0.1 -0.0541,0.1 -0.12027,0.1 C 0.01344,297 0,287.62 0,213.05 Z m 30.023,73.83 c -0.02,-0.1 -0.03,-28.83 -0.02,-63.93 l 0.02,-63.83 h 46.101 46.106 v 45.39 45.38 h -9.1 -9.1 v 9.22 9.22 h -9.346 -9.34 l -0.04,9.23 -0.04,9.22 H 57.701 c -22.008,0 -27.571,0 -27.601,-0.1 z"
         style="fill:#c7d1d8;stroke-width:0.08018" />
      <path
         id="path850"
         d="m 0,213.05 v -83.96 h 66.145 c 52.605,0 66.145,0 66.145,0.1 0,0.1 -4.57,4.67 -10.16,10.26 l -10.16,10.17 H 66.246 20.525 v 63.53 63.52 L 10.362,286.84 C 4.7723,292.43 0.15419,297 0.09948,297 0.02035,297 0,279.82 0,213.05 Z m 30.082,73.83 c -0.14,-0.14 -0.14,-127.56 0,-127.7 0.14,-0.14 91.958,-0.14 92.088,0 0.14,0.14 0.14,90.52 0,90.65 -0.1,0.1 -2.21,0.1 -9.14,0.1 h -9.04 v 9.17 c 0,7.02 0,9.19 -0.1,9.26 -0.1,0.1 -2.27,0.1 -9.379,0.1 h -9.284 v 9.17 c 0,7.02 -0.02,9.19 -0.1,9.26 -0.137,0.14 -54.909,0.14 -55.049,0 z"
         style="fill:#b3c1c9;stroke-width:0.08018" />
      <path
         id="path848"
         d="m 0,213.05 v -83.96 h 66.145 c 52.855,0 66.145,0 66.145,0.1 0,0.1 -4.57,4.67 -10.17,10.26 l -10.15,10.17 H 66.244 20.525 v 63.52 63.53 L 10.363,286.83 C 4.7734,292.43 0.15534,297 0.10022,297 0.02011,297 0,280.15 0,213.05 Z m 30.112,73.8 c -0.114,-0.11 -0.126,-6.02 -0.126,-63.82 0,-57.8 0.01,-63.71 0.126,-63.82 0.114,-0.12 4.404,-0.13 46.015,-0.13 41.613,0 45.903,0 46.013,0.13 0.12,0.11 0.13,4.34 0.13,45.3 0,40.95 0,45.18 -0.13,45.29 -0.11,0.11 -1.05,0.13 -9.14,0.13 h -9.01 v 9.13 c 0,8.21 0,9.15 -0.13,9.27 -0.11,0.11 -1.07,0.12 -9.381,0.12 h -9.252 v 9.14 c 0,8.2 -0.02,9.15 -0.128,9.26 -0.113,0.12 -2.718,0.13 -27.493,0.13 -24.773,0 -27.381,0 -27.494,-0.13 z"
         style="fill:#aabac3;stroke-width:0.08018" />
      <path
         id="path846"
         d="m 0,213.05 v -83.96 h 66.145 c 52.595,0 66.145,0 66.145,0.1 0,0.1 -4.55,4.65 -10.12,10.22 l -10.12,10.13 H 66.342 c -35.441,0 -45.726,0 -45.801,0.1 -0.07,0.1 -0.1,14.32 -0.1,63.62 v 63.5 L 10.322,286.88 C 4.7543,292.45 0.15419,297 0.09947,297 0.02036,297 0,279.82 0,213.05 Z m 30.066,9.98 v -63.87 h 46.061 46.063 v 45.35 45.34 h -9.05 c -6.92,0 -9.06,0 -9.14,0.1 -0.1,0.1 -0.1,2.23 -0.1,9.26 v 9.16 h -9.287 c -7.111,0 -9.308,0 -9.38,0.1 -0.07,0.1 -0.1,2.24 -0.1,9.26 v 9.17 H 57.606 30.066 Z"
         style="fill:#a2b3be;stroke-width:0.08018" />
      <path
         id="path844"
         d="m 0,213.05 v -83.96 h 66.145 c 40.115,0 66.145,0 66.145,0.1 0,0 -4.57,4.64 -10.15,10.23 l -10.15,10.15 H 66.315 c -35.42,0 -45.699,0 -45.774,0.1 -0.07,0.1 -0.1,14.31 -0.1,63.58 V 276.7 L 10.296,286.85 C 4.7142,292.43 0.1141,297 0.07361,297 0.02896,297 0,263.97 0,213.05 Z m 30.066,9.98 v -63.87 h 46.061 46.063 v 45.35 45.34 h -9.05 c -6.92,0 -9.06,0 -9.14,0.1 -0.1,0.1 -0.1,2.23 -0.1,9.26 v 9.16 h -9.287 c -7.111,0 -9.308,0 -9.38,0.1 -0.07,0.1 -0.1,2.24 -0.1,9.26 v 9.17 H 57.606 30.066 Z"
         style="fill:#96a9b5;stroke-width:0.08018" />
      <path
         id="path842"
         d="m 0,213.05 v -83.96 h 66.145 c 36.375,0 66.145,0 66.145,0.1 0,0 -4.56,4.63 -10.14,10.2 l -10.14,10.15 H 66.244 20.485 l -0.04,63.56 -0.04,63.57 -10.142,10.15 C 4.6854,292.44 0.09437,297 0.06088,297 0.0274,297 0,259.22 0,213.05 Z m 30.103,73.75 c -0.02,-0.1 -0.03,-28.79 -0.02,-63.85 l 0.02,-63.75 h 46.021 46.026 v 45.31 45.3 h -9.1 -9.1 v 9.22 9.22 h -9.346 -9.34 l -0.04,9.23 -0.04,9.22 H 57.701 c -21.944,0 -27.491,0 -27.521,-0.1 z"
         style="fill:#728d9c;stroke-width:0.08018" />
      <path
         id="path840"
         d="m 0,213.05 v -83.96 h 66.145 c 58.745,0 66.145,0 66.145,0.12 0,0.1 0,0.12 -0.1,0.12 0,0 -4.62,4.55 -10.18,10.1 l -10.1,10.11 H 66.192 20.445 v 63.55 63.56 l -10.102,10.1 c -5.5565,5.56 -10.10247,10.14 -10.10247,10.18 0,0 -0.0541,0.1 -0.12027,0.1 C 0.01344,297 0,287.62 0,213.05 Z m 30.162,73.75 c -0.14,-0.14 -0.14,-127.4 0,-127.54 0.14,-0.14 91.798,-0.14 91.928,0 0.14,0.14 0.14,90.36 0,90.49 -0.1,0.1 -2.21,0.1 -9.14,0.1 h -9.04 v 9.17 c 0,7.02 0,9.19 -0.1,9.26 -0.1,0.1 -2.27,0.1 -9.379,0.1 h -9.284 v 9.17 c 0,7.02 -0.02,9.19 -0.1,9.26 -0.136,0.14 -54.748,0.14 -54.888,0 z"
         style="fill:#668393;stroke-width:0.08018" />
      <path
         id="path838"
         d="m 0,213.05 v -83.96 h 66.145 c 58.745,0 66.145,0 66.145,0.12 0,0.1 0,0.12 -0.1,0.12 -0.1,0 -4.65,4.55 -10.2,10.1 l -10.1,10.11 H 66.165 20.445 v 63.53 63.52 L 10.343,286.7 c -5.5565,5.55 -10.10247,10.15 -10.10247,10.2 0,0.1 -0.0541,0.1 -0.12027,0.1 C 0.01344,297 0,287.62 0,213.05 Z m 30.162,73.75 c -0.14,-0.14 -0.14,-127.4 0,-127.54 0.14,-0.14 91.798,-0.14 91.928,0 0.14,0.14 0.14,90.36 0,90.49 -0.1,0.1 -2.21,0.1 -9.14,0.1 h -9.04 v 9.17 c 0,7.02 0,9.19 -0.1,9.26 -0.1,0.1 -2.27,0.1 -9.379,0.1 h -9.284 v 9.17 c 0,7.02 -0.02,9.19 -0.1,9.26 -0.136,0.14 -54.748,0.14 -54.888,0 z"
         style="fill:#5d7b8d;stroke-width:0.08018" />
      <path
         id="path836"
         d="m 0,213.05 v -83.96 h 66.145 c 58.745,0 66.145,0 66.145,0.12 0,0.1 0,0.12 -0.1,0.12 -0.1,0 -4.63,4.53 -10.16,10.06 l -10.06,10.07 H 66.261 c -35.441,0 -45.726,0 -45.8,0.1 -0.07,0.1 -0.1,14.32 -0.1,63.62 v 63.5 l -10.062,10.07 c -5.5345,5.53 -10.06247,10.11 -10.06247,10.16 0,0.1 -0.0541,0.1 -0.12027,0.1 C 0.01344,297 0,287.62 0,213.05 Z m 30.146,9.98 v -63.79 h 45.981 45.983 v 45.27 45.26 h -9.05 c -6.92,0 -9.06,0 -9.14,0.1 -0.1,0.1 -0.1,2.23 -0.1,9.26 v 9.16 h -9.287 c -7.111,0 -9.308,0 -9.38,0.1 -0.07,0.1 -0.1,2.24 -0.1,9.26 v 9.17 h -27.46 -27.46 z"
         style="fill:#416579;stroke-width:0.08018" />
      <path
         id="path834"
         d="m 0,213.05 v -83.96 h 66.145 c 60.705,0 66.145,0 66.145,0.13 0,0.1 0,0.11 -0.1,0.1 -0.1,0 -4.01,3.86 -10.21,10.05 l -10.09,10.1 H 66.145 20.405 l -0.02,63.55 -0.02,63.54 -10.095,10.1 c -6.1938,6.2 -10.07899,10.13 -10.05364,10.21 0.024,0.1 -0.0126,0.1 -0.0875,0.1 C 0.01059,297 0,290.1 0,213.05 Z m 30.183,73.67 c -0.02,-0.1 -0.03,-28.75 -0.02,-63.77 l 0.02,-63.67 h 45.941 45.946 v 45.23 45.22 h -9.1 -9.1 v 9.22 9.22 h -9.346 -9.34 l -0.04,9.22 -0.04,9.23 H 57.702 c -21.88,0 -27.411,0 -27.441,-0.1 z"
         style="fill:#244d65;stroke-width:0.08018" />
      <path
         id="path832"
         d="m 0,213.05 v -83.96 h 66.145 c 60.705,0 66.145,0 66.145,0.13 0,0.1 0,0.11 -0.12,0.1 -0.1,0 -3.4,3.25 -10.17,10.02 L 111.94,149.4 H 66.238 c -41.44,0 -45.713,0 -45.828,0.12 -0.114,0.12 -0.126,6.01 -0.126,63.64 v 63.51 L 10.226,286.7 c -6.7695,6.78 -10.0437,10.1 -10.01337,10.18 0.028,0.1 -0.004,0.12 -0.0838,0.12 C 0.01059,297 0,290.1 0,213.05 Z m 30.226,9.98 v -63.71 h 45.901 45.903 v 45.19 45.18 h -9.01 c -8.09,0 -9.03,0 -9.14,0.13 -0.12,0.11 -0.13,1.06 -0.13,9.26 v 9.13 h -9.255 c -8.306,0 -9.268,0 -9.38,0.13 -0.113,0.11 -0.129,1.06 -0.129,9.26 v 9.14 h -27.38 -27.38 z"
         style="fill:#1a455e;stroke-width:0.08018" />
      <path
         id="path830"
         d="m 0,213.05 v -83.96 h 66.145 c 60.005,0 66.145,0 66.145,0.13 0,0.1 0,0.11 -0.14,0.1 -0.11,0 -2.6,2.41 -10.2,10.01 L 111.89,149.4 H 66.181 c -35.441,0 -45.726,0 -45.8,0.1 -0.07,0.1 -0.1,14.32 -0.1,63.62 v 63.5 L 10.22,286.69 c -7.6022,7.6 -10.0503,10.09 -10.01646,10.2 0.0298,0.1 0.003,0.14 -0.0809,0.14 C 0.01164,297 0,289.22 0,213.05 Z m 30.226,9.98 v -63.71 h 45.901 45.903 v 45.19 45.18 h -9.05 c -6.92,0 -9.06,0 -9.14,0.1 -0.1,0.1 -0.1,2.23 -0.1,9.26 v 9.16 h -9.287 c -7.112,0 -9.308,0 -9.38,0.1 -0.07,0.1 -0.1,2.24 -0.1,9.26 v 9.17 h -27.38 -27.38 z"
         style="fill:#133f59;stroke-width:0.08018" />
      <path
         id="path828"
         d="m 0,213.05 v -83.96 h 66.145 c 60.005,0 66.145,0 66.145,0.13 0,0.1 0,0.11 -0.16,0.1 -0.14,0 -1.89,1.68 -10.23,10.02 l -10.07,10.07 H 66.078 20.325 l -0.02,63.56 -0.02,63.56 -10.067,10.07 C 1.8825,294.95 0.15771,296.7 0.20011,296.84 0.23657,296.95 0.21512,297 0.12567,297 0.01164,297 0,289.22 0,213.05 Z m 30.226,9.98 v -63.71 h 45.901 45.903 v 45.19 45.18 h -9.13 -9.11 v 9.24 9.24 h -9.367 -9.357 l -0.02,9.24 -0.02,9.25 h -27.38 -27.38 z"
         style="fill:#0a3853;stroke-width:0.08018" />
    </g>
  </g>
</svg>
