<svg version="1.1" viewBox="0 0 720 480" xmlns="http://www.w3.org/2000/svg"><circle cx="652" cy="276" r="13" fill="#faa"/><path d="m68 352s26-39 70-5c43 34 70-6 70-6s26-39 70-5c43 34 70-6 70-6s26-39 70-5c43 34 70-6 70-6s26-39 70-5c43 34 70-6 70-6" style="fill:none;stroke:#eee;stroke-linecap:round;stroke-width:25"/><circle cx="360" cy="240" r="65" fill="none" stroke="#ccc" stroke-width="38"/><path d="M114 116q-11 1-12 12v136q1 11 12 12h56v36q1 11 12 12h16q11-1 12-12v-36h23q12-1 13-12v-16q-1-11-13-12h-23v-60q-1-11-12-12h-16q-11 1-12 12v60h-28V128q-1-11-12-12z" fill="#fff"/><path d="M486 116q-11 1-12 12v136q1 11 12 12h56v36q1 11 12 12h16q11-1 12-12v-36h23q12-1 13-12v-16q-1-11-13-12h-23v-60q-1-11-12-12h-16q-11 1-12 12v60h-28V128q-1-11-12-12z" fill="#aaa"/></svg>