<svg viewBox="0 0 720 480" xmlns="http://www.w3.org/2000/svg"><g transform="translate(1312 -765)"><path fill="#ddd" d="M-1312 765h720v480h-720z" paint-order="fill markers stroke"/><circle cx="-657" cy="1046" r="13" fill="#faa" paint-order="fill markers stroke"/><g fill-opacity="0" stroke="#ececec" stroke-dashoffset="3" stroke-linecap="round" stroke-linejoin="round" stroke-miterlimit="58" stroke-width="25" fill="none" paint-order="stroke fill markers"><path d="M-1241 1122s26-39 70-5c43 34 70-6 70-6m0 0s26-39 70-5c43 34 70-6 70-6"/><path d="M-962 1100s26-39 70-5c43 34 70-6 70-6m0 1s26-39 70-5c43 34 70-6 70-6"/></g><g stroke-dashoffset="3" stroke-linecap="round" stroke-linejoin="round" stroke-miterlimit="58" paint-order="stroke fill markers"><circle cx="-949" cy="1010" r="65" fill="none" stroke="#ccc" stroke-width="38"/><path d="M-1195 886c-7 0-12 5-12 12v136c0 7 5 12 12 12h56v36c0 7 5 12 12 12h16c7 0 12-5 12-12v-36h23c7 0 13-5 13-12v-16c0-7-6-12-13-12h-23v-60c0-7-5-12-12-12h-16c-7 0-12 5-12 12v60h-28V898c0-7-5-12-12-12z" fill="#fff"/><path d="M-823 886c-7 0-12 5-12 12v136c0 7 5 12 12 12h56v36c0 7 5 12 12 12h16c7 0 12-5 12-12v-36h23c7 0 13-5 13-12v-16c0-7-6-12-13-12h-23v-60c0-7-5-12-12-12h-16c-7 0-12 5-12 12v60h-28V898c0-7-5-12-12-12z" fill="#b3b3b3"/></g></g></svg>