<svg width="521" height="64" viewBox="0 0 521 64" xmlns="http://www.w3.org/2000/svg"><g transform="translate(-58.7 -192)"><path d="M58.7 192h521v64h-521z" fill="#ccc"/><rect transform="rotate(34)" x="181" y="113" width="16.7" height="40" rx="6.6" ry="6.6" fill="#aaa"/><g paint-order="fill markers stroke"><rect transform="rotate(109)" x="101" y="-332" width="16.7" height="40" rx="6.6" ry="6.6" fill="#e5e5e5"/><rect transform="rotate(65.4)" x="389" y="-317" width="16.7" height="40" rx="6.6" ry="6.6" fill="#a9a9a9"/><circle cx="106" cy="236" r="12.8" fill="#999"/><circle cx="307" cy="207" r="12.8" fill="#b3b3b3"/><circle cx="511" cy="205" r="13" fill="#d4d4d4"/></g><g fill="none" stroke-linecap="round" stroke-width="8"><circle cx="135" cy="211" r="14" stroke="#e5e5e5"/><circle transform="scale(-1)" cx="-562" cy="-210" r="14" stroke="#d1d1d1"/><circle cx="378" cy="230" r="14" stroke="#afafaf"/><rect transform="matrix(-.625 -.781 -.771 .637 0 0)" x="-497" y="-242" width="52" height="16.9" rx="8.4" ry="8.4" stroke="#c6c6c6"/></g><rect transform="scale(1 -1) rotate(71.5)" x="-66" y="-587" width="23" height="23" rx="5" ry="5" fill="#c3c3c3"/><g stroke-linejoin="round"><path d="m425 220-21.6-6.3 15.7-15.6z" fill="#c3c3c3" stroke="#c3c3c3" stroke-width="11"/><path d="m287 227-5 19.1m-7-12.1 19 5" fill="#d9d9d9" stroke="#a6a6a6" stroke-linecap="round" stroke-width="10"/><rect transform="rotate(-34)" x="-2.5" y="276" width="67" height="22" rx="11" ry="11" fill="none" stroke="#a6a6a6" stroke-linecap="round" stroke-width="10"/><path d="m246 239-22.3 3 8-20.6z" fill="#d9d9d9" stroke="#d9d9d9" stroke-width="11"/><path d="M361 204s-18.1-5.9-23.5 15.8c-5.4 21.7-23.5 15.8-23.5 15.8" fill="none" stroke="#d9d9d9" stroke-linecap="round" stroke-width="10"/></g></g></svg>
