<svg width="553" viewBox="0 0 553 64" xmlns="http://www.w3.org/2000/svg"><defs><linearGradient id="a" x1="258" x2="545" y1="1931" y2="1931" gradientTransform="matrix(.912 0 0 1 -1382 -612)" gradientUnits="userSpaceOnUse"><stop stop-color="#ccc" stop-opacity="0" offset="0"/><stop stop-color="#ccc" offset="1"/></linearGradient></defs><g transform="translate(1423 -1289)"><path fill="#ccc" d="M-1423 1289h553v64h-553z" paint-order="fill markers stroke"/><rect transform="rotate(34)" x="-434" y="1851" width="16.7" height="40.2" rx="6.59" ry="6.59" fill="#b3b3b3" paint-order="fill markers stroke"/><g stroke-dashoffset="3" stroke-linecap="square" stroke-miterlimit="58" paint-order="fill markers stroke"><rect transform="rotate(108.96)" x="1620" y="713" width="16.7" height="40.2" rx="6.59" ry="6.59" fill="#e5e5e5"/><rect transform="rotate(65.35)" x="768" y="1487" width="16.7" height="40.2" rx="6.59" ry="6.59" fill="#8c8c8c"/><circle cx="-1376" cy="1333" r="12.8" fill="#999"/><circle cx="-1175" cy="1304" r="12.8" fill="#b3b3b3"/><circle cx="-971" cy="1302" r="12.8" fill="#e5e5e5"/></g><g fill="none" stroke-dashoffset="3" stroke-linecap="round" stroke-linejoin="round" stroke-miterlimit="58" stroke-width="8" paint-order="stroke fill markers"><circle cx="-1347" cy="1308" r="13.9" stroke="#e5e5e5"/><circle transform="scale(-1)" cx="920" cy="-1307" r="13.9" stroke="#e5e5e5"/><circle cx="-1104" cy="1327" r="13.9" stroke="#a6a6a6"/><rect transform="matrix(-.625 -.781 -.771 .637 0 0)" x="-399" y="1600" width="52" height="16.9" rx="8.4" ry="8.4" stroke="#bfbfbf"/></g><rect transform="scale(1 -1) rotate(71.53)" x="-1576" y="471" width="23" height="23" rx="5" ry="5" fill="#a6a6a6" paint-order="stroke fill markers"/><path d="m-1057 1317-21.6-6.32 15.7-15.6z" fill="#bfbfbf" stroke="#bfbfbf" stroke-linejoin="round" stroke-width="11"/><path d="m-1195 1324-5 19.1m-7.05-12.1 19.1 5" fill="#d9d9d9" stroke="#a6a6a6" stroke-dashoffset="3" stroke-linecap="round" stroke-linejoin="round" stroke-miterlimit="58" stroke-width="9.87" paint-order="stroke fill markers"/><path fill="url(#a)" d="M-1146 1289h262v60h-262z" paint-order="stroke fill markers"/><g stroke-linejoin="round"><rect transform="rotate(-33.8)" x="-1844" y="363" width="67" height="22" rx="11" ry="11" fill="none" stroke="#a6a6a6" stroke-dashoffset="3" stroke-linecap="round" stroke-miterlimit="58" stroke-width="10" paint-order="stroke fill markers"/><path d="m-1236 1336-22.3 3.05 7.97-20.7z" fill="#d9d9d9" stroke="#d9d9d9" stroke-width="11"/><path d="M-1121 1301s-18.1-5.9-23.5 15.8c-5.37 21.7-23.5 15.8-23.5 15.8" stroke="#d9d9d9" stroke-dashoffset="3" stroke-linecap="round" stroke-miterlimit="58" stroke-width="10.1" fill="none" paint-order="stroke fill markers"/></g></g></svg>
