<svg viewBox="0 0 320 125" xmlns="http://www.w3.org/2000/svg">
 <rect width="320" height="125" fill="#c8ccc2"/>
 <rect transform="rotate(-15)" x="-21" y="46" width="245" height="67" rx="15" ry="15" fill="none" stroke="#ebf0e4" stroke-width="3"/>
 <path d="m280.2 127.2c-14.11-5.142-28.22-10.28-25.38-17.46s22.62-16.39 37.63-17.41c15.01-1.019 25.25 6.157 35.49 13.33" fill="none" stroke="#ebf0e4" stroke-width="4"/>
 <g stroke-linecap="round" stroke-linejoin="round">
  <rect transform="rotate(-45)" x="136" y="153" width="30" height="90" rx="15" ry="15" fill="#3d3d3d"/>
  <rect transform="rotate(45)" x="213" y="-226" width="30" height="90" rx="15" ry="15" fill="#3d3d3d"/>
  <circle transform="rotate(71)" cx="124" cy="-165" r="25" fill="none" stroke="#ebf0e4" stroke-width="10"/>
  <circle transform="rotate(72)" cx="140" cy="-150" r="25" fill="none" stroke="#3d3d3d" stroke-width="15"/>
 </g>
 <g>
  <rect transform="rotate(-15)" x="80" y="41" width="50" height="50" rx="10" ry="10" fill="#ebf0e4"/>
  <rect transform="rotate(-15)" x="67.66" y="35.16" width="50" height="50" rx="10" ry="10" fill="#3d3d3d"/>
  <path transform="matrix(1.608 -1.134 1.134 1.608 -292 -32.68)" d="m115.7 156.5-16.86-2.513 10.61-13.34z" fill="#ebf0e4" stroke="#ebf0e4" stroke-linejoin="round" stroke-width="7"/>
  <path transform="matrix(1.968 0 0 1.968 -167.9 -216.8)" d="m115.7 156.5-16.86-2.513 10.61-13.34z" fill="#3d3d3d" stroke="#3d3d3d" stroke-linejoin="round" stroke-width="7"/>
  <rect x="16" y="-7" width="15" height="60" fill="#3d3d3d"/>
 </g>
</svg>
