<svg viewBox="0 0 320 125" xmlns="http://www.w3.org/2000/svg"><path fill="#ccccc2" d="M0 0h320v125H0z"/><path d="M57 101c3 2 7 4 11 2 4-3 8-10 13-11 6-2 13 2 19 1 5-2 9-8 15-10 5-1 13 3 18 1 6-1 10-8 15-10 6-1 13 3 19 1 5-1 9-8 13-10 4-3 8-1 11 1" fill="none" stroke="#f0f0e7" stroke-linecap="round" stroke-width="7"/><rect transform="rotate(45)" x="64" y="14" width="28" height="80" rx="14" ry="14" fill="#f0f0e7"/><rect transform="rotate(-30)" x="-19" y="12" width="30" height="80" rx="15" ry="15" fill="#292929" stroke="#292929" stroke-linecap="round" stroke-width="7"/><rect transform="rotate(-30)" x="-8" y="-2" width="5" height="80" rx="3" ry="3" stroke="#f0f0e7" stroke-linecap="round" stroke-width="7"/><g fill="none"><circle cx="108" cy="42" r="15" stroke="#f0f0e7" stroke-width="10"/><circle cx="89" cy="35" r="21" stroke="#292929" stroke-width="12"/><rect transform="rotate(25)" x="153" y="-60" width="76" height="50" rx="10" ry="10" stroke="#f0f0e7" stroke-width="2"/><rect transform="rotate(19)" x="172" y="-21" width="50" height="50" rx="10" ry="10" stroke="#292929" stroke-dasharray="6, 6" stroke-width="3"/></g><g fill="none" stroke="#f0f0e7" stroke-width="12" stroke-linecap="round"><path d="M268 18c15 6 27 20 31 36s0 34-11 47"/><path d="M299 54a38 38 0 0 1-43 11l-9-6"/></g><path fill="#292929" d="M225 90h95v20h-95z"/></svg>
