<svg viewBox="0 0 320 125" xmlns="http://www.w3.org/2000/svg"><path fill="#ccccc2" d="M0 0h320v125H0z"/><circle cx="281" cy="26" r="11" fill="none" stroke="#f0f0e4" stroke-width="7"/><circle cx="34" cy="84" r="25" fill="#303030"/><rect transform="rotate(15)" x="40" y="9" width="104" height="68" rx="15" ry="15" fill="none" stroke="#f0f0e4" stroke-width="2"/><g fill="#303030"><rect transform="rotate(-30)" x="53" y="16" width="30" height="90" rx="15" ry="15"/><rect transform="rotate(45)" x="91" y="-118" width="30" height="90" rx="15" ry="15"/><rect transform="rotate(-45)" x="69" y="91" width="50" height="90" rx="25" ry="25"/></g><g fill="none"><path d="M205 105c3 4 6 7 9 6 2 0 3-5 5-5l8 2c2 0 3-5 6-6 2-1 5 3 7 2 3-1 4-5 6-6 2 0 6 3 8 2 2 0 3-5 6-5l7 2c3-1 4-5 6-6 2 0 5 3 8 2s3-5 5-5c3-1 6 2 8 2s4-5 5-10" stroke="#f0f0e4" stroke-width="7"/><path d="m255 57 27 27m-24-54a52 52 0 0 1-44 59" stroke="#303030" stroke-linecap="round" stroke-width="15"/><circle cx="289" cy="22" r="11" stroke="#303030" stroke-width="7"/></g></svg>