<svg viewBox="0 0 320 125" xmlns="http://www.w3.org/2000/svg">
<rect width="320" height="125" fill="#ccccc2"/>
<circle cx="281" cy="26" r="11" fill="none" stroke="#f0f0e4" stroke-width="7"/>
<circle cx="34" cy="84" r="25" fill="#303030" stroke-width="2"/>
<rect transform="rotate(15)" x="40" y="9" width="104" height="68" rx="15" ry="15" fill="none" stroke="#f0f0e4" stroke-width="2"/>
<g fill="#303030">
<rect transform="rotate(-30)" x="53" y="16" width="30" height="90" rx="15" ry="15" stroke-width="2"/>
<rect transform="rotate(45)" x="91" y="-118" width="30" height="90" rx="15" ry="15" stroke-width="2"/>
<rect transform="rotate(-45)" x="69" y="91" width="50" height="90" rx="25" ry="25" stroke-width="3"/>
</g>
<g fill="none">
<path d="m204.7 105.3c3.281 3.281 6.561 6.561 8.801 5.961 2.24-0.6007 3.441-5.081 5.682-5.681s5.521 2.68 7.761 2.079 3.441-5.081 5.682-5.681c2.241-0.6 5.521 2.68 7.761 2.079 2.24-0.6007 3.441-5.081 5.682-5.681 2.241-0.6 5.521 2.68 7.761 2.079 2.24-0.6007 3.441-5.081 5.682-5.681s5.521 2.68 7.761 2.079c2.24-0.6007 3.441-5.081 5.681-5.681 2.241-0.6 5.521 2.68 7.761 2.079s3.441-5.081 5.682-5.681c2.241-0.6 5.521 2.68 7.761 2.079s3.441-5.081 4.641-9.563" stroke="#f0f0e4" stroke-width="7"/>
<path d="m255.2 57.25 27.14 27.14m-24.39-54.66c1.608 9.195 0.6435 18.83-2.756 27.52-3.399 8.693-9.223 16.42-16.64 22.09-7.167 5.474-15.8 9.009-24.75 10.13" stroke="#303030" stroke-linecap="round" stroke-width="15"/>
<circle cx="289" cy="22" r="11" stroke="#303030" stroke-width="7"/>
</g>
</svg>
