<?xml version="1.0" encoding="UTF-8"?>
<svg version="1.1" viewBox="0 0 320 125" xmlns="http://www.w3.org/2000/svg">
 <g stroke-linecap="round" stroke-linejoin="round">
  <rect x="-89.18" y="-182.6" width="169.2" height="92.07" fill="#3d3d3d" fill-rule="evenodd" stroke-width="1.999" style="paint-order:markers fill stroke"/>
  <g fill-rule="evenodd" stroke-width="1.999">
   <rect x="80.03" y="-182.6" width="165.6" height="92.07" fill="#c8ccc2" style="paint-order:markers fill stroke"/>
   <rect x="245.7" y="-182.6" width="165.6" height="92.07" fill="#ebf0e4" style="paint-order:markers fill stroke"/>
   <rect width="320" height="125" fill="#c8ccc2" style="paint-order:markers fill stroke"/>
  </g>
  <rect transform="rotate(-8.826)" x="16.64" y="7.533" width="60" height="90" rx="30" ry="30" fill="none" stroke="#ebf0e4" stroke-width="2.828" style="paint-order:markers fill stroke"/>
  <rect transform="rotate(-8.826)" x="6.759" y="-19.98" width="45" height="90" rx="22.5" ry="22.5" fill="#3d3d3d" fill-rule="evenodd" stroke-width="2.449" style="paint-order:markers fill stroke"/>
 </g>
 <rect x="259.6" y="20" width="25" height="105" fill="#ebf0e4" fill-rule="evenodd" style="paint-order:markers fill stroke"/>
 <g fill="none">
  <rect transform="matrix(1 0 -.3256 .9455 0 0)" x="233.4" y="-9.269" width="85.7" height="67.66" rx="22.5" ry="20.73" stroke="#3d3d3d" stroke-linecap="round" stroke-linejoin="round" stroke-width="15.43" style="paint-order:markers fill stroke"/>
  <path d="m5.016 131.5 18.97-27.4 26.64 18.45 16.94-24.47 21.5 14.88 15.51-22.4 23.87 16.53" stroke="#ebf0e4" stroke-linecap="round" stroke-linejoin="round" stroke-width="8"/>
  <path d="m162.6 59.15 29.19 43.22-20.5 11.83" stroke="#ebf0e4" stroke-linecap="square" stroke-width="18"/>
  <path d="m168.3 57.31 23.46 32.89-20.5 11.83" stroke="#3d3d3d" stroke-linecap="square" stroke-width="18"/>
  <circle cx="158" cy="30" r="25" stroke="#ebf0e4" stroke-linecap="round" stroke-linejoin="round" stroke-width="15" style="paint-order:markers fill stroke"/>
  <circle cx="146.4" cy="40" r="25" stroke="#3d3d3d" stroke-linecap="round" stroke-linejoin="round" stroke-width="20" style="paint-order:markers fill stroke"/>
 </g>
</svg>
