<svg viewBox="0 0 320 125" xmlns="http://www.w3.org/2000/svg"><path fill="#ccccc2" d="M0 0h320v125H0z"/><rect transform="rotate(-9)" x="17" y="8" width="60" height="90" rx="30" ry="30" fill="none" stroke="#f0f0e7" stroke-width="3"/><rect transform="rotate(-9)" x="8" y="-20" width="45" height="90" rx="23" ry="23" fill="#292929"/><path fill="#f0f0e7" d="M260 20h25v105h-25z"/><g fill="none"><rect transform="skewX(-19) scale(1 .9455)" x="233" y="-9" width="86" height="68" rx="23" ry="21" stroke="#292929" stroke-width="15"/><path d="m5 132 19-28 27 19 17-25 21 15 16-22 23 16" stroke="#f0f0e7" stroke-linecap="round" stroke-width="8"/><path d="m163 59 29 43-21 12" stroke="#f0f0e7" stroke-width="18"/><path d="m168 57 24 33-21 12" stroke="#292929" stroke-width="18"/><circle cx="158" cy="30" r="25" stroke="#f0f0e7" stroke-width="15"/><circle cx="146" cy="40" r="25" stroke="#292929" stroke-width="20"/></g></svg>
