<svg viewBox="0 0 320 125" xmlns="http://www.w3.org/2000/svg">
 <rect width="320" height="125" fill="#c8ccc2"/>
 <rect transform="rotate(-9)" x="17" y="8" width="60" height="90" rx="30" ry="30" fill="none" stroke="#ebf0e4" stroke-width="3"/>
 <rect transform="rotate(-9)" x="8" y="-20" width="45" height="90" rx="22.5" ry="22.5" fill="#3d3d3d"/>
 <rect x="260" y="20" width="25" height="105" fill="#ebf0e4"/>
 <g fill="none">
  <rect transform="matrix(1 0 -.3256 .9455 0 0)" x="233" y="-9" width="86" height="68" rx="22.5" ry="20.5" stroke="#3d3d3d" stroke-width="15"/>
  <path d="m5.016 131.5 18.97-27.4 26.64 18.45 16.94-24.47 21.5 14.88 15.51-22.4 23.87 16.53" stroke="#ebf0e4" stroke-linecap="round" stroke-width="8"/>
  <path d="m162.6 59.15 29.19 43.22-20.5 11.83" stroke="#ebf0e4" stroke-width="18"/>
  <path d="m168.3 57.31 23.46 32.89-20.5 11.83" stroke="#3d3d3d" stroke-width="18"/>
  <circle cx="158" cy="30" r="25" stroke="#ebf0e4" stroke-width="15"/>
  <circle cx="146.4" cy="40" r="25" stroke="#3d3d3d" stroke-width="20"/>
 </g>
</svg>
