<svg xmlns="http://www.w3.org/2000/svg" baseProfile="full" version="1.1" style="fill: none;" viewBox="0 0 200 200" height="35" width="38"><path style="stroke-width: 10px; stroke: var(--text); fill: var(--text);" d="M30,45 A15,15 0 0,1 15,30 A15,15 0 0,1 30,15 A150,150 0 0,1 180,165 A15,15 0 0,1 165,180 A15,15 0 0,1 150,165 A120,120 0 0,0 30,45 M30,105 A15,15 0 0,1 15,90 A15,15 0 0,1 30,75 A90,90 0 0,1 120,165 A15,15 0 0,1 105,180 A15,15 0 0,1 90,165 A60,60 0 0,0 30,105 M30,135 A30,30 0 0,1 60,165 A30,15 0 0,1 30,180 A15,15 0 0,1 15,165 A15,30 0 0,1 30,135 "></path></svg>
