<svg version="1.1" viewBox="0 0 462 23.3" xmlns="http://www.w3.org/2000/svg">
<g transform="translate(0 -9.7)">
<path transform="translate(0,4)" d="m9.73 9.73 13.5 13.5a13.8 13.8 0 0 0 19.5 0l13.5-13.5a13.8 13.8 0 0 1 19.5 0l13.5 13.5a13.8 13.8 0 0 0 19.5 0l13.5-13.5a13.8 13.8 0 0 1 19.5 0l13.5 13.5a13.8 13.8 0 0 0 19.5 0l13.5-13.5a13.8 13.8 0 0 1 19.5 0l13.5 13.5a13.8 13.8 0 0 0 19.5 0l13.5-13.5a13.8 13.8 0 0 1 19.5 0l13.5 13.5a13.8 13.8 0 0 0 19.5 0l13.5-13.5a13.8 13.8 0 0 1 19.5 0l23.3 23.3h-396l23.3-23.3a13.8 13.8 0 0 1 19.5 0z" style="fill-rule:evenodd;fill:#d0d0d0;paint-order:markers fill stroke;stroke-linecap:round;stroke-linejoin:round;stroke-miterlimit:4.3;stroke-width:5"/>
<path transform="translate(330,4)" d="m9.73 9.73 13.5 13.5a13.8 13.8 0 0 0 19.5 0l13.5-13.5a13.8 13.8 0 0 1 19.5 0l13.5 13.5a13.8 13.8 0 0 0 19.5 0l13.5-13.5a13.8 13.8 0 0 1 19.5 0l13.5 13.5a13.8 13.8 0 0 0 19.5 0l13.5-13.5a13.8 13.8 0 0 1 19.5 0l13.5 13.5a13.8 13.8 0 0 0 19.5 0l13.5-13.5a13.8 13.8 0 0 1 19.5 0l13.5 13.5a13.8 13.8 0 0 0 19.5 0l13.5-13.5a13.8 13.8 0 0 1 19.5 0l23.3 23.3h-396l23.3-23.3a13.8 13.8 0 0 1 19.5 0z" style="fill-rule:evenodd;fill:#d0d0d0;paint-order:markers fill stroke;stroke-linecap:round;stroke-linejoin:round;stroke-miterlimit:4.3;stroke-width:5"/>
</g>
</svg>
