<svg version="1.1" viewBox="0 0 112 71" xmlns="http://www.w3.org/2000/svg">
 <g>
  <rect x="3.8e-6" width="112" height="71" fill="#aba78e"/>
  <path transform="scale(.26)" d="m97 30c-18 0-32 14-32 32v146c0 18 14 32 32 32h231c18 0 32-14 32-32v-146c0-18-14-32-32-32h-231zm154 42 19 0.43c-0.86 2.9-1.4 5.5-2 7.6-0.43 2.4-1 5-1.4 7.9 18-0.72 33-2.6 49-6.3l0.14 17c-14 2.6-33 4.3-51 5-0.43 4.3-0.86 8.8-1 13 6.9-1.6 14-2.6 21-2.6h2.6c0.58-2.9 1.2-6.5 1.3-8.6l18 4.2c-0.58 1.6-1.7 4.6-2.6 7.3 17 5.5 28 19 28 35 0 20-12 40-47 46l-9.5-15c28-3 39-17 39-31 0-8.6-5-16-15-20-7.8 20-19 35-30 44 1 3.6 2.2 7.2 3.3 11l-17 5c-0.58-1.9-1.3-3.9-1.9-5.9-7.1 3.5-15 5.8-22 5.8-11 0-19-6.3-19-21-1e-5 -19 15-38 35-47 0.29-6.2 0.72-12 1.3-18h-4.6c-7.5 0-19-0.58-25-0.86l-0.43-17c5 0.86 18 2 26 2h5.8c0.29-2.7 0.58-5.3 0.87-7.8 0.14-2.7 0.43-6.2 0.29-8.6zm-118 11h32l39 105h-27l-6.6-19h-42l-6.7 19h-27l39-105zm16 25-14 42h29l-14-42zm133 21c-7.6 0.14-14 1.4-20 3.2v0.43c0 8.8 0.58 17 1.7 24 6.8-7.1 13-16 18-28zm-36 11c-11 7.3-18 18-18 26 0 4.6 2 7.1 6.6 7.1 4 0 9.2-1.7 14-4.8-1.6-8.9-2.7-19-3-29z" fill="#972624"/>
 </g>
</svg>
