<svg version="1.1" viewBox="0 0 112 71" xmlns="http://www.w3.org/2000/svg">
 <g>
  <rect width="112" height="71" fill="#aba58e"/>
  <path d="m40 6c-2.2 0-4 1.8-4 4v52c0 2.2 1.8 4 4 4h32c2.2 0 4-1.8 4-4v-52c0-2.2-1.8-4-4-4zm3.6 4.6h25c1.5 0 2.6 1.2 2.6 2.6v17c0 1.5-1.2 2.6-2.6 2.6h-25c-1.5 0-2.6-1.2-2.6-2.6v-17c0-1.5 1.2-2.6 2.6-2.6zm1.9 9.2c-1.2 0-2.1 0.95-2.1 2.1s0.95 2.1 2.1 2.1c1.2 0 2.1-0.95 2.1-2.1s-0.95-2.1-2.1-2.1zm21 0c-1.2 0-2.1 0.95-2.1 2.1s0.95 2.1 2.1 2.1 2.1-0.95 2.1-2.1-0.95-2.1-2.1-2.1zm-6.7 2.1c-0.81 1.8-2.3 2.5-3.8 2.4-1.5-0.047-3-0.9-3.7-2.4-0.19-0.4-0.66-0.57-1.1-0.38-0.4 0.19-0.57 0.66-0.38 1.1 0.97 2.1 3 3.3 5.1 3.3 2.1 0.064 4.3-1 5.3-3.4 0.18-0.4 0.039-0.92-0.39-1.1-0.11-0.052-0.67-0.21-1.1 0.39zm-3.8 15c6.6 0 12 5.3 12 12s-5.3 12-12 12c-6.6 0-12-5.3-12-12s5.3-12 12-12zm0 7.5c-2.4 2.4e-4 -4.4 2-4.4 4.4-4e-5 2.4 2 4.4 4.4 4.4 2.4 4.5e-5 4.4-2 4.4-4.4 5e-5 -2.4-2-4.4-4.4-4.4z" fill="#212121"/>
 </g>
</svg>
