<svg viewBox="0 0 112 75" xmlns="http://www.w3.org/2000/svg"><path fill="#ccccc2" d="M0 0h112v75H0z"/><rect x="34" y="5.5" width="44" height="64" rx="6" ry="6" fill="#f0f0e7"/><circle cx="56" cy="50" r="13" fill="#ccccc2"/><path d="M39.9 7.5a4 4 0 0 0-4 4v52a4 4 0 0 0 4 4h32a4 4 0 0 0 4-4v-52a4 4 0 0 0-4-4zm3.6 4.6h25c1.5 0 2.6 1.2 2.6 2.6v17c0 1.5-1.2 2.6-2.6 2.6h-25a2.6 2.6 0 0 1-2.6-2.6v-17c0-1.5 1.2-2.6 2.6-2.6zm1.9 9.2c-1.2 0-2.1 1-2.1 2.1s1 2.1 2.1 2.1c1.2 0 2.1-1 2.1-2.1s-1-2.1-2.1-2.1zm21 0c-1.2 0-2.1 1-2.1 2.1s1 2.1 2.1 2.1 2.1-1 2.1-2.1-1-2.1-2.1-2.1zm-10.5 4.5c-1.5 0-3-.9-3.7-2.4-.2-.4-.7-.6-1.1-.4-.4.2-.6.7-.4 1.1 1 2.1 3 3.3 5.1 3.3 2.1 0 4.3-1 5.3-3.4.2-.4 0-.9-.4-1 0-.1-.6-.3-1 .3-.8 1.5-2.4 2.6-3.8 2.5zm0 12.6c6.6 0 12 5.3 12 12s-5.3 12-12 12c-6.6 0-12-5.3-12-12s5.3-12 12-12zm0 7.5c-2.4 0-4.4 2-4.4 4.4 0 2.4 2 4.4 4.4 4.4 2.4 0 4.4-2 4.4-4.4 0-2.4-2-4.4-4.4-4.4z" fill="#292929"/></svg>
