<svg version="1.1" viewBox="0 0 112 71" xmlns="http://www.w3.org/2000/svg">
 <g>
  <rect x="8.4e-6" y="-1.1e-6" width="112" height="71" fill="#aba78e"/>
  <path d="m13 6c-2.2 0-4 1.8-4 4v52c0 2.2 1.8 4 4 4h32c2.2 0 4-1.8 4-4v-52c0-2.2-1.8-4-4-4zm3.6 4.6h25c1.5 0 2.6 1.2 2.6 2.6v17c0 1.5-1.2 2.6-2.6 2.6h-25c-1.5 0-2.6-1.2-2.6-2.6v-17c0-1.5 1.2-2.6 2.6-2.6zm1.9 9.2c-1.2 0-2.1 0.95-2.1 2.1s0.95 2.1 2.1 2.1c1.2 0 2.1-0.95 2.1-2.1s-0.95-2.1-2.1-2.1zm21 0c-1.2 0-2.1 0.95-2.1 2.1s0.95 2.1 2.1 2.1 2.1-0.95 2.1-2.1-0.95-2.1-2.1-2.1zm-6.7 2.1c-0.81 1.8-2.3 2.5-3.8 2.4-1.5-0.047-3-0.9-3.7-2.4-0.19-0.4-0.66-0.57-1.1-0.38-0.4 0.19-0.57 0.66-0.38 1.1 0.97 2.1 3 3.3 5.1 3.3 2.1 0.064 4.3-1 5.3-3.4 0.18-0.4 0.039-0.92-0.39-1.1-0.11-0.052-0.67-0.21-1.1 0.39zm-3.8 15c6.6 0 12 5.3 12 12s-5.3 12-12 12c-6.6 0-12-5.3-12-12s5.3-12 12-12zm0 7.5c-2.4 2.4e-4 -4.4 2-4.4 4.4-4e-5 2.4 2 4.4 4.4 4.4 2.4 4.5e-5 4.4-2 4.4-4.4 5e-5 -2.4-2-4.4-4.4-4.4z" fill="#212121"/>
  <path transform="scale(.26)" d="m306 43c-23 0.19-46 8.3-62 25-19 16-29 41-29 66-0.36 36 21 74 55 87 23 11 51 10 74-0.82 32-15 57-48 55-84 0.074-33-19-67-49-82-14-7.1-29-11-45-11zm34 21s-4.4 13-3.8 20c0.65 6.8 9.3 12 7.6 19-1 4.3-5.9 7-10 8.7-6 2.5-13 3-20 1.2-5.2-1.5-10-5.1-13-9.7-2.8-4.6-4.7-11-2.9-16 2.3-6.5 9.6-10 16-14 8-4.7 26-9.4 26-9.4zm-40 52c3.5-0.038 5 7.1 8.7 8.2 4.7 1.5 12-5.5 15-1.4 17 25-39 82-39 82-3.2 2-7 3.7-9.5 1.6-3-1.6-3.4-4-3.4-6.2 0 0-1.1-76 27-84 0.25-0.07 0.49-0.1 0.72-0.11z" fill="#212121"/>
 </g>
</svg>
