<svg version="1.1" viewBox="0 0 112 71" xmlns="http://www.w3.org/2000/svg">
 <g>
  <rect x="8.4e-6" y="-1.1e-6" width="112" height="71" fill="#c8ccc2"/>
  <path d="m13 6c-2.2 0-4 1.8-4 4v52c0 2.2 1.8 4 4 4h32c2.2 0 4-1.8 4-4v-52c0-2.2-1.8-4-4-4zm3.6 4.6h25c1.5 0 2.6 1.2 2.6 2.6v17c0 1.5-1.2 2.6-2.6 2.6h-25c-1.5 0-2.6-1.2-2.6-2.6v-17c0-1.5 1.2-2.6 2.6-2.6zm1.9 9.2c-1.2 0-2.1 0.95-2.1 2.1s0.95 2.1 2.1 2.1c1.2 0 2.1-0.95 2.1-2.1s-0.95-2.1-2.1-2.1zm21 0c-1.2 0-2.1 0.95-2.1 2.1s0.95 2.1 2.1 2.1 2.1-0.95 2.1-2.1-0.95-2.1-2.1-2.1zm-6.7 2.1c-0.81 1.8-2.3 2.5-3.8 2.4-1.5-0.047-3-0.9-3.7-2.4-0.19-0.4-0.66-0.57-1.1-0.38-0.4 0.19-0.57 0.66-0.38 1.1 0.97 2.1 3 3.3 5.1 3.3 2.1 0.064 4.3-1 5.3-3.4 0.18-0.4 0.039-0.92-0.39-1.1-0.11-0.052-0.67-0.21-1.1 0.39zm-3.8 15c6.6 0 12 5.3 12 12s-5.3 12-12 12c-6.6 0-12-5.3-12-12s5.3-12 12-12zm0 7.5c-2.4 2.4e-4 -4.4 2-4.4 4.4-4e-5 2.4 2 4.4 4.4 4.4 2.4 4.5e-5 4.4-2 4.4-4.4 5e-5 -2.4-2-4.4-4.4-4.4z" fill="#303030"/>
  <path d="m79.56 11.18c-5.98 0.0494-11.96 2.158-16.12 6.5-4.94 4.16-7.54 10.66-7.54 17.16-0.0936 9.36 5.46 19.24 14.3 22.62 5.98 2.86 13.26 2.6 19.24-0.2132 8.32-3.9 14.82-12.48 14.3-21.84 0.0192-8.58-4.94-17.42-12.74-21.32-3.64-1.846-7.54-2.86-11.7-2.86zm8.84 5.46s-1.144 3.38-0.988 5.2c0.169 1.768 2.418 3.12 1.976 4.94-0.26 1.118-1.534 1.82-2.6 2.262-1.56 0.65-3.38 0.78-5.2 0.312-1.352-0.39-2.6-1.326-3.38-2.522-0.728-1.196-1.222-2.86-0.754-4.16 0.598-1.69 2.496-2.6 4.16-3.64 2.08-1.222 6.76-2.444 6.76-2.444zm-10.4 13.52c0.91-0.0099 1.3 1.846 2.262 2.132 1.222 0.39 3.12-1.43 3.9-0.364 4.42 6.5-10.14 21.32-10.14 21.32-0.832 0.52-1.82 0.962-2.47 0.416-0.78-0.416-0.884-1.04-0.884-1.612 0 0-0.286-19.76 7.02-21.84 0.065-0.0182 0.1274-0.026 0.1872-0.0286z" fill="#303030" stroke-width=".26"/>
 </g>
</svg>
