<svg version="1.1" viewBox="0 0 112 71" xmlns="http://www.w3.org/2000/svg">
 <rect x="3.8e-6" width="112" height="71" fill="#ccccc2"/>
 <path d="m25.22 7.8c-4.68 0-8.32 3.64-8.32 8.32v37.96c0 4.68 3.64 8.32 8.32 8.32h60.06c4.68 0 8.32-3.64 8.32-8.32v-37.96c0-4.68-3.64-8.32-8.32-8.32zm40.04 10.92 4.94 0.1118c-0.2236 0.754-0.364 1.43-0.52 1.976-0.1118 0.624-0.26 1.3-0.364 2.054 4.68-0.1872 8.58-0.676 12.74-1.638l0.0364 4.42c-3.64 0.676-8.58 1.118-13.26 1.3-0.1118 1.118-0.2236 2.288-0.26 3.38 1.794-0.416 3.64-0.676 5.46-0.676h0.676c0.1508-0.754 0.312-1.69 0.338-2.236l4.68 1.092c-0.1508 0.416-0.442 1.196-0.676 1.898 4.42 1.43 7.28 4.94 7.28 9.1 0 5.2-3.12 10.4-12.22 11.96l-2.47-3.9c7.28-0.78 10.14-4.42 10.14-8.06 0-2.236-1.3-4.16-3.9-5.2-2.028 5.2-4.94 9.1-7.8 11.44 0.26 0.936 0.572 1.872 0.858 2.86l-4.42 1.3c-0.1508-0.494-0.338-1.014-0.494-1.534-1.846 0.91-3.9 1.508-5.72 1.508-2.86 0-4.94-1.638-4.94-5.46-3e-6 -4.94 3.9-9.88 9.1-12.22 0.0754-1.612 0.1872-3.12 0.338-4.68h-1.196c-1.95 0-4.94-0.1508-6.5-0.2236l-0.1118-4.42c1.3 0.2236 4.68 0.52 6.76 0.52h1.508c0.0754-0.702 0.1508-1.378 0.2262-2.028 0.0364-0.702 0.1118-1.612 0.0754-2.236zm-30.68 2.86h8.32l10.14 27.3h-7.02l-1.716-4.94h-10.92l-1.742 4.94h-7.02l10.14-27.3zm4.16 6.5-3.64 10.92h7.54l-3.64-10.92zm34.58 5.46c-1.976 0.0364-3.64 0.364-5.2 0.832v0.1118c0 2.288 0.1508 4.42 0.442 6.24 1.768-1.846 3.38-4.16 4.68-7.28zm-9.36 2.86c-2.86 1.898-4.68 4.68-4.68 6.76 0 1.196 0.52 1.846 1.716 1.846 1.04 0 2.392-0.442 3.64-1.248-0.416-2.314-0.702-4.94-0.78-7.54z" fill="#972624" stroke-width=".26"/>
</svg>
