<svg version="1.1" viewBox="0 0 120 80" xmlns="http://www.w3.org/2000/svg">
 <rect width="120" height="80" fill="#cedfd9" stroke-width="1.07"/>
 <rect x="24.9" y="22.5" width="70.1" height="35.1" rx="4.28" ry="4.28" fill="none" stroke="#9abdb0" stroke-linecap="round" stroke-linejoin="round" stroke-width="6.42" style="paint-order:markers fill stroke"/>
 <g transform="matrix(1.07 0 0 1.07 -1.07 .942)" fill="#9abdb0">
  <circle cx="64" cy="35" r="4" fill-rule="evenodd" style="paint-order:markers fill stroke"/>
  <circle cx="78" cy="35" r="4" fill-rule="evenodd" style="paint-order:markers fill stroke"/>
  <path d="m74.4 40.5c-0.691 1.58-1.96 2.19-3.24 2.1-1.28-0.0412-2.56-0.789-3.16-2.1-0.162-0.351-0.563-0.5-0.938-0.333-0.341 0.167-0.486 0.579-0.324 0.965 0.827 1.84 2.56 2.89 4.35 2.89 1.79 0.0562 3.67-0.877 4.52-2.98 0.153-0.351 0.0332-0.807-0.333-0.965-0.0938-0.0457-0.571-0.184-0.938 0.342z" stroke-width=".868"/>
 </g>
 <rect x="39.8" y="33.6" width="3.21" height="12.8" fill="none" stroke="#9abdb0" stroke-linecap="round" stroke-linejoin="round" stroke-width="3.21" style="paint-order:markers fill stroke"/>
 <rect transform="rotate(90)" x="38.4" y="-47.8" width="3.21" height="12.8" fill="none" stroke="#9abdb0" stroke-linecap="round" stroke-linejoin="round" stroke-width="3.21" style="paint-order:markers fill stroke"/>
</svg>
