<svg version="1.1" viewBox="0 0 120 80" xmlns="http://www.w3.org/2000/svg">
 <g stroke-width="1.07">
  <rect width="120" height="80" fill="#cedfd9"/>
  <path d="m42.8 7.9c-2.35 0-4.28 1.93-4.28 4.28v55.6c0 2.35 1.93 4.28 4.28 4.28h34.2c2.35 0 4.28-1.93 4.28-4.28v-55.6c0-2.35-1.93-4.28-4.28-4.28zm3.85 4.92h26.8c1.61 0 2.78 1.28 2.78 2.78v18.2c0 1.61-1.28 2.78-2.78 2.78h-26.8c-1.61 0-2.78-1.28-2.78-2.78v-18.2c0-1.61 1.28-2.78 2.78-2.78zm2.03 9.84c-1.28 0-2.25 1.02-2.25 2.25 0 1.23 1.02 2.25 2.25 2.25 1.28 0 2.25-1.02 2.25-2.25 0-1.23-1.02-2.25-2.25-2.25zm22.5 0c-1.28 0-2.25 1.02-2.25 2.25 0 1.23 1.02 2.25 2.25 2.25 1.23 0 2.25-1.02 2.25-2.25 0-1.23-1.02-2.25-2.25-2.25zm-7.17 2.25c-0.867 1.93-2.46 2.68-4.07 2.57-1.61-0.0503-3.21-0.963-3.96-2.57-0.203-0.428-0.706-0.61-1.18-0.407-0.428 0.203-0.61 0.706-0.407 1.18 1.04 2.25 3.21 3.53 5.46 3.53 2.25 0.0685 4.6-1.07 5.67-3.64 0.193-0.428 0.0417-0.984-0.417-1.18-0.118-0.0556-0.717-0.225-1.18 0.417zm-4.07 16.1c7.06 0 12.8 5.67 12.8 12.8 0 7.17-5.67 12.8-12.8 12.8-7.06 0-12.8-5.67-12.8-12.8 0-7.17 5.67-12.8 12.8-12.8zm0 8.03c-2.57 2.57e-4 -4.71 2.14-4.71 4.71-5e-5 2.57 2.14 4.71 4.71 4.71 2.57 4.8e-5 4.71-2.14 4.71-4.71 6e-5 -2.57-2.14-4.71-4.71-4.71z" fill="#9abdb0"/>
 </g>
</svg>
