<svg version="1.1" viewBox="0 0 120 80" xmlns="http://www.w3.org/2000/svg">
 <rect width="120" height="80" fill="#cedfd9" stroke-width="1.07"/>
 <g stroke="#9dbfb3" stroke-linecap="round" stroke-linejoin="round">
  <rect x="48.7" y="10" width="22.5" height="17.1" fill="none" stroke-width="4.28"/>
  <rect x="48.7" y="53.9" width="22.5" height="16.1" fill="none" stroke-width="4.28"/>
  <circle cx="59.9" cy="39.7" r="20.9" fill="#cedfd9" fill-rule="evenodd" stroke-width="7.49" style="paint-order:markers fill stroke"/>
 </g>
 <g fill="#9abdb0" stroke-width=".929">
  <path d="m63.4 40c-0.753 1.67-2.14 2.32-3.53 2.23-1.39-0.0437-2.79-0.836-3.44-2.23-0.177-0.372-0.613-0.53-1.02-0.353-0.372 0.177-0.53 0.613-0.353 1.02 0.901 1.95 2.79 3.07 4.74 3.07 1.95 0.0595 4-0.929 4.92-3.16 0.167-0.372 0.0362-0.855-0.362-1.02-0.102-0.0484-0.623-0.195-1.02 0.362z"/>
  <path d="m69.7 38c-1.11 0-1.95 0.883-1.95 1.95 0 1.07 0.883 1.95 1.95 1.95s1.95-0.883 1.95-1.95c0-1.07-0.883-1.95-1.95-1.95z"/>
  <path d="m50.2 38c-1.11 0-1.95 0.883-1.95 1.95 0 1.07 0.883 1.95 1.95 1.95 1.11 0 1.95-0.883 1.95-1.95 0-1.07-0.883-1.95-1.95-1.95z"/>
 </g>
</svg>
