<?xml version="1.0" encoding="UTF-8" standalone="no"?>
<svg
   viewBox="0 0 150 60"
   version="1.1"
   id="svg6"
   width="150"
   height="60"
   xmlns="http://www.w3.org/2000/svg"
   xmlns:svg="http://www.w3.org/2000/svg">
  <defs
     id="defs6" />
  <path
     fill="#ccccc2"
     fill-rule="evenodd"
     d="M 0,0 H 150 V 60 H 0 Z"
     id="path1"
     style="fill:#cccccc;fill-opacity:1;stroke-width:1" />
  <path
     d="m 129.8024,48.148129 7.161,-4.2966 a 6.0016,6.0016 0 0 0 2.728,-5.456 v -12.617 c 0,-5.797 -3.2736,-12.958 -10.5028,-14.8676 L 114.662,6.9553293 c -4.8422,-1.364 -8.9342,-0.8866 -11.3212,0.4774 l -7.3656,4.2965997 m 23.9382,42.0794 -21.7558,-5.8652 9.6844,-5.5242 21.7558,5.8652 -9.6844,5.5924"
     fill="none"
     stroke="#292929"
     stroke-linecap="round"
     stroke-linejoin="round"
     stroke-width="3.41"
     id="path5"
     style="fill:#bfbfbf;fill-opacity:1;stroke:#404040;stroke-opacity:1" />
  <rect
     transform="matrix(-0.96637608,-0.25713279,0,1,0,0)"
     x="-135.06538"
     y="-14.550572"
     width="36.745495"
     height="29.1896"
     rx="6.8173461"
     ry="6.8200002"
     fill="#f0f0e7"
     fill-rule="evenodd"
     stroke="#292929"
     stroke-linecap="round"
     stroke-linejoin="round"
     stroke-width="6.27318"
     style="fill:#f2f2f2;fill-opacity:1;stroke:#404040;stroke-opacity:1;paint-order:normal"
     id="rect3" />
  <path
     d="m 20.1976,48.148129 -7.160999,-4.2966 a 6.0016,6.0016 0 0 1 -2.728,-5.456 v -12.617 c 0,-5.797 3.2736,-12.958 10.5028,-14.8676 L 35.338,6.9553293 c 4.8422,-1.364 8.9342,-0.8866 11.3212,0.4774 l 7.3656,4.2965997 m -23.9382,42.0794 21.7558,-5.8652 -9.6844,-5.5242 -21.7558,5.8652 9.6844,5.5924"
     fill="none"
     stroke="#292929"
     stroke-linecap="round"
     stroke-linejoin="round"
     stroke-width="3.41"
     id="path3"
     style="fill:#bfbfbf;fill-opacity:1;stroke:#404040;stroke-opacity:1" />
  <rect
     transform="matrix(0.96637608,-0.25713279,0,1,0,0)"
     x="20.15369"
     y="25.36134"
     width="36.745495"
     height="29.1896"
     rx="6.8173461"
     ry="6.8200002"
     fill="#f0f0e7"
     fill-rule="evenodd"
     stroke="#292929"
     stroke-linecap="round"
     stroke-linejoin="round"
     stroke-width="6.27318"
     style="fill:#f2f2f2;fill-opacity:1;stroke:#404040;stroke-opacity:1;paint-order:normal"
     id="rect1" />
  <path
     d="m 37.9978,30.825329 -2.5234,-0.9548 c -0.2728,-0.0682 -0.4774,-0.2728 -0.7502,0 -0.2728,0.2046 -0.4092,0.5456 -0.2728,0.8184 l 3.4782,1.2276 3.614601,-3.2736 c 0.1364,-0.341 0,-0.682 -0.2728,-0.682 0,0 -0.4092,0 -0.6138,0.2046 z m 7.161,-5.0468 c -0.8184,0.2046 -1.4322,1.023 -1.4322,1.8414 0,0.8184 0.682,1.2276 1.4322,1.023 0.7502,-0.2046 1.4322,-1.023 1.4322,-1.8414 0,-0.8184 -0.682,-1.2276 -1.4322,-1.023 z m -14.322,4.0238 c -0.8184,0.2046 -1.4322,1.023 -1.4322,1.8414 0,0.8184 0.682,1.2276 1.4322,1.023 0.8184,-0.2046 1.4322,-1.023 1.4322,-1.8414 0,-0.8184 -0.682,-1.2276 -1.4322,-1.023 z"
     fill="#292929"
     id="path2"
     style="fill:#262626;fill-opacity:1;stroke-width:0.682" />
  <path
     d="m 109.4106,28.506529 c 0.5456,1.364 1.5686,2.1142 2.5916,2.387 1.023,0.2046 2.046,-0.0682 2.5234,-0.9548 0.1364,-0.2728 0.4774,-0.2728 0.7502,0 0.2728,0.1364 0.4092,0.4774 0.2728,0.7502 -0.682,1.2958 -2.046,1.705 -3.4782,1.2958 a 5.3196,5.3196 0 0 1 -3.6146,-3.3418 c -0.1364,-0.2728 0,-0.682 0.2728,-0.682 0,0 0.4092,0 0.682,0.4774 z m -4.5694,-2.728 c 0.8184,0.2046 1.4322,1.023 1.4322,1.8414 0,0.8184 -0.682,1.2276 -1.4322,1.023 -0.7502,-0.2046 -1.4322,-1.023 -1.4322,-1.8414 0,-0.8184 0.682,-1.2276 1.4322,-1.023 z m 14.322,4.0238 c 0.8184,0.2046 1.4322,1.023 1.4322,1.8414 0,0.8184 -0.682,1.2276 -1.4322,1.023 -0.8184,-0.2046 -1.4322,-1.023 -1.4322,-1.8414 0,-0.8184 0.682,-1.2276 1.4322,-1.023 z"
     fill="#292929"
     id="path4"
     style="fill:#262626;fill-opacity:1;stroke-width:0.682" />
  <path
     d="m 62,21.045329 7,-7 m -7,15 7,7 m -5.099999,-11 h 8 m 16.2,-4 -7,-7 m 7,15 -7,7 m 5.1,-11 h -8"
     fill="none"
     stroke="#292929"
     stroke-linecap="round"
     stroke-width="2"
     id="path6"
     style="fill:#8c8c8c;fill-opacity:1;stroke:#f2f2f2;stroke-opacity:1" />
</svg>
