<svg width="134" height="134" viewBox="0 0 80 80" xmlns="http://www.w3.org/2000/svg"><path d="M0 0h80v80H0z" fill="#ddd" fill-rule="evenodd"/><g transform="matrix(-1 0 0 1 83 4.8)"><path d="m61.9 14.1 10.4 6.2c.6.4 2.5 1.8 2.5 3.7v20c0 2.8-2.1 5.6-4.8 6.3L29.6 61a4 4 0 0 1-3-.3l-10.2-6c-1.8-1-3-1.4-4.2-3-1-1.3-1-3-1-4.6v-18c0-3.3 2.8-6.1 5.9-6.9l35.5-9.5c4.5-1.3 5-1 9.3 1.3z" color="#000" fill="#404040" style="-inkscape-stroke:none"/><g fill="none" stroke-linecap="round" stroke-linejoin="round"><path d="m42.6 48.6 7.9.9 7.8-5.1" stroke="#bfbfbf" stroke-width="3"/><path d="M41.5 21.4 39 19.6l2.5-3.2-5-3.7" stroke="#f2f2f2" stroke-width="2"/></g><circle cx="36.5" cy="12" r="2.5" fill="#f2f2f2" fill-rule="evenodd" stroke="#404040" stroke-linejoin="bevel" stroke-width="2" paint-order="markers fill stroke"/></g><path d="M48 43.4a5 5 0 0 1 3.5 4.5c0 2-1.6 3-3.5 2.6a5 5 0 0 1-3.5-4.5c0-2 1.6-3.1 3.5-2.6zm-28.4-7.7a5 5 0 0 1 3.5 4.5c0 2-1.6 3-3.5 2.6a5 5 0 0 1-3.5-4.5c0-2 1.6-3.1 3.5-2.6z" fill="#f2f2f2" stroke="#bfbfbf" stroke-width="3" paint-order="stroke fill markers"/></svg>
