<svg viewBox="0 0 150 60" xmlns="http://www.w3.org/2000/svg"><path d="M0 0h150v60H0z" fill="#ccc" fill-rule="evenodd"/><g stroke="#404040" stroke-linecap="round" stroke-linejoin="round"><path d="m130 48.1 7.16-4.3a6 6 0 0 0 2.73-5.46v-12.6c0-5.8-3.27-13-10.5-14.9l-14.5-3.96c-4.84-1.36-8.93-.89-11.3.48l-7.37 4.3m23.9 42.1-21.8-5.87 9.68-5.52 21.8 5.87-9.68 5.59" fill="#bfbfbf" stroke-width="3.41"/><rect transform="skewY(14.9) scale(-.966 1)" x="-135" y="-14.6" width="36.7" height="29.2" rx="6.82" ry="6.82" fill="#f2f2f2" fill-rule="evenodd" stroke-width="6.27"/><path d="m20.2 48.1-7.16-4.3a6 6 0 0 1-2.73-5.46v-12.6c0-5.8 3.27-13 10.5-14.9l14.5-3.96c4.84-1.36 8.93-.89 11.3.48l7.37 4.3m-23.9 42.1 21.8-5.87-9.68-5.52-21.8 5.87 9.68 5.59" fill="#bfbfbf" stroke-width="3.41"/><rect transform="skewY(-14.9) scale(.966 1)" x="20.2" y="25.4" width="36.7" height="29.2" rx="6.82" ry="6.82" fill="#f2f2f2" fill-rule="evenodd" stroke-width="6.27"/></g><path d="m38 30.8-2.52-.95c-.27-.07-.48-.28-.75 0-.27.2-.4.54-.27.81l3.48 1.23 3.6-3.27c.14-.34 0-.68-.27-.68 0 0-.4 0-.61.2zm7.16-5.05c-.82.2-1.43 1.02-1.43 1.84s.68 1.23 1.43 1.02 1.43-1.02 1.43-1.84-.68-1.23-1.43-1.02zm-14.3 4.02c-.82.2-1.43 1.02-1.43 1.84s.68 1.23 1.43 1.02c.82-.2 1.43-1.02 1.43-1.84s-.68-1.23-1.43-1.02zM109 28.5a3.9 3.9 0 0 0 2.59 2.39c1.02.2 2.05-.07 2.52-.95.14-.28.48-.28.75 0 .27.13.4.47.27.75-.68 1.3-2.05 1.7-3.48 1.3a5.32 5.32 0 0 1-3.6-3.34c-.14-.28 0-.69.27-.69 0 0 .4 0 .68.48zm-4.57-2.73c.82.2 1.43 1.02 1.43 1.84s-.68 1.23-1.43 1.02-1.43-1.02-1.43-1.84.68-1.23 1.43-1.02zm14.3 4.02c.82.2 1.43 1.02 1.43 1.84s-.68 1.23-1.43 1.02c-.82-.2-1.43-1.02-1.43-1.84s.68-1.23 1.43-1.02z" fill="#262626"/><path d="m62 21 7-7m-7 15 7 7m-5.1-11h8m16.2-4-7-7m7 15-7 7m5.1-11h-8" fill="#8c8c8c" stroke="#f2f2f2" stroke-linecap="round" stroke-width="2"/></svg>