<?xml version="1.0" encoding="UTF-8" standalone="no"?><svg viewBox="0 0 120 80" xmlns="http://www.w3.org/2000/svg"><path fill="#c8ccc2" fill-rule="evenodd" d="M0 0h120v80H0z"/><g transform="matrix(.802 0 0 .802 -12.1 9.9)"><rect transform="skewY(-14.9) scale(.966 1)" x="37" y="33.9" width="53.9" height="42.8" rx="10" ry="10" fill="#ebf0e4" fill-rule="evenodd" stroke="#303030" stroke-linecap="round" stroke-linejoin="round" stroke-width="9.2"/><path d="M73.4 23.6c-1.2.3-2.1 1.5-2.1 2.7s1 1.8 2.1 1.5c1.1-.3 2.1-1.5 2.1-2.7s-1-1.8-2.1-1.5z" fill="#303030"/><path d="M63.4 29.1c-1.2.3-2.1 1.5-2.1 2.7s1 1.8 2.1 1.5c1.1-.3 2.1-1.5 2.1-2.7s-1-1.8-2.1-1.5z" fill="none" stroke="#303030" stroke-width="2"/><path d="M52.4 29.5c-1.2.3-2.1 1.5-2.1 2.7s1 1.8 2.1 1.5c1.2-.3 2.1-1.5 2.1-2.7s-1-1.8-2.1-1.5z" fill="#303030"/><g stroke-linecap="round" stroke-linejoin="round"><path d="m36.8 65.4-10.5-6.3a8.8 8.8 0 0 1-4-8V32.6c0-8.5 4.8-19 15.4-21.8L59 5c7.1-2 13.1-1.3 16.6.7L86.4 12M51.3 73.7l31.9-8.6L69 57l-31.9 8.6 14.2 8.2" fill="none" stroke="#303030" stroke-width="5"/><path d="M58 50v-3.2l-4.6-.3 4.7-2.8v-3.1L49.6 46v2.6zm7.5-13.2 2.9-.8-6.2 16.1-2.9.8zM69.7 47v-3.2l4.6-2.7-4.6-.4v-3.1l8.5 1.2v2.6z" fill="#303030" aria-label="&lt;/&gt;"/></g></g><path d="M82.9 39.4c.8 2 2.3 3.1 3.8 3.4 1.5.4 3 0 3.7-1.4.2-.3.7-.3 1.1 0 .4.3.6.8.4 1.2-1 1.8-3 2.4-5.1 1.9a7.8 7.8 0 0 1-5.3-5c-.2-.4 0-.9.4-1 0 0 .6 0 1 .8zm-6.7-4a3 3 0 0 1 2.1 2.6c0 1.2-1 1.9-2.1 1.6a3 3 0 0 1-2.1-2.7c0-1.2 1-1.9 2.1-1.5zm21 5.9a3 3 0 0 1 2.1 2.6c0 1.2-1 1.9-2.1 1.6a3 3 0 0 1-2.1-2.7c0-1.2 1-1.9 2.1-1.5z" fill="#303030"/><circle transform="scale(-1 1)" cx="-91.6" cy="38.5" fill="none" stroke="#303030" stroke-linecap="round" stroke-linejoin="round" stroke-width="5.4" r="22.3"/></svg>