<svg height="120" viewBox="0 0 160 71" xmlns="http://www.w3.org/2000/svg"><path fill="#ccc" d="M0 0h160v71H0z" paint-order="stroke fill markers"/><path d="m92.8 14.2 6.4.1c0 .4-.8 2.8-1.1 5.3 6-.3 11.2-.9 16.6-2.1v5.7A131 131 0 0 1 97.4 25l-.3 4.4c3.5-.8 5.6-.9 8-.9l.4-2.9 6.1 1.4-.8 2.5c5.7 1.9 9.4 6.4 9.4 11.8 0 6.8-4 13.5-15.9 15.6l-3.2-5c9.5-1 13.2-5.8 13.2-10.6 0-2.9-1.7-5.4-5-6.7A36.5 36.5 0 0 1 99 49.4l1.2 3.7-5.8 1.7-.6-2c-2.4 1.2-5.1 2-7.5 2-3.7 0-6.4-2.2-6.4-7.2 0-6.4 5-12.8 11.9-15.9 0-2 .2-4 .4-6-3.6 0-4.3 0-10-.3l-.1-5.8c3.7.7 9 .7 10.8.7.2-2 .6-4 0-6zm-29.2 3.7 13.2 35.5h-9.2L65.4 47H51.2L49 53.4h-9.1L53 18zM53.4 40.6h9.8l-4.9-14.2zm49.8-7c-2.6 0-4.8.4-6.8 1 0 3.1.2 5.9.6 8.3 2.3-2.4 4.4-5.5 6.1-9.5zM91 37.1c-3.7 2.5-6.1 6.1-6.1 8.8 0 1.6.7 2.4 2.2 2.4 1.4 0 3.2-.5 4.8-1.6z" fill="#aaa"/></svg>
