<svg width="720" height="288" xmlns="http://www.w3.org/2000/svg"><rect width="720" height="288" rx="30" ry="30" fill="#ccc" paint-order="stroke fill markers"/><path d="m623 231.1 34.4-20.6a28.8 28.8 0 0 0 13.1-26.2v-60.6c0-27.8-15.7-62.2-50.4-71.3l-69.7-19c-23.3-6.6-42.9-4.3-54.4 2.3l-35.3 20.6m114.8 202L471.1 230l46.5-26.5L622 231.7l-46.5 26.9" fill="#bfbfbf" stroke="#404040" stroke-linecap="round" stroke-linejoin="round" stroke-width="16.4"/><rect transform="skewY(14.9) scale(-.96638 1)" x="-648.3" y="-69.8" width="176.4" height="140.1" rx="32.7" ry="32.7" fill="#f2f2f2" fill-rule="evenodd" stroke="#404040" stroke-linecap="round" stroke-linejoin="round" stroke-width="30.1"/><path d="m97 231.1-34.4-20.6a28.8 28.8 0 0 1-13.1-26.2v-60.6c0-27.8 15.7-62.2 50.4-71.3l69.7-19c23.3-6.6 42.9-4.3 54.4 2.3l35.3 20.6m-114.8 202L248.9 230l-46.5-26.5L98 231.7l46.5 26.9" fill="#bfbfbf" stroke="#404040" stroke-linecap="round" stroke-linejoin="round" stroke-width="16.4"/><rect transform="skewY(-14.9) scale(.96638 1)" x="96.7" y="121.7" width="176.4" height="140.1" rx="32.7" ry="32.7" fill="#f2f2f2" fill-rule="evenodd" stroke="#404040" stroke-linecap="round" stroke-linejoin="round" stroke-width="30.1"/><path d="m182.4 148-12.1-4.6c-1.3-.4-2.3-1.3-3.6 0-1.3 1-2 2.6-1.3 4l16.7 5.8 17.3-15.7c.7-1.7 0-3.3-1.3-3.3 0 0-2 0-3 1zm34.4-24.3a9.5 9.5 0 0 0-6.9 8.9c0 4 3.3 5.9 6.9 4.9a9.8 9.8 0 0 0 6.8-8.9c0-3.9-3.2-5.9-6.8-4.9zM148 143a9.5 9.5 0 0 0-6.9 8.9c0 4 3.3 5.9 7 5a9.5 9.5 0 0 0 6.8-9c0-3.9-3.3-5.8-6.9-4.9zm377.2-6.2a18.5 18.5 0 0 0 12.4 11.5c5 1 9.8-.3 12.1-4.6.7-1.3 2.3-1.3 3.6 0 1.3.7 2 2.3 1.3 3.6-3.2 6.3-9.8 8.2-16.7 6.3a25.5 25.5 0 0 1-17.3-16.1c-.7-1.3 0-3.3 1.3-3.3 0 0 2 0 3.3 2.3zm-22-13c4 .9 6.9 4.8 6.9 8.8 0 4-3.3 5.9-6.9 4.9a9.8 9.8 0 0 1-6.8-8.9c0-3.9 3.2-5.9 6.8-4.9zM572 143c3.9 1 6.9 5 6.9 8.9 0 4-3.3 5.9-7 5a9.5 9.5 0 0 1-6.8-9c0-3.9 3.3-5.8 6.9-4.9z" fill="#262626"/><path d="m297.6 101 33.6-33.6m-33.6 72 33.6 33.6m-24.5-52.8h38.4M423 101l-33.6-33.6m33.6 72L389.3 173m24.5-52.8h-38.4" fill="#8c8c8c" stroke="#f2f2f2" stroke-linecap="round" stroke-width="9.6"/></svg>