<svg width="720" height="384" viewBox="0 0 150 80" xmlns="http://www.w3.org/2000/svg"><path d="M0 0h150v80H0z" fill="#ccc" fill-rule="evenodd"/><g transform="matrix(-1 0 0 1 148 5.1)"><path d="m61.9 14.1 10.4 6.2c.6.4 2.5 1.8 2.5 3.7v20c0 2.8-2.1 5.6-4.8 6.3L29.6 61a4 4 0 0 1-3-.3l-10.2-6c-1.8-1-3-1.4-4.2-3-1-1.3-1-3-1-4.6v-18c0-3.3 2.8-6.1 5.9-6.9l35.5-9.5c4.5-1.3 5-1 9.3 1.3z" color="#000" fill="#404040" style="-inkscape-stroke:none"/><g fill="none" stroke-linecap="round" stroke-linejoin="round"><path d="m42.6 48.6 7.9.9 7.8-5.1" stroke="#bfbfbf" stroke-width="3"/><path d="M41.5 21.4 39 19.6l2.5-3.2-5-3.7" stroke="#f2f2f2" stroke-width="2"/></g><circle cx="36.5" cy="12" r="2.5" fill="#f2f2f2" fill-rule="evenodd" stroke="#404040" stroke-linejoin="bevel" stroke-width="2" paint-order="markers fill stroke"/></g><path d="m22.2 66.3-5-46.8L41 17l8.8 7L54 62.8z" fill="#404040" stroke="#404040" stroke-linecap="round" stroke-linejoin="round" stroke-width="3"/><g fill="#f2f2f2"><path d="m41 17 .9 8 8-1z" stroke="#f2f2f2" stroke-linecap="square" stroke-linejoin="round" stroke-width="3"/><path d="m27.2 37.5-4 .4v.1l1 9v.1l2-.2.1-.1-.3-3.2v-.1l1.7-.2c1.8-.2 3-1.5 2.8-3.2-.2-1.8-1.5-2.8-3.4-2.6zm0 4.1-1.4.2v-.1l-.3-2.1h.1l1.4-.2c.7-.1 1.3.3 1.3 1 .1.6-.3 1.1-1 1.2zm6 4.6 3.3-.4c2-.2 3.4-1.5 3.2-3.3l-.4-3.4c-.2-1.8-1.7-2.8-3.8-2.6l-3.4.4-.1.2 1 9h.1zm1.7-2.2-.5-5.4 1.4-.2c.7 0 1.2.4 1.3 1.3l.3 2.7c.1.8-.3 1.4-1 1.5l-1.4.2V44zm12.3-7-.2-1.6-.1-.1-6.3.7-.1.2 1 9h.1l1.9-.2.1-.1-.4-3.6h.1L46 41l.1-.2-.2-1.6-.1-.1-2.7.3-.2-1.7 4.2-.5z" aria-label="PDF"/><path d="M113 43.7a5 5 0 0 1 3.5 4.5c0 2-1.6 3.1-3.5 2.6a5 5 0 0 1-3.5-4.5c0-2 1.6-3.1 3.5-2.6zM84.6 36a5 5 0 0 1 3.5 4.5c0 2-1.6 3.1-3.5 2.6a5 5 0 0 1-3.5-4.5c0-2 1.6-3.1 3.5-2.6z" stroke="#bfbfbf" stroke-width="3" paint-order="stroke fill markers"/></g></svg>
