<svg width="134" height="134" viewBox="0 0 60 60" xmlns="http://www.w3.org/2000/svg"><g transform="translate(-3.3)"><path d="M20.2 48.1 13 43.8a6 6 0 0 1-2.7-5.5V25.7c0-5.8 3.3-13 10.5-14.9l14.5-4c4.9-1.3 9-.8 11.3.6l7.4 4.3m-24 42L52 48l-9.7-5.5-21.8 5.8 9.7 5.6" fill="#bfbfbf" stroke="#404040" stroke-linecap="round" stroke-linejoin="round" stroke-width="3.4"/><rect transform="skewY(-14.9) scale(.966 1)" x="20.2" y="25.4" width="36.7" height="29.2" rx="6.8" ry="6.8" fill="#f2f2f2" fill-rule="evenodd" stroke="#404040" stroke-linecap="round" stroke-linejoin="round" stroke-width="6.3"/><path d="M40.6 28.5a3.9 3.9 0 0 1-2.6 2.4c-1 .2-2 0-2.5-1-.1-.2-.5-.2-.8 0-.2.2-.4.5-.2.8.6 1.3 2 1.7 3.4 1.3a5.3 5.3 0 0 0 3.7-3.4c0-.2 0-.6-.3-.6 0 0-.4 0-.7.4zm4.6-2.7c-.8.2-1.5 1-1.5 1.8s.7 1.2 1.5 1 1.4-1 1.4-1.8-.7-1.2-1.4-1zm-14.3 4c-.8.2-1.5 1-1.5 1.8s.7 1.3 1.5 1c.8-.2 1.4-1 1.4-1.8s-.7-1.2-1.4-1z" fill="#262626"/></g></svg>
