<svg version="1.1" viewBox="0 0 120 80" xmlns="http://www.w3.org/2000/svg">
 <rect x="9.54e-7" width="120" height="80" fill="#cedfd9"/>
 <circle cx="59.9" cy="30.7" r="21.5" fill="none" stroke="#9abdb0" stroke-linecap="round" stroke-linejoin="round" stroke-width="6" style="paint-order:markers fill stroke"/>
 <path d="m41.3 41.4 8.14 14.1v9.9l3.14 5.45h14.7l3.14-5.45v-9.9l8.14-14.1" fill="none" stroke="#9abdb0" stroke-linejoin="round" stroke-width="6"/>
 <g fill="#9abdb0">
  <path d="m63.4 32.9c-0.767 1.71-2.11 2.45-3.53 2.36-1.42-0.0445-2.84-0.853-3.51-2.27-0.18-0.379-0.625-0.54-1.04-0.36-0.379 0.18-0.54 0.625-0.36 1.04 0.919 1.99 2.84 3.13 4.83 3.13 1.99 0.0607 4.07-0.948 5.02-3.22 0.171-0.379 0.0369-0.872-0.37-1.04-0.104-0.0493-0.635-0.199-1.04 0.37z"/>
  <path d="m69.4 27c-1.43 0-2.5 1.13-2.5 2.5 0 1.37 1.13 2.5 2.5 2.5s2.5-1.13 2.5-2.5c0-1.37-1.13-2.5-2.5-2.5z" stroke-width=".868"/>
  <path d="m51.4 27c-1.43 0-2.5 1.13-2.5 2.5s1.13 2.5 2.5 2.5c1.43 0 2.5-1.13 2.5-2.5s-1.13-2.5-2.5-2.5z" stroke-width=".868"/>
 </g>
</svg>
