<svg version="1.1" viewBox="0 0 112 75" xmlns="http://www.w3.org/2000/svg">
 <rect width="112" height="75" fill="#cedfd9"/>
 <rect x="23.2" y="21.1" width="65.5" height="32.8" rx="4" ry="4" fill="none" stroke="#9abdb0" stroke-linecap="round" stroke-linejoin="round" stroke-width="6" style="paint-order:markers fill stroke"/>
 <path d="m37.2 31.5v4.5h-4.5v3h4.5v4.5h3v-4.5h4.5v-3h-4.5v-4.5z" fill="none" stroke="#9abdb0" stroke-linecap="round" stroke-linejoin="round" stroke-width="3" style="paint-order:markers fill stroke"/>
 <g transform="translate(-1 1)" fill="#9abdb0">
  <circle cx="64" cy="35" r="4" fill-rule="evenodd" style="paint-order:markers fill stroke"/>
  <circle cx="78" cy="35" r="4" fill-rule="evenodd" style="paint-order:markers fill stroke"/>
  <path d="m74.4 40.5c-0.691 1.58-1.96 2.19-3.24 2.1-1.28-0.0412-2.56-0.789-3.16-2.1-0.162-0.351-0.563-0.5-0.938-0.333-0.341 0.167-0.486 0.579-0.324 0.965 0.827 1.84 2.56 2.89 4.35 2.89 1.79 0.0562 3.67-0.877 4.52-2.98 0.153-0.351 0.0332-0.807-0.333-0.965-0.0938-0.0457-0.571-0.184-0.938 0.342z" stroke-width=".868"/>
 </g>
</svg>
