<svg version="1.1" viewBox="0 0 112 75" xmlns="http://www.w3.org/2000/svg">
 <rect x="-4.77e-7" width="112" height="75" fill="#cedfd9"/>
 <g stroke="#9dbfb3" stroke-linecap="round" stroke-linejoin="round">
  <rect x="45.5" y="9.5" width="21" height="16" fill="none" stroke-width="4"/>
  <rect x="45.5" y="50.5" width="21" height="15.1" fill="none" stroke-width="4"/>
  <circle cx="56" cy="37.3" r="19.5" fill="#cedfd9" fill-rule="evenodd" stroke-width="7" style="paint-order:markers fill stroke"/>
 </g>
 <g fill="#9abdb0" stroke-width=".868">
  <path d="m59.3 37.5c-0.703 1.56-2 2.17-3.3 2.08-1.3-0.0408-2.6-0.781-3.21-2.08-0.165-0.347-0.573-0.495-0.955-0.33-0.347 0.165-0.495 0.573-0.33 0.955 0.842 1.82 2.6 2.87 4.43 2.87 1.82 0.0556 3.73-0.868 4.6-2.95 0.156-0.347 0.0339-0.799-0.339-0.955-0.0955-0.0452-0.582-0.182-0.955 0.339z"/>
  <path d="m65.1 35.7c-1.04 0-1.82 0.825-1.82 1.82 0 0.998 0.825 1.82 1.82 1.82s1.82-0.825 1.82-1.82c0-0.998-0.825-1.82-1.82-1.82z"/>
  <path d="m46.9 35.7c-1.04 0-1.82 0.825-1.82 1.82 0 0.998 0.825 1.82 1.82 1.82 1.04 0 1.82-0.825 1.82-1.82 0-0.998-0.825-1.82-1.82-1.82z"/>
 </g>
</svg>
