<svg viewBox="0 0 120 80" xmlns="http://www.w3.org/2000/svg" xmlns:xlink="http://www.w3.org/1999/xlink"><defs><path d="M57.4 21.4 55 18.7l-3.6.3 2-3-1.6-3.3 3.6.8L58 11l.3 3.6 3.2 1.8-3.4 1.4z" id="a"/></defs><path fill="#ccccc2" fill-rule="evenodd" d="M0 0h120v80H0z"/><g transform="matrix(.802 0 0 .802 -12.1 9.9)"><rect transform="skewY(-14.9) scale(.966 1)" x="37" y="33.9" width="53.9" height="42.8" rx="10" ry="10" fill="#f0f0e4" fill-rule="evenodd" stroke="#303030" stroke-linecap="round" stroke-linejoin="round" stroke-width="9.2"/><path d="M73.4 23.6c-1.2.3-2.1 1.5-2.1 2.7s1 1.8 2.1 1.5c1.1-.3 2.1-1.5 2.1-2.7s-1-1.8-2.1-1.5z" fill="#303030"/><path d="M63.4 29.1c-1.2.3-2.1 1.5-2.1 2.7s1 1.8 2.1 1.5c1.1-.3 2.1-1.5 2.1-2.7s-1-1.8-2.1-1.5z" fill="none" stroke="#303030" stroke-width="2"/><path d="M52.4 29.5c-1.2.3-2.1 1.5-2.1 2.7s1 1.8 2.1 1.5c1.2-.3 2.1-1.5 2.1-2.7s-1-1.8-2.1-1.5z" fill="#303030"/><g stroke-linecap="round" stroke-linejoin="round"><path d="m36.8 65.4-10.5-6.3a8.8 8.8 0 0 1-4-8V32.6c0-8.5 4.8-19 15.4-21.8L59 5c7.1-2 13.1-1.3 16.6.7L86.4 12M51.3 73.7l31.9-8.6L69 57l-31.9 8.6 14.2 8.2" fill="none" stroke="#303030" stroke-width="5"/><path d="M58 50v-3.2l-4.6-.3 4.7-2.8v-3.1L49.6 46v2.6zm7.5-13.2 2.9-.8-6.2 16.1-2.9.8zM69.7 47v-3.2l4.6-2.7-4.6-.4v-3.1l8.5 1.2v2.6z" fill="#303030" aria-label="&lt;/&gt;"/></g></g><path d="M82.9 42.9c.8 2 2.3 3.1 3.8 3.4 1.5.4 3 0 3.7-1.3.2-.4.7-.4 1.1-.1.4.3.6.8.4 1.2-1 1.8-3 2.5-5.1 1.9a7.8 7.8 0 0 1-5.3-5c-.2-.4 0-.8.4-.9 0 0 .6 0 1 .7zm-6.7-4c1.2.3 2.1 1.5 2.1 2.7s-1 1.8-2.1 1.5-2.1-1.6-2.1-2.7 1-1.8 2.1-1.5zm21 5.9c1.2.3 2.1 1.5 2.1 2.7s-1 1.8-2.1 1.5c-1.2-.4-2.1-1.6-2.1-2.7s1-1.8 2.1-1.5z" fill="#303030"/><circle transform="scale(-1 1)" cx="-91.6" cy="42" fill="none" stroke="#303030" stroke-linecap="round" stroke-linejoin="round" stroke-width="5.4" r="22.3"/><path d="M108 30 97 3 79.1 26a25.8 25.8 0 0 0 28.9 4z" fill="#f0f0e4" stroke="#303030" stroke-linecap="round" stroke-linejoin="round" stroke-width="4.9"/><g fill="#303030" fill-rule="evenodd" stroke="#303030" stroke-linecap="round" stroke-linejoin="round"><g stroke-width="2.1"><path d="m88 26.8 1-1.3 1.8.2-1-1.5.8-1.5-1.7.4-1.2-1.2-.2 1.7-1.5.9 1.6.6z" stroke-width="1"/><use transform="matrix(-.226 -.177 -.176 .225 115 32.9)" xlink:href="#a"/><use transform="matrix(-.226 -.177 -.176 .225 112 19.6)" xlink:href="#a"/></g><path d="m95.6 22 1-.3.8.6v-1l.9-.6-1-.3-.3-1-.6.8h-1l.6.9z" stroke-width="2.6"/><use transform="matrix(-.185 -.0497 -.0496 .185 104 16.6)" stroke-width="8.9" xlink:href="#a"/></g></svg>
