<svg viewBox="0 0 120 80" xmlns="http://www.w3.org/2000/svg"><defs><clipPath id="i"><rect x="106" y="112" width="38" height="62" rx="5" ry="5" fill="#303030" fill-rule="evenodd" paint-order="markers fill stroke"/></clipPath><clipPath id="h"><rect x="106" y="112" width="38" height="62" rx="5" ry="5" fill="#303030" fill-rule="evenodd" paint-order="markers fill stroke"/></clipPath><clipPath id="f"><rect x="106" y="112" width="38" height="62" rx="5" ry="5" fill="#303030" fill-rule="evenodd" paint-order="markers fill stroke"/></clipPath><clipPath id="c"><rect x="106" y="112" width="38" height="62" rx="5" ry="5" fill="#303030" fill-rule="evenodd" paint-order="markers fill stroke"/></clipPath><clipPath id="e"><rect x="106" y="112" width="38" height="62" rx="5" ry="5" fill="#303030" fill-rule="evenodd" paint-order="markers fill stroke"/></clipPath><clipPath id="d"><rect x="106" y="112" width="38" height="62" rx="5" ry="5" fill="#303030" fill-rule="evenodd" paint-order="markers fill stroke"/></clipPath><clipPath id="k"><rect x="106" y="112" width="38" height="62" rx="5" ry="5" fill="#303030" fill-rule="evenodd" paint-order="markers fill stroke"/></clipPath><clipPath id="j"><rect x="106" y="112" width="38" height="62" rx="5" ry="5" fill="#303030" fill-rule="evenodd" paint-order="markers fill stroke"/></clipPath><clipPath id="g"><rect x="106" y="112" width="38" height="62" rx="5" ry="5" fill="#303030" fill-rule="evenodd" paint-order="markers fill stroke"/></clipPath><clipPath id="b"><rect x="182" y="96.8" width="72" height="45" rx="5" ry="5" fill="#ccccc2" fill-rule="evenodd" paint-order="markers fill stroke"/></clipPath><clipPath id="a"><rect x="182" y="96.8" width="72" height="45" rx="5" ry="5" fill="#ccccc2" fill-rule="evenodd" paint-order="markers fill stroke"/></clipPath><clipPath id="m"><rect x="133" y="95" width="38" height="62" rx="5" ry="5" fill="#303030" fill-rule="evenodd" paint-order="markers fill stroke"/></clipPath><clipPath id="l"><rect x="133" y="95" width="38" height="62" rx="5" ry="5" fill="#303030" fill-rule="evenodd" paint-order="markers fill stroke"/></clipPath></defs><path fill="#ccccc2" fill-rule="evenodd" d="M.3-.2h120v80H.3z"/><rect transform="rotate(15)" x="57.3" y="-12.8" width="78" height="51" rx="8" ry="8" fill="#f0f0e4" fill-rule="evenodd" paint-order="markers fill stroke"/><g transform="rotate(15 466 -409)"><g fill-rule="evenodd" paint-order="markers fill stroke"><path clip-path="url(#a)" fill="#ccccc2" d="M182 96.8h72v45h-72z"/><path clip-path="url(#b)" fill="#303030" d="M182 96.8h72v12h-72z"/><ellipse transform="matrix(.806 0 0 .806 97.1 6.3)" cx="113" cy="120" rx="4.3" ry="4.4" clip-path="url(#c)" fill="#f0f0e4"/></g><g fill="none" stroke-linecap="round"><path transform="translate(73.8 -16.6)" d="M122 118h17.5" clip-path="url(#d)" stroke="#f0f0e4" stroke-width="2"/><path transform="translate(73.8 -17.4)" d="M122 122h10.2" clip-path="url(#e)" stroke="#f0f0e4" stroke-width="2"/><g stroke="#303030"><path transform="matrix(.927 0 0 .927 121 -25.1)" d="M110 161h29.8" clip-path="url(#f)" stroke-width="2.2"/><path transform="matrix(.782 0 0 .782 138 -9.9)" d="M110 161h29.8" clip-path="url(#g)" stroke-width="5.1"/><path transform="translate(113 -36.9)" d="M110 165h17.3" clip-path="url(#h)" stroke-width="2"/><path transform="translate(113 -36.9)" d="M110 170h22.6" clip-path="url(#i)" stroke-width="2"/></g></g><path transform="translate(77.5 -19.4)" d="M110 155h14.4" clip-path="url(#j)" fill="#f0f0e4" stroke="#f0f0e4" stroke-linecap="round" stroke-width="2"/><rect transform="translate(77.5 -19.2)" x="109" y="131" width="31.9" height="19.8" rx="2" ry="2" clip-path="url(#k)" fill="#f0f0e4" fill-rule="evenodd" paint-order="markers fill stroke"/><path d="M206 123c-.8 1.7-2.1 2.5-3.5 2.4a4 4 0 0 1-3.5-2.3c-.2-.4-.7-.5-1-.4-.5.2-.6.7-.4 1a5.4 5.4 0 0 0 9.8 0c.2-.4 0-.9-.4-1 0-.1-.6-.3-1 .3zm5-6a2.5 2.5 0 0 0-2.5 2.5c0 1.4 1.1 2.5 2.5 2.5a2.5 2.5 0 1 0 0-5zm-17 0a2.5 2.5 0 0 0-2.5 2.5c0 1.4 1.1 2.5 2.5 2.5s2.5-1.1 2.5-2.5-1.1-2.5-2.5-2.5z" fill="#ccccc2"/></g><g transform="translate(0 .1)"><g fill-rule="evenodd" paint-order="markers fill stroke"><rect transform="rotate(-15)" x="-3.3" y="12" width="42" height="66" rx="7" ry="7" fill="#f0f0e4"/><path transform="rotate(-15 -240 551)" clip-path="url(#l)" fill="#ccccc2" d="M133 95h38v62h-38z"/><path transform="rotate(-15 -240 551)" clip-path="url(#m)" fill="#303030" d="M133 95h38v15.4h-38z"/><ellipse transform="rotate(-15)" cx="6.4" cy="21.7" rx="4.3" ry="4.4" fill="#f0f0e4"/></g><g fill="none" stroke-linecap="round" stroke-width="2"><path d="m19.7 15.1 16.9-4.5m-15.7 8.8 9.8-2.6" stroke="#f0f0e4"/><path d="m18.9 59.9 28.8-7.7m-27.6 12 16.7-4.5m-15.6 8.8L43 62.7" stroke="#303030"/></g><rect transform="rotate(-15)" x="1.8" y="33.4" width="31.9" height="19.8" rx="2" ry="2" fill="#f0f0e4" fill-rule="evenodd" paint-order="markers fill stroke"/><path d="m17.5 54.5 13.9-3.7" fill="#f0f0e4" stroke="#f0f0e4" stroke-linecap="round" stroke-width="2"/><path d="M31.9 37.2c-.3 1.9-1.4 3-2.8 3.2a4 4 0 0 1-4-1.3.6.6 0 0 0-1 0c-.4.2-.4.7-.1 1a5.3 5.3 0 0 0 5.4 1.8c2-.5 3.7-2 4-4.4.1-.4-.1-.9-.6-1 0 0-.6 0-.9.7zm3.3-7a2.5 2.5 0 0 0-1.8 3 2.5 2.5 0 0 0 3 1.8 2.5 2.5 0 0 0 1.9-3 2.5 2.5 0 0 0-3.1-1.8zm-16.4 4.4a2.5 2.5 0 0 0-1.8 3 2.5 2.5 0 0 0 3 1.8 2.5 2.5 0 0 0 1.9-3 2.5 2.5 0 0 0-3.1-1.8z" fill="#ccccc2"/></g></svg>
