<svg viewBox="0 0 720 285" xmlns="http://www.w3.org/2000/svg"><path fill="#c8ccc2" d="M0 0h720v285H0z"/><path d="M128 120c7.6-4 11.7-10.5 11.7-20.3 0-20.4-13.2-28.1-35.7-28.1H66.8c-1 0-1.7.7-1.7 1.7v97.3c0 1 .7 1.8 1.7 1.8h38.3c20 0 36-8.4 36-28.5 0-10.7-4.2-18.1-13.1-23-.6-.3-.6-.6 0-.9zM89.7 92.1H104c8 0 12.2 3.6 12.2 10 0 6.1-4.3 9.6-12.2 9.6H89.7a.7.7 0 0 1-.7-.7V92.9c0-.5.3-.8.7-.8zm15.4 59.8H89.7a.7.7 0 0 1-.7-.7V132c0-.5.3-.7.7-.7h15.4c7.8 0 12.1 3.6 12.1 10.2s-4.3 10.4-12.1 10.4zM184 96.7c-18.6 0-32.1 9.8-33.3 22.5 0 .7.7 1.1 1.7 1.3l20.7 2.7c1 .2 1.6-.4 2-1.4 1-2.7 4.5-4.6 9.3-4.6 6.3 0 9.8 3.3 9.8 8.3v2.8c0 .4-.3.7-.8.7h-14c-19.7 0-30 8.6-30 23.2 0 14.4 10.3 21.3 25.1 21.3 9.3 0 15.1-2.7 18.7-8 .5-.8.9-.6.9 0v5.1c0 1 .7 1.8 1.7 1.8h20.4c1 0 1.8-.8 1.8-1.8v-49c0-14-14.5-24.9-34.1-24.9zm-2.3 59.6c-5.2 0-8.2-2.7-8.2-7 0-5 4.2-7.4 11.4-7.4h8.6c.5 0 .7.3.7.7v3.5c0 6.3-5.4 10.2-12.5 10.2zM271 96.8c-6.6 0-11.5 3-15 7.6-.3.6-.7.3-.7-.3v-4.6c0-1-.7-1.7-1.8-1.7h-20.3c-1 0-1.8.7-1.8 1.7v71c0 1 .7 1.8 1.8 1.8h20.4c1 0 1.7-.8 1.7-1.8v-37.9c0-6.7 5.3-10.4 10.5-11a21 21 0 0 1 8.8.2c1.1.5 1.8.3 2-1l3.3-19.9c.1-.9 0-1.7-.9-2.3a15 15 0 0 0-8-1.9zm19 75.2h20.4c1 0 1.7-.7 1.7-1.7V73c0-1-.7-1.8-1.7-1.8H290c-1 0-1.7.8-1.7 1.8v97.3c0 1 .7 1.7 1.7 1.7zm69 1a33.6 33.6 0 0 0 34.3-26.2 57.8 57.8 0 0 0-.4-26.5 33.2 33.2 0 0 0-33.7-24c-17.3 0-29.7 9.2-34.1 24.2a49.2 49.2 0 0 0-.2 27 33.4 33.4 0 0 0 34.1 25.6zm0-20.4c-5.8 0-9.5-4-11.1-10a35 35 0 0 1-.7-8.1c0-3 .1-6.1.8-8.4 1.5-5.6 5-9.4 10.8-9.4s9.4 3.6 11 9.4c.5 2.3.8 5.2.8 8.3a30 30 0 0 1-.9 8.3c-1.4 5.9-5 9.9-10.8 9.9zm65 19.4h21.2c1 0 1.6-.4 1.9-1.4l8-33.6c.2-.6.7-.6.9 0l9.5 33.6a2 2 0 0 0 2 1.4h21.2c1 0 1.6-.6 1.9-1.4l21.2-71c.3-1.2-.3-2-1.5-2l-21-.2c-1 0-1.7.4-2 1.4l-9.6 39.3c-.2.6-.7.6-.9 0L467 98.8c-.3-1-1-1.4-2-1.4h-18.4c-1 0-1.6.4-1.9 1.4l-9.3 39.2c-.2.8-.7.8-.9 0L426 99c-.2-1-.9-1.5-1.9-1.5h-21.2c-1.2 0-1.7.8-1.4 2l20.9 71c.2 1 .8 1.5 1.8 1.5z" transform="translate(71.5 -41.5)" fill="#3d3d3d" style="shape-inside:url(#rect2885-9);white-space:pre" aria-label="Barlow"/><path d="M63 56.9h5.5v60.8h26.9v5.1H63zm47 46.1q0 4.3 1.7 8 1.7 3.8 5.1 6.1t8.6 2.3q4.1 0 7-1.4 2.8-1.4 4.4-3.2 1.7-1.8 2.4-3.3l3.6 3.5q-2.8 4.3-6.9 6.7t-10.8 2.4q-6.5 0-11.2-3-4.6-2.9-7-8-2.4-5-2.4-11.4 0-6 2.4-10.8t6.9-7.6q4.5-2.8 11-2.8 5.8 0 10 2.6t6.7 7.1q2.4 4.5 2.4 10.5l-.1 1.1v1.1zm28-4.8q0-2.7-1.4-5.7-1.2-3-4.1-5.1-2.9-2.2-7.8-2.2-5.3 0-8.4 2.1-3 2.1-4.4 5.1t-1.7 5.8zm50 24.8v-8.6q-.3 1.4-2.4 3.7-1.9 2.3-5.4 4.2-3.4 1.9-8.2 1.9-5.6 0-10.2-2.6t-7.5-7.4q-2.8-4.9-2.8-11.6t2.8-11.6q2.8-5 7.5-7.5 4.7-2.6 10.2-2.6 4.7 0 8.2 1.8t5.5 4 2.3 3.9v-8.5h5.5v41zm-31.1-20.5q0 5.2 2.3 9t5.9 5.8q3.6 2 7.5 2 6.6 0 10.8-4.5 4.4-4.6 4.4-12.2t-4.4-12.2q-4.3-4.7-10.8-4.7-4 0-7.5 2.1t-6 5.8q-2.2 3.8-2.2 9zM225 145q-7.7 0-12.4-2.4t-6.8-5.5l4.1-3.7q.9 1.3 2.5 2.8t4.5 2.7q3 1.1 8 1.1 4.9 0 8.2-2.2 3.3-2.2 5-5.9 1.8-3.7 1.8-8v-9.4q-.4 1.4-2.4 3.7-2 2.3-5.4 4.2-3.5 1.9-8.3 1.9-5.5 0-10.2-2.6t-7.5-7.4q-2.8-4.9-2.8-11.6t2.8-11.6q2.9-5 7.5-7.5 4.7-2.6 10.2-2.6 4.8 0 8.3 1.8t5.5 4 2.2 3.9v-8.5h5.5v42.2q0 6.7-2.7 11.4t-7.4 7T225 145zm-16.2-42.4q0 5.2 2.3 9t5.9 5.8q3.6 2 7.5 2 6.6 0 10.8-4.6 4.4-4.5 4.4-12.2t-4.4-12.2q-4.3-4.6-10.8-4.6-4 0-7.5 2.1t-6 5.8q-2.2 3.8-2.2 9zm55.2.4q0 7.2 3.2 11.4t9.7 4.3 9.6-4.3 3.2-11.4V81.5h5.5V104q0 5.7-2.2 10.2-2 4.5-6.2 7t-10 2.5q-5.8 0-9.9-2.5t-6.3-7q-2.1-4.5-2.1-10.2V81.5h5.5zm47 0q0 4.3 1.7 8 1.7 3.8 5.1 6.1t8.6 2.3q4.2 0 7-1.4t4.5-3.2q1.7-1.8 2.4-3.3l3.5 3.5q-2.8 4.3-6.9 6.7t-10.8 2.4q-6.5 0-11.2-3-4.6-2.9-7-8-2.4-5-2.4-11.4 0-6 2.4-10.8t6.9-7.6q4.5-2.8 11-2.8 5.7 0 10 2.6t6.7 7.1q2.4 4.5 2.4 10.5l-.1 1.1v1.1zm28-4.8q0-2.7-1.4-5.7-1.2-3-4.1-5.1-2.9-2.2-7.8-2.2-5.3 0-8.4 2.1-3 2.1-4.5 5.1t-1.6 5.8zm60-42.5q5.5 0 9.3 1.3 3.9 1.3 6 2.7 2.3 1.4 2.7 1.9l-3 4.6-2.7-2q-1.9-1.3-4.8-2.2-3-1-7.1-1-6.4 0-10.2 2.7-3.7 2.7-3.7 7.5 0 4.9 4.3 8 4.3 3.1 10.7 6 3.3 1.5 6.7 3.4t6.2 4.3q2.8 2.5 4.5 5.8 1.8 3.3 1.8 7.6 0 5.3-2.8 9.3-2.8 4-7.7 6.3-5 2.2-11.3 2.2-5.7 0-10.4-1.4-4.6-1.6-7.5-3.1l-3.1-1.9 3.3-4.8 3.2 2.1q2.4 1.4 6.1 2.6 3.8 1.2 8.6 1.2 7.7 0 11.7-3.6 4-3.6 4-9.2 0-4.2-2.6-7.3-2.5-3-6.6-5.3-4-2.3-8.3-4.3-4.7-2.2-8.4-4.6t-6-5.7q-2.2-3.3-2.2-7.8t2.5-7.9q2.6-3.4 6.9-5.4 4.4-2 9.9-2zm39 88.3h-5.5V82.2h5.6v8.6q.3-1.7 2.4-4t5.8-4q3.6-1.8 8.4-1.8 5.6 0 10 2.6t7.1 7.5q2.7 4.8 2.7 11.6t-2.7 11.6-7.2 7.4q-4.5 2.6-10 2.6-4.9 0-8.6-1.8-3.7-1.9-5.8-4.2-2-2.4-2.3-3.8zm31-41.3q0-5.2-2.1-9t-5.6-5.8q-3.4-2-7.3-2-4.4 0-8 2t-5.8 6q-2.1 3.7-2.1 8.8 0 5.2 2.1 8.9t5.8 5.9q3.6 2 8 2 3.9 0 7.3-2 3.5-2 5.5-5.8 2.2-3.8 2.2-9zm49 20.3v-8.6q-.3 1.4-2.4 3.7-1.9 2.3-5.4 4.2-3.5 1.9-8.3 1.9-5.5 0-10.1-2.6t-7.6-7.4q-2.7-4.9-2.7-11.6t2.7-11.6q2.9-5 7.6-7.5 4.6-2.6 10.1-2.6 4.8 0 8.3 1.8t5.5 4 2.3 3.9v-8.5h5.5v41zm-31.1-20.5q0 5.2 2.3 9 2.2 3.8 5.8 5.8 3.6 2 7.6 2 6.5 0 10.8-4.5 4.3-4.6 4.3-12.2t-4.3-12.2q-4.3-4.7-10.8-4.7-4 0-7.6 2.1t-5.9 5.8q-2.2 3.8-2.2 9zM542 123h-5.5V82h5.5v6.5q.6-1.4 2.3-3.2 1.7-1.8 4.3-3.1 2.6-1.4 6-1.4 2.8 0 4.9.8 2.1.7 2.9 1.4l-2.4 4.7q-.7-.6-2.5-1.3-1.7-.7-4.3-.7-3.4 0-5.9 2.4-2.6 2.3-4 5.5-1.3 3.2-1.3 5.9zm24-41.2h8.6V65h5.5v16.8h11.2v5h-11.2v24.5q0 4.2 1.5 6 1.6 1.7 3.8 1.7 2.1 0 3.2-.8l1.4-1 2.6 4.3q-.4.4-2.5 1.4-2.1 1.1-5.6 1.1-4.2 0-7.1-2.6-2.8-2.7-2.8-8.6v-26H566zm69 41.2v-8.6q-.3 1.4-2.4 3.7-1.9 2.3-5.4 4.2-3.5 1.9-8.3 1.9-5.5 0-10.2-2.6t-7.5-7.4q-2.8-4.9-2.8-11.6t2.8-11.6q2.9-5 7.5-7.5 4.7-2.6 10.2-2.6 4.8 0 8.3 1.8t5.5 4 2.2 3.9v-8.5h5.5v41zm-31.1-20.5q0 5.2 2.3 9 2.2 3.8 5.8 5.8 3.6 2 7.6 2 6.5 0 10.8-4.5 4.3-4.6 4.3-12.2t-4.3-12.2q-4.3-4.7-10.8-4.7-4 0-7.6 2.1t-5.9 5.8q-2.2 3.8-2.2 9zM674 80.6q3.9 0 7.5 1.7 3.7 1.6 6.1 5.3T690 97v25.9h-5.7V98.1q0-6.9-3.2-9.9t-8.2-3q-3.3 0-6.4 1.9-3.1 1.9-5.1 5.2-2 3.3-2 7.5v23H654v-41h5.5v7.9q.4-1.8 2.4-3.9 2-2.1 5.2-3.7t7-1.6z" transform="translate(-16.4 109)" fill="#3d3d3d" style="shape-inside:url(#rect2885-5-47);white-space:pre" aria-label="League Spartan"/></svg>