<svg viewBox="0 0 720 400" xmlns="http://www.w3.org/2000/svg">
 <rect width="720" height="400" fill="#c8ccc2"/>
 <g fill="#3d3d3d">
  <g transform="translate(71.48 -41.49)" style="shape-inside:url(#rect2885-9);white-space:pre" aria-label="Barlow">
   <path d="m128.3 119.9c7.632-4.032 11.66-10.51 11.66-20.3 0-20.45-13.25-28.08-35.71-28.08h-37.15c-1.008 0-1.728 0.72-1.728 1.728v97.34c0 1.008 0.72 1.728 1.728 1.728h38.3c20.02 0 36-8.352 36-28.51 0-10.66-4.176-18.14-13.1-23.04-0.576-0.288-0.576-0.576 0-0.864zm-38.3-27.94h14.26c7.92 0 12.24 3.6 12.24 9.936 0 6.192-4.32 9.648-12.24 9.648h-14.26c-0.432 0-0.72-0.288-0.72-0.72v-18.14c0-0.432 0.288-0.72 0.72-0.72zm15.41 59.76h-15.41c-0.432 0-0.72-0.288-0.72-0.72v-19.15c0-0.432 0.288-0.72 0.72-0.72h15.41c7.776 0 12.1 3.6 12.1 10.22s-4.32 10.37-12.1 10.37z"/>
   <path d="m183.5 96.69c-18.58 0-32.11 9.792-33.26 22.46 0 0.72 0.72 1.152 1.728 1.296l20.74 2.736c1.008 0.144 1.584-0.432 2.016-1.44 1.008-2.736 4.464-4.608 9.216-4.608 6.336 0 9.792 3.312 9.792 8.352v2.736c0 0.432-0.288 0.72-0.72 0.72h-13.97c-19.73 0-30.1 8.64-30.1 23.18 0 14.4 10.37 21.31 25.2 21.31 9.216 0 15.12-2.736 18.72-8.064 0.432-0.72 0.864-0.576 0.864 0.144v5.04c0 1.008 0.72 1.728 1.728 1.728h20.45c1.008 0 1.728-0.72 1.728-1.728v-49.1c0-13.97-14.54-24.77-34.13-24.77zm-2.304 59.62c-5.184 0-8.208-2.736-8.208-6.912 0-5.04 4.176-7.488 11.38-7.488h8.64c0.432 0 0.72 0.288 0.72 0.72v3.456c0 6.336-5.472 10.22-12.53 10.22z"/>
   <path d="m271 96.83c-6.624 0-11.52 3.024-14.98 7.632-0.288 0.576-0.72 0.288-0.72-0.288v-4.608c0-1.008-0.72-1.728-1.728-1.728h-20.45c-1.008 0-1.728 0.72-1.728 1.728v70.99c0 1.008 0.72 1.728 1.728 1.728h20.45c1.008 0 1.728-0.72 1.728-1.728v-37.87c0-6.768 5.328-10.37 10.51-11.09 3.456-0.576 6.768-0.288 8.784 0.288 1.152 0.432 1.872 0.288 2.016-1.008l3.312-19.87c0.144-0.864 0-1.728-0.864-2.304-1.584-1.008-4.176-1.872-8.064-1.872z"/>
   <path d="m289.7 172.3h20.45c1.008 0 1.728-0.72 1.728-1.728v-97.34c0-1.008-0.72-1.728-1.728-1.728h-20.45c-1.008 0-1.728 0.72-1.728 1.728v97.34c0 1.008 0.72 1.728 1.728 1.728z"/>
   <path d="m359.2 173.4c17.57 0 30.24-10.22 34.27-26.21 0.864-3.888 1.44-8.064 1.44-12.67 0-4.896-0.576-9.648-1.872-13.82-4.464-14.69-16.56-24.05-33.7-24.05-17.28 0-29.66 9.216-34.13 24.19-1.296 4.176-1.872 8.928-1.872 13.97 0 4.608 0.576 9.072 1.728 12.96 4.032 15.55 16.7 25.63 34.13 25.63zm0-20.45c-5.76 0-9.504-4.032-11.09-9.936-0.576-2.448-0.72-5.328-0.72-8.208 0-3.024 0.144-6.048 0.864-8.352 1.44-5.616 5.04-9.36 10.8-9.36s9.36 3.6 10.94 9.36c0.576 2.304 0.864 5.184 0.864 8.352 0 2.88-0.144 5.76-0.864 8.208-1.44 5.904-5.04 9.936-10.8 9.936z"/>
   <path d="m423.9 172.3h21.17c1.008 0 1.584-0.432 1.872-1.44l8.064-33.55c0.144-0.576 0.72-0.576 0.864 0l9.504 33.55c0.288 0.864 1.008 1.44 2.016 1.44h21.17c1.008 0 1.584-0.576 1.872-1.44l21.17-70.99c0.288-1.152-0.288-1.872-1.44-1.872l-21.02-0.288c-1.008 0-1.728 0.432-2.016 1.44l-9.648 39.31c-0.144 0.576-0.72 0.576-0.864 0l-9.792-39.31c-0.288-1.008-1.008-1.44-2.016-1.44h-18.43c-1.008 0-1.584 0.432-1.872 1.44l-9.36 39.17c-0.144 0.72-0.72 0.72-0.864 0l-8.64-39.02c-0.144-1.008-0.864-1.584-1.872-1.584h-21.17c-1.152 0-1.728 0.864-1.44 2.016l20.88 71.14c0.288 0.864 0.864 1.44 1.872 1.44z"/>
  </g>
  <g transform="translate(-16.38 109.3)" style="shape-inside:url(#rect2885-5-47);white-space:pre" aria-label="League Spartan">
   <path d="m62.97 56.87h5.5v60.85h26.9v5.15h-32.4z"/>
   <path d="m110 103q0.05 4.3 1.7 8.05 1.7 3.75 5.1 6.05t8.55 2.3q4.2 0 7-1.35 2.85-1.4 4.5-3.2 1.7-1.85 2.4-3.3l3.55 3.5q-2.8 4.3-6.9 6.65t-10.85 2.35q-6.55 0-11.2-2.9-4.6-2.95-7.05-8-2.4-5.05-2.4-11.35 0-6 2.4-10.8t6.9-7.6q4.55-2.8 10.95-2.8 5.8 0 10.1 2.55t6.65 7.1q2.35 4.5 2.35 10.5 0 0.45-0.05 1.15t-0.05 1.1zm28.05-4.75q-0.05-2.7-1.35-5.7-1.25-3.05-4.15-5.15-2.85-2.15-7.85-2.15-5.25 0-8.35 2.1-3.05 2.05-4.45 5.05t-1.65 5.85z"/>
   <path d="m188.1 122.9v-8.6q-0.35 1.35-2.35 3.7-1.95 2.3-5.45 4.2-3.45 1.9-8.25 1.9-5.55 0-10.25-2.6-4.65-2.6-7.5-7.45-2.8-4.85-2.8-11.65 0-6.8 2.8-11.65 2.85-4.9 7.5-7.5 4.7-2.6 10.25-2.6 4.75 0 8.25 1.8t5.5 4.1 2.25 3.85v-8.55h5.5v41.05zm-31.1-20.5q0 5.2 2.25 9 2.3 3.75 5.9 5.8 3.6 2 7.55 2 6.55 0 10.85-4.55 4.35-4.55 4.35-12.25 0-7.65-4.35-12.25-4.3-4.6-10.85-4.6-3.95 0-7.55 2.05t-5.9 5.85q-2.25 3.75-2.25 8.95z"/>
   <path d="m225.1 144.8q-7.7 0-12.4-2.4t-6.85-5.55l4.15-3.65q0.9 1.3 2.5 2.85t4.55 2.65q2.95 1.15 7.9 1.15 4.9 0 8.2-2.2 3.35-2.2 5.05-5.9 1.75-3.7 1.75-8.1v-9.35q-0.35 1.35-2.35 3.7-1.95 2.3-5.45 4.2-3.45 1.9-8.25 1.9-5.55 0-10.25-2.6-4.65-2.6-7.5-7.45-2.8-4.85-2.8-11.65 0-6.8 2.8-11.65 2.85-4.9 7.5-7.5 4.7-2.6 10.25-2.6 4.75 0 8.25 1.8t5.5 4.1 2.25 3.85v-8.55h5.5v42.25q0 6.75-2.75 11.35-2.75 4.65-7.35 7t-10.2 2.35zm-16.25-42.4q0 5.2 2.25 9 2.3 3.75 5.9 5.8 3.6 2 7.55 2 6.55 0 10.85-4.55 4.35-4.55 4.35-12.25 0-7.65-4.35-12.25-4.3-4.6-10.85-4.6-3.95 0-7.55 2.05t-5.9 5.85q-2.25 3.75-2.25 8.95z"/>
   <path d="m263.9 103.3q0 7.2 3.2 11.45t9.65 4.25 9.65-4.25 3.2-11.45v-21.5h5.5v22.5q0 5.7-2.15 10.2-2.1 4.45-6.2 7t-10 2.55q-5.85 0-9.95-2.55t-6.25-7q-2.15-4.5-2.15-10.2v-22.5h5.5z"/>
   <path d="m311.1 103q0.05 4.3 1.7 8.05 1.7 3.75 5.1 6.05t8.55 2.3q4.2 0 7-1.35 2.85-1.4 4.5-3.2 1.7-1.85 2.4-3.3l3.55 3.5q-2.8 4.3-6.9 6.65t-10.85 2.35q-6.55 0-11.2-2.9-4.6-2.95-7.05-8-2.4-5.05-2.4-11.35 0-6 2.4-10.8t6.9-7.6q4.55-2.8 10.95-2.8 5.8 0 10.1 2.55t6.65 7.1q2.35 4.5 2.35 10.5 0 0.45-0.05 1.15t-0.05 1.1zm28.05-4.75q-0.05-2.7-1.35-5.7-1.25-3.05-4.15-5.15-2.85-2.15-7.85-2.15-5.25 0-8.35 2.1-3.05 2.05-4.45 5.05t-1.65 5.85z"/>
   <path d="m399.4 55.67q5.45 0 9.3 1.3 3.9 1.25 6.05 2.7 2.2 1.4 2.6 1.85l-3 4.6q-0.8-0.65-2.65-1.9t-4.85-2.25q-2.95-1.05-7.05-1.05-6.45 0-10.2 2.7-3.7 2.7-3.7 7.55 0 4.9 4.25 8.05 4.3 3.1 10.7 6 3.3 1.5 6.7 3.35t6.2 4.35q2.85 2.45 4.55 5.75 1.75 3.3 1.75 7.65 0 5.25-2.8 9.25-2.75 4-7.7 6.25-4.9 2.25-11.3 2.25-5.7 0-10.35-1.45-4.6-1.5-7.45-3.05-2.8-1.55-3.15-1.9l3.3-4.8q0.85 0.65 3.25 2.1 2.4 1.4 6.1 2.65 3.75 1.2 8.55 1.2 7.7 0 11.7-3.6 4.05-3.65 4.05-9.2 0-4.25-2.6-7.3-2.55-3.05-6.6-5.35-4-2.3-8.35-4.35-4.65-2.15-8.4-4.6t-6-5.7q-2.2-3.25-2.2-7.8 0-4.45 2.55-7.85 2.55-3.45 6.9-5.4 4.4-2 9.85-2z"/>
   <path d="m437.5 143.7h-5.55v-61.85h5.7v8.55q0.25-1.65 2.4-3.95t5.75-4.05q3.65-1.75 8.45-1.75 5.55 0 10.05 2.6t7.1 7.5q2.65 4.85 2.65 11.65 0 6.8-2.65 11.65t-7.2 7.45q-4.5 2.6-10.1 2.6-4.85 0-8.55-1.85-3.65-1.9-5.75-4.2-2.1-2.35-2.3-3.75zm31.05-41.3q0-5.2-2.15-8.95-2.1-3.8-5.55-5.85-3.4-2.05-7.35-2.05-4.35 0-7.95 2.1t-5.75 5.9q-2.15 3.75-2.15 8.85 0 5.15 2.15 8.9t5.75 5.85q3.6 2.05 7.95 2.05 3.95 0 7.35-2 3.45-2.05 5.55-5.8 2.15-3.8 2.15-9z"/>
   <path d="m517.7 122.9v-8.6q-0.35 1.35-2.35 3.7-1.95 2.3-5.45 4.2-3.45 1.9-8.25 1.9-5.55 0-10.25-2.6-4.65-2.6-7.5-7.45-2.8-4.85-2.8-11.65 0-6.8 2.8-11.65 2.85-4.9 7.5-7.5 4.7-2.6 10.25-2.6 4.75 0 8.25 1.8t5.5 4.1 2.25 3.85v-8.55h5.5v41.05zm-31.1-20.5q0 5.2 2.25 9 2.3 3.75 5.9 5.8 3.6 2 7.55 2 6.55 0 10.85-4.55 4.35-4.55 4.35-12.25 0-7.65-4.35-12.25-4.3-4.6-10.85-4.6-3.95 0-7.55 2.05t-5.9 5.85q-2.25 3.75-2.25 8.95z"/>
   <path d="m542.1 122.9h-5.45v-41.05h5.45v6.55q0.6-1.45 2.25-3.25 1.7-1.8 4.3-3.15 2.65-1.35 6.05-1.35 2.85 0 4.9 0.75 2.1 0.75 2.9 1.45l-2.4 4.7q-0.7-0.6-2.45-1.25-1.75-0.7-4.3-0.7-3.4 0-5.95 2.35-2.55 2.3-3.95 5.5-1.35 3.2-1.35 5.9z"/>
   <path d="m566 81.82h8.6v-16.85h5.5v16.85h11.2v5.05h-11.2v24.5q0 4.2 1.5 5.95 1.55 1.7 3.8 1.7 2.1 0 3.2-0.75 1.15-0.75 1.35-1l2.6 4.25q-0.4 0.4-2.5 1.45-2.1 1.1-5.6 1.1-4.2 0-7.05-2.65-2.8-2.7-2.8-8.6v-25.95h-8.6z"/>
   <path d="m635 122.9v-8.6q-0.35 1.35-2.35 3.7-1.95 2.3-5.45 4.2-3.45 1.9-8.25 1.9-5.55 0-10.25-2.6-4.65-2.6-7.5-7.45-2.8-4.85-2.8-11.65 0-6.8 2.8-11.65 2.85-4.9 7.5-7.5 4.7-2.6 10.25-2.6 4.75 0 8.25 1.8t5.5 4.1 2.25 3.85v-8.55h5.5v41.05zm-31.1-20.5q0 5.2 2.25 9 2.3 3.75 5.9 5.8 3.6 2 7.55 2 6.55 0 10.85-4.55 4.35-4.55 4.35-12.25 0-7.65-4.35-12.25-4.3-4.6-10.85-4.6-3.95 0-7.55 2.05t-5.9 5.85q-2.25 3.75-2.25 8.95z"/>
   <path d="m673.8 80.62q3.85 0 7.5 1.7 3.7 1.65 6.1 5.25t2.4 9.4v25.9h-5.65v-24.55q0-6.9-3.25-9.95-3.2-3.05-8.2-3.05-3.3 0-6.4 1.95-3.1 1.9-5.1 5.2-1.95 3.3-1.95 7.45v22.95h-5.55v-41.05h5.55v7.95q0.35-1.8 2.35-3.9 2.05-2.15 5.2-3.7 3.2-1.55 7-1.55z"/>
  </g>
  <g transform="translate(28.98 230)" style="shape-inside:url(#rect2885-5-4-8);white-space:pre" aria-label="Lunchtype22 ">
   <path d="m62.27 56.87h10.15v56.95h25.45v9.05h-35.6z"/>
   <path d="m118.7 102.1q0 6.05 2.55 9.65t7.95 3.6q5.5 0 8-3.6 2.55-3.6 2.55-9.65v-20.3h10.15v21.6q0 6.1-2.45 10.8-2.4 4.65-7 7.25t-11.25 2.6q-6.55 0-11.15-2.6t-7.05-7.25q-2.4-4.7-2.4-10.8v-21.6h10.1z"/>
   <path d="m185.7 80.62q4.1 0 7.95 1.7 3.9 1.7 6.4 5.4 2.55 3.7 2.55 9.65v25.5h-10.35v-23.55q0-5.7-2.7-8.35-2.65-2.65-6.85-2.65-2.8 0-5.35 1.6-2.55 1.55-4.15 4.25t-1.6 6.2v22.5h-10.3v-41.05h10.3v7q0.45-1.7 2.4-3.6 2-1.9 5.05-3.25t6.65-1.35z"/>
   <path d="m233.7 115.7q3.65 0 5.9-1.15 2.3-1.2 2.9-1.8l4.9 7.25q-0.6 0.5-2.5 1.5-1.85 0.95-4.8 1.75-2.9 0.8-6.65 0.8-5.95 0-10.95-2.55-4.95-2.55-7.95-7.4-2.95-4.9-2.95-11.8 0-6.95 2.95-11.75 3-4.85 7.95-7.4 5-2.55 10.95-2.55 3.7 0 6.55 0.85t4.75 1.9q1.9 1 2.55 1.6l-4.95 7.25q-0.4-0.35-1.5-1.15t-2.9-1.45q-1.75-0.65-4.25-0.65-3 0-5.85 1.65-2.8 1.6-4.6 4.6-1.75 2.95-1.75 7.1 0 4.15 1.75 7.15 1.8 3 4.6 4.65 2.85 1.6 5.85 1.6z"/>
   <path d="m280.3 80.62q4.1 0 7.95 1.7 3.9 1.7 6.4 5.4 2.55 3.7 2.55 9.65v25.5h-10.3v-23.55q0-5.7-2.6-8.35t-6.8-2.65q-2.85 0-5.45 1.6-2.55 1.55-4.2 4.25t-1.65 6.2v22.5h-10.35v-68.8h10.35v34.75q0.45-1.7 2.4-3.6 2-1.9 5.05-3.25t6.65-1.35z"/>
   <path d="m305.2 81.82h7.8v-16.85h10.15v16.85h10.25v8.7h-10.25v18.1q0 3.4 1.15 5.05 1.2 1.65 3.3 1.65 1.75 0 2.75-0.65 1.05-0.7 1.25-0.9l3.9 7.45q-0.35 0.25-1.75 1-1.4 0.7-3.65 1.25-2.25 0.6-5.15 0.6-5.1 0-8.55-3.05-3.4-3.1-3.4-9.65v-20.85h-7.8z"/>
   <path d="m360.9 113.7 13.15-31.85h10.25l-27.85 61.85h-10.35l9.35-20.8-17-41.05h10.4z"/>
   <path d="m401 143.7h-10.2v-61.85h10.35v7.3q0.5-1.55 2.5-3.5 2.05-2 5.4-3.5 3.4-1.5 7.75-1.5 5.8 0 10.15 2.8 4.4 2.75 6.85 7.65 2.5 4.9 2.5 11.3 0 6.4-2.55 11.3t-7.05 7.65q-4.45 2.75-10.25 2.75-4.6 0-7.95-1.7t-5.25-3.8-2.25-3.35zm25.2-41.3q0-4.05-1.7-7.05t-4.5-4.65q-2.75-1.7-6.05-1.7-3.6 0-6.5 1.7t-4.6 4.7-1.7 7q0 4 1.7 7t4.6 4.7q2.9 1.65 6.5 1.65 3.3 0 6.05-1.65 2.8-1.65 4.5-4.65t1.7-7.05z"/>
   <path d="m452.7 104.9q0.1 3.25 1.55 5.85t4.25 4.1q2.85 1.45 6.95 1.45 3.55 0 6.1-0.95 2.6-1 4.3-2.35 1.7-1.4 2.5-2.6l4.75 6.45q-1.55 2.1-3.9 3.75t-5.85 2.55q-3.45 0.95-8.55 0.95-6.7 0-11.65-2.75t-7.7-7.75q-2.7-5-2.7-11.7 0-6 2.5-10.8 2.5-4.85 7.25-7.65 4.8-2.8 11.5-2.8 6.25 0 10.85 2.5t7.1 7.2q2.55 4.65 2.55 11.25 0 0.4-0.05 1.65 0 1.25-0.1 1.65zm21.8-7.8q-0.05-1.6-1.1-3.65-1-2.05-3.25-3.55-2.25-1.55-6-1.55-3.85 0-6.25 1.5-2.4 1.45-3.55 3.5-1.15 2-1.35 3.75z"/>
   <path d="m516.1 64.47q-3.9 0-6.9 1.65-2.95 1.65-4.95 3.85-1.95 2.2-3 4-1 1.8-1.1 2l-8.8-3.9q0.1-0.5 0.95-2.25 0.85-1.8 2.65-4.15 1.8-2.4 4.65-4.7t6.95-3.8 9.55-1.5q5.8 0 9.9 1.65 4.1 1.6 6.7 4.45 2.6 2.8 3.8 6.5 1.25 3.7 1.25 7.85 0 4.25-1.95 8.55t-5.05 8.35q-3.05 4.05-6.6 7.65-3.55 3.55-6.85 6.35t-5.65 4.6q-2.35 1.75-3 2.25h28.55v9h-44.1v-8.2q1.3-1.05 4.3-3.4 3.05-2.35 6.95-5.55 3.9-3.25 7.9-7 4.05-3.8 7.5-7.75 3.5-4 5.6-7.8 2.15-3.85 2.15-7.15 0-6.4-3-8.95-2.95-2.6-8.4-2.6z"/>
   <path d="m571.5 64.47q-3.9 0-6.9 1.65-2.95 1.65-4.95 3.85-1.95 2.2-3 4-1 1.8-1.1 2l-8.8-3.9q0.1-0.5 0.95-2.25 0.85-1.8 2.65-4.15 1.8-2.4 4.65-4.7t6.95-3.8 9.55-1.5q5.8 0 9.9 1.65 4.1 1.6 6.7 4.45 2.6 2.8 3.8 6.5 1.25 3.7 1.25 7.85 0 4.25-1.95 8.55t-5.05 8.35q-3.05 4.05-6.6 7.65-3.55 3.55-6.85 6.35t-5.65 4.6q-2.35 1.75-3 2.25h28.55v9h-44.1v-8.2q1.3-1.05 4.3-3.4 3.05-2.35 6.95-5.55 3.9-3.25 7.9-7 4.05-3.8 7.5-7.75 3.5-4 5.6-7.8 2.15-3.85 2.15-7.15 0-6.4-3-8.95-2.95-2.6-8.4-2.6z"/>
  </g>
 </g>
</svg>
