<svg width="100" height="100" version="1.1" viewBox="0 0 27 27" xmlns="http://www.w3.org/2000/svg">
 <g>
  <rect y="-1.8e-7" width="27" height="27" fill="#c6a5a1"/>
  <path d="m13 3.4c-2.6 0.021-5.1 0.3-6.5 0.97 0 0-2.9 1.3-2.9 5.7 0 1-0.02 2.2 0.012 3.5 0.1 4.3 0.79 8.5 4.8 9.6 1.8 0.49 3.4 0.59 4.7 0.52 2.3-0.13 3.6-0.82 3.6-0.82l-0.076-1.7s-1.6 0.52-3.5 0.45c-1.8-0.063-3.8-0.2-4.1-2.4-0.027-0.2-0.041-0.41-0.041-0.63 0 0 1.8 0.44 4.1 0.54 1.4 0.064 2.7-0.081 4-0.24 2.5-0.3 4.7-1.9 5-3.3 0.44-2.3 0.4-5.5 0.4-5.5 0-4.4-2.9-5.7-2.9-5.7-1.5-0.67-3.9-0.95-6.5-0.97zm-2.9 3.4c1.1 0 1.9 0.41 2.4 1.2l0.53 0.88 0.53-0.88c0.54-0.83 1.4-1.2 2.4-1.2 0.93 0 1.7 0.33 2.3 0.97 0.56 0.64 0.83 1.5 0.83 2.6v5.3h-2.1v-5.2c0-1.1-0.46-1.6-1.4-1.6-1 0-1.5 0.66-1.5 2v2.8h-2.1v-2.8c0-1.3-0.51-2-1.5-2-0.92 0-1.4 0.55-1.4 1.6v5.2h-2.1v-5.3c0-1.1 0.28-2 0.83-2.6 0.57-0.64 1.3-0.97 2.3-0.97z" fill="#311414"/>
 </g>
</svg>
