<?xml version="1.0" encoding="UTF-8" standalone="no"?>
<!-- Created with Inkscape (http://www.inkscape.org/) -->

<svg
   width="445.33289"
   height="256.10004"
   viewBox="0 0 445.33289 256.10005"
   version="1.1"
   id="svg5"
   inkscape:version="1.3 (0e150ed6c4, 2023-07-21)"
   sodipodi:docname="Website_Logo.svg"
   xml:space="preserve"
   xmlns:inkscape="http://www.inkscape.org/namespaces/inkscape"
   xmlns:sodipodi="http://sodipodi.sourceforge.net/DTD/sodipodi-0.dtd"
   xmlns="http://www.w3.org/2000/svg"
   xmlns:svg="http://www.w3.org/2000/svg"><sodipodi:namedview
     id="namedview7"
     pagecolor="#505050"
     bordercolor="#eeeeee"
     borderopacity="1"
     inkscape:showpageshadow="0"
     inkscape:pageopacity="0"
     inkscape:pagecheckerboard="0"
     inkscape:deskcolor="#505050"
     inkscape:document-units="px"
     showgrid="false"
     inkscape:zoom="0.50798428"
     inkscape:cx="-1145.7047"
     inkscape:cy="903.57127"
     inkscape:window-width="1920"
     inkscape:window-height="1011"
     inkscape:window-x="0"
     inkscape:window-y="0"
     inkscape:window-maximized="1"
     inkscape:current-layer="layer1"><inkscape:grid
       id="grid2"
       units="px"
       originx="1677.1447"
       originy="-411.19098"
       spacingx="1"
       spacingy="1.0000001"
       empcolor="#0099e5"
       empopacity="0.30196078"
       color="#0099e5"
       opacity="0.14901961"
       empspacing="5"
       dotted="false"
       gridanglex="30"
       gridanglez="30"
       visible="false" /><inkscape:page
       x="1.4561091e-05"
       y="1.4758491e-06"
       width="445.33289"
       height="256.10004"
       id="page3"
       margin="0"
       bleed="0" /></sodipodi:namedview><defs
     id="defs2" /><g
     inkscape:label="Layer 1"
     inkscape:groupmode="layer"
     id="layer1"
     transform="translate(1677.1446,-411.19096)"><rect
       style="fill:#cccccc;fill-opacity:1;stroke:none;stroke-width:51.9095;stroke-linecap:round;stroke-linejoin:round;stroke-miterlimit:58;stroke-dashoffset:3;paint-order:stroke fill markers"
       id="rect43"
       width="445.33286"
       height="256.10004"
       x="-1677.1447"
       y="411.19098"
       inkscape:export-filename="site_copy/static/img/about/pieces.png"
       inkscape:export-xdpi="155.20973"
       inkscape:export-ydpi="155.20973" /><rect
       style="fill:#e5e5e5;fill-opacity:1;stroke-width:2.08515;stroke-linecap:square;stroke-miterlimit:58;stroke-dashoffset:3;paint-order:fill markers stroke"
       id="rect9-6-0-9-4-7-4-5"
       width="34.822056"
       height="83.852013"
       x="875.81543"
       y="1087.0112"
       rx="13.739074"
       ry="13.739062"
       transform="matrix(-0.32456441,0.9458636,-0.94573021,-0.32495287,0,0)"
       inkscape:export-filename="site_copy/static/img/assets/footer.svg"
       inkscape:export-xdpi="96"
       inkscape:export-ydpi="96" /><circle
       style="fill:#999999;fill-opacity:1;stroke-width:0.999998;stroke-linecap:square;stroke-miterlimit:58;stroke-dashoffset:3;paint-order:fill markers stroke"
       id="path8-6-1-9-8-7"
       cx="-1632.3367"
       cy="500.28079"
       r="12.775879"
       inkscape:export-filename="site_copy/static/img/assets/circle.svg"
       inkscape:export-xdpi="96"
       inkscape:export-ydpi="96" /><circle
       style="fill:none;fill-opacity:1;stroke:#e5e5e5;stroke-width:11.4665;stroke-linecap:round;stroke-linejoin:round;stroke-miterlimit:58;stroke-dashoffset:3;stroke-opacity:1;paint-order:stroke fill markers"
       id="path4-0-0-5"
       cx="-1624.0769"
       cy="555.61096"
       r="19.882231" /><circle
       style="fill:none;fill-opacity:1;stroke:#b3b3b3;stroke-width:8;stroke-linecap:round;stroke-linejoin:round;stroke-miterlimit:58;stroke-dashoffset:3;stroke-opacity:1;paint-order:stroke fill markers"
       id="path4-0-0-5-8"
       cx="-1292.3845"
       cy="567.61548"
       r="12.188707" /><rect
       style="fill:#a6a6a6;fill-opacity:1;stroke:none;stroke-width:10.8086;stroke-linecap:round;stroke-linejoin:round;stroke-miterlimit:58;stroke-dashoffset:3;stroke-opacity:1;paint-order:stroke fill markers"
       id="rect39-6-8-6-6"
       width="31.074663"
       height="31.074663"
       x="-336.02762"
       y="1331.9514"
       rx="6.7553616"
       ry="6.7553616"
       transform="matrix(-0.14617328,-0.989259,-0.989259,0.14617328,0,0)" /><rect
       style="fill:none;fill-opacity:1;stroke:#a6a6a6;stroke-width:13.7569;stroke-linecap:round;stroke-linejoin:round;stroke-miterlimit:58;stroke-dashoffset:3;stroke-opacity:1;paint-order:stroke fill markers"
       id="rect38-9-2-5"
       width="92.171074"
       height="30.265131"
       x="-1607.0469"
       y="-347.19275"
       rx="15.132568"
       ry="15.132568"
       transform="rotate(-30.700196)" /><path
       d="m -1422.0654,588.94437 -22.512,-0.2259 10.8855,-19.2828 z"
       fill="#292929"
       stroke="#292929"
       stroke-linejoin="round"
       stroke-width="14"
       id="path6-84-0-6-9"
       style="fill:#d9d9d9;fill-opacity:1;stroke:#d9d9d9;stroke-width:11;stroke-opacity:1"
       inkscape:transform-center-x="-5.8132502"
       inkscape:transform-center-y="0.11295" /><rect
       style="fill:#b3b3b3;stroke-width:1;stroke-linecap:square;stroke-miterlimit:58;stroke-dashoffset:3;paint-order:fill markers stroke"
       id="rect9-6-0-5-5"
       width="25.435452"
       height="61.24894"
       x="-1199.3539"
       y="1134.8289"
       rx="6.5890207"
       ry="6.589015"
       transform="matrix(0.89018129,0.45560649,-0.45597209,0.88999407,0,0)" /><circle
       style="fill:#999999;fill-opacity:1;stroke-width:1;stroke-linecap:square;stroke-miterlimit:58;stroke-dashoffset:3;paint-order:fill markers stroke"
       id="path8-6-3-3"
       cx="-1440.462"
       cy="453.6839"
       r="21.697824" /><path
       id="path36-5-5"
       style="fill:#ececec;fill-opacity:1;stroke-width:0.56689;stroke-linecap:square;stroke-miterlimit:58;stroke-dashoffset:3;paint-order:fill markers stroke"
       d="m -1319.3781,530.76646 c -2.161,-3.08004 -5.1297,-5.70103 -8.796,-7.53608 -11.1508,-5.57793 -25.9914,-2.02098 -32.4064,9.75534 -4.9743,9.13381 -9.9485,18.26768 -14.9229,27.40141 -6.2829,11.53636 -12.566,23.07262 -18.8488,34.60904 l -5.7036,10.47349 c -6.139,11.27504 -1.556,25.19106 10.1764,31.06325 11.1507,5.57794 25.9913,2.02099 32.4064,-9.75534 4.9743,-9.13382 9.9484,-18.26768 14.9229,-27.40141 l 18.8488,-34.60904 5.7035,-10.47349 c 4.2206,-7.75162 3.3739,-16.75109 -1.3803,-23.52717 z m -15.3935,9.8006 c 1.1528,1.57164 1.3911,3.7039 0.3952,5.53112 l -1.1571,2.12605 -32.7501,60.13385 -5.568,10.22399 c -1.2441,2.28616 -3.9749,3.32617 -6.4369,2.65034 -3.4168,-0.93795 -4.9821,-4.64379 -3.3887,-7.56731 l 1.1572,-2.12605 38.318,-70.35789 c 1.2441,-2.28615 3.9748,-3.32612 6.437,-2.65028 1.2812,0.35174 2.3018,1.09322 2.9934,2.03618 z" /><path
       style="fill:#000000;fill-opacity:0;stroke:#ececec;stroke-width:25;stroke-linecap:round;stroke-linejoin:round;stroke-miterlimit:58;stroke-dashoffset:3;stroke-opacity:1;paint-order:stroke fill markers"
       d="m -1591.8326,606.08373 c 0,0 12.5489,-45.41759 64.6278,-26.89341 52.0789,18.52413 64.6278,-26.89348 64.6278,-26.89348"
       id="path5-1"
       sodipodi:nodetypes="czc" /><path
       id="path10"
       style="fill:#bfbfbf;fill-opacity:1;stroke:#bfbfbf;stroke-width:17.7778;stroke-linecap:round;stroke-linejoin:round;stroke-miterlimit:58;stroke-dashoffset:3;stroke-opacity:1;paint-order:stroke fill markers"
       d="m -1411.1233,503.45113 -9.0058,34.39618 m -12.6952,-21.70105 34.3962,9.00588" /></g></svg>
