<svg width="100" height="100" version="1.1" viewBox="0 0 27 27" xmlns="http://www.w3.org/2000/svg">
 <g>
  <rect y="-1.8e-7" width="27" height="27" fill="#c6a5a1" stroke-linecap="square" stroke-width="2.8" style="paint-order:markers stroke fill"/>
  <g transform="matrix(.52 0 0 .52 3.4 3.4)" fill="none" stroke-width=".52">
   <g fill="#efc7c2">
    <path d="m17 19c0.04 0.28 0.069 0.57 0.069 0.86 0 3.3-2.7 6.1-6.1 6.1h-5.4c-3.3 0-6.1-2.7-6.1-6.1 0-3 2.2-5.5 5.1-6l6.7e-4 6.7e-4c0-6.7e-4 -6.7e-4 -0.0013-6.7e-4 -0.0013 0.31-0.05 0.63-0.083 0.95-0.083h5.4c3 0 5.6 2.3 6 5.2z"/>
    <path d="m26 5.1c-0.47-2.9-3-5.1-6-5.1s-5.5 2.2-6 5.1c0.26 0.19 0.51 0.39 0.74 0.62l3.8 3.8c0.67 0.67 1.1 1.5 1.4 2.3 0.44 1.3 0.44 2.7 0 4-0.2 0.58-0.49 1.1-0.87 1.6 0.28 0.041 0.57 0.07 0.87 0.07 0.29 0 0.58-0.028 0.87-0.07 0.63-0.091 1.2-0.28 1.8-0.55 1.2-0.6 2.2-1.6 2.8-2.8 0.39-0.8 0.62-1.7 0.62-2.6v-5.4c0-0.33-0.034-0.65-0.084-0.96z"/>
    <path d="m25 33-3.8-3.8c-0.67-0.67-1.1-1.5-1.4-2.3-0.44-1.3-0.44-2.7 0-4 0.2-0.58 0.49-1.1 0.87-1.6-0.28-0.041-0.57-0.07-0.87-0.07-0.29 0-0.58 0.028-0.87 0.07-0.63 0.091-1.2 0.28-1.8 0.55-1.2 0.6-2.2 1.6-2.8 2.8-0.39 0.8-0.62 1.7-0.62 2.6v5.4c0 0.33 0.034 0.65 0.084 0.96 0.47 2.9 3 5.1 6 5.1s5.5-2.2 6-5.1c-0.26-0.19-0.51-0.39-0.74-0.62z"/>
    <path d="m34 14c-0.19 0.26-0.39 0.51-0.62 0.74l-3.8 3.8c-0.67 0.67-1.5 1.1-2.3 1.4-1.3 0.44-2.7 0.44-4 0-0.58-0.2-1.1-0.49-1.6-0.87-0.041 0.28-0.069 0.57-0.069 0.87 0 0.29 0.028 0.58 0.069 0.87 0.091 0.63 0.28 1.2 0.55 1.8 0.6 1.2 1.6 2.2 2.8 2.8 0.8 0.39 1.7 0.62 2.6 0.62h5.4c0.33 0 0.65-0.034 0.96-0.084 2.9-0.47 5.1-3 5.1-6s-2.2-5.5-5.1-6z"/>
   </g>
   <g fill="#311414">
    <path d="m33 5.7c-2.1-2.1-5.5-2.3-7.8-0.62 0.051 0.31 0.084 0.63 0.084 0.96v5.4c0 0.95-0.23 1.8-0.62 2.6-0.6 1.2-1.6 2.2-2.8 2.8-0.55 0.27-1.1 0.45-1.8 0.55 0.17 0.23 0.36 0.45 0.56 0.66s0.43 0.39 0.66 0.56c0.51 0.38 1.1 0.67 1.6 0.87 1.3 0.44 2.7 0.44 4 0 0.84-0.29 1.6-0.76 2.3-1.4l3.8-3.8c0.23-0.23 0.43-0.48 0.62-0.74 1.7-2.4 1.5-5.7-0.62-7.8z"/>
    <path d="m34 26c-0.31 0.051-0.63 0.084-0.96 0.084h-5.4c-0.95 0-1.8-0.23-2.6-0.62-1.2-0.6-2.2-1.6-2.8-2.8-0.27-0.55-0.45-1.1-0.55-1.8-0.23 0.17-0.45 0.36-0.66 0.56s-0.39 0.43-0.56 0.66c-0.38 0.51-0.67 1.1-0.87 1.6-0.44 1.3-0.44 2.7 0 4 0.29 0.84 0.76 1.6 1.4 2.3l3.8 3.8c0.23 0.23 0.48 0.43 0.74 0.62 2.4 1.7 5.7 1.5 7.8-0.62 2.1-2.1 2.3-5.5 0.62-7.8z"/>
    <path d="m20 12c-0.29-0.84-0.76-1.6-1.4-2.3l-3.8-3.8c-0.23-0.23-0.48-0.43-0.74-0.62-2.4-1.7-5.7-1.5-7.8 0.62-2.1 2.1-2.3 5.5-0.62 7.8 0.31-0.049 0.63-0.082 0.95-0.082h5.4c3 0 5.6 2.3 6 5.2 0.0027-2e-3 0.0054-0.0034 0.0081-0.0054 0.23-0.17 0.45-0.36 0.66-0.56s0.39-0.43 0.56-0.66c0.38-0.51 0.67-1.1 0.87-1.6 0.44-1.3 0.44-2.7 0-4z"/>
    <path d="m18 21c-0.21-0.21-0.43-0.39-0.66-0.56-0.51-0.38-1.1-0.67-1.6-0.87-1.3-0.44-2.7-0.44-4 0-0.84 0.29-1.6 0.76-2.3 1.4l-3.8 3.8c-0.23 0.23-0.43 0.48-0.62 0.74-1.7 2.4-1.5 5.7 0.62 7.8 2.1 2.1 5.5 2.3 7.8 0.62-0.051-0.31-0.084-0.63-0.084-0.96v-5.4c0-0.95 0.23-1.8 0.62-2.6 0.6-1.2 1.6-2.2 2.8-2.8 0.55-0.27 1.1-0.45 1.8-0.55-0.17-0.23-0.36-0.45-0.56-0.66z"/>
   </g>
   <path d="m18 24h3.4c3.2 0 5.8-2.6 5.8-5.7s-2.6-5.7-5.8-5.7h-4.9c-1.9 0-3.4 1.5-3.4 3.3v13z" fill="#c6a5a1"/>
  </g>
 </g>
</svg>
